<svg xmlns="http://www.w3.org/2000/svg" viewBox="0 0 750 500"><g id="freepik--background-complete--inject-89"><polygon points="605.16 359.97 642.98 359.97 664.63 252.06 630 236.15 605.16 359.97" style="fill:#dbdbdb"></polygon><polygon points="496.92 359.97 605.16 359.97 630 236.15 521.75 236.15 496.92 359.97" style="fill:#ebebeb"></polygon><rect x="624.58" y="302.08" width="57.96" height="118.92" transform="translate(1307.12 723.07) rotate(180)" style="fill:#dbdbdb"></rect><polygon points="469.1 421 484.94 421 508.53 302.08 469.1 302.08 469.1 421" style="fill:#dbdbdb"></polygon><rect x="592.73" y="302.08" width="31.85" height="118.92" transform="translate(1217.31 723.07) rotate(180)" style="fill:#ebebeb"></rect><rect x="437.26" y="302.08" width="31.85" height="118.92" transform="translate(906.36 723.07) rotate(180)" style="fill:#ebebeb"></rect><rect x="469.1" y="359.97" width="123.63" height="61.03" transform="translate(1061.83 780.97) rotate(180)" style="fill:#ebebeb"></rect><rect x="469.1" y="333.59" width="123.63" height="26.63" transform="translate(1061.83 693.81) rotate(180)" style="fill:#ebebeb"></rect><path d="M616.78,302.08l-12-.22-12-.15h-.36v.37L592.23,316l-.05,13.92c0,9.28-.06,18.56,0,27.83s0,18.56.16,27.84.21,18.56.4,27.83q.3-13.91.41-27.83c.11-9.28.13-18.56.15-27.84s0-18.55,0-27.83l0-13.92-.13-13.91-.37.36,12-.15Z" style="fill:#dbdbdb"></path><path d="M469.1,302.08c-.25,9.31-.36,18.62-.46,27.93L468.5,358l.14,27.94.17,14,.29,14,.3-14,.16-14L469.7,358,469.56,330C469.47,320.7,469.35,311.39,469.1,302.08Z" style="fill:#dbdbdb"></path><path d="M469.1,360c10.3.25,20.61.37,30.91.46l30.91.14,30.9-.14,15.46-.16,15.45-.3-15.45-.29-15.46-.17-30.9-.14-30.91.14C489.71,359.61,479.4,359.72,469.1,360Z" style="fill:#dbdbdb"></path><path d="M469.1,333.59c10.3.25,20.61.36,30.91.46l30.91.14,30.9-.14,15.46-.17,15.45-.29-15.45-.3-15.46-.16-30.9-.14-30.91.14C489.71,333.23,479.4,333.34,469.1,333.59Z" style="fill:#dbdbdb"></path><polygon points="660.51 421 661.3 430.63 663.13 452.89 671.52 452.89 673.35 430.63 674.13 421 660.51 421" style="fill:#c7c7c7"></polygon><polygon points="674.13 421 660.51 421 661.3 430.63 673.35 430.63 674.13 421" style="fill:#a6a6a6"></polygon><polygon points="601.85 421 602.63 430.63 604.46 452.89 612.85 452.89 614.68 430.63 615.47 421 601.85 421" style="fill:#c7c7c7"></polygon><polygon points="615.47 421 601.85 421 602.63 430.63 614.68 430.63 615.47 421" style="fill:#a6a6a6"></polygon><polygon points="504.54 421 505.32 430.63 507.15 452.89 515.54 452.89 517.37 430.63 518.16 421 504.54 421" style="fill:#c7c7c7"></polygon><polygon points="518.16 421 504.54 421 505.32 430.63 517.37 430.63 518.16 421" style="fill:#a6a6a6"></polygon><polygon points="445.86 421 446.64 430.63 448.47 452.89 456.86 452.89 458.69 430.63 459.48 421 445.86 421" style="fill:#c7c7c7"></polygon><polygon points="445.86 421 446.64 430.63 458.69 430.63 459.48 421 445.86 421" style="fill:#a6a6a6"></polygon><path d="M90.14,48V255.65H235.61V48Zm141.21,203.4H94.4V52.25h137Z" style="fill:#ebebeb"></path><rect x="94.4" y="52.25" width="136.95" height="199.14" style="fill:#fff"></rect><rect x="94.4" y="134.69" width="136.95" height="4.26" transform="translate(325.75 273.64) rotate(180)" style="fill:#ebebeb"></rect><rect x="82.29" y="255.65" width="161.16" height="12.23" transform="translate(325.75 523.53) rotate(180)" style="fill:#dbdbdb"></rect><path d="M94.4,52.25h137V161.68H94.4Zm133,4H98.34V157.73H227.4Z" style="fill:#dbdbdb"></path><rect x="185.08" y="52.25" width="2.13" height="105.48" style="fill:#dbdbdb"></rect><rect x="138.53" y="52.25" width="2.13" height="105.48" style="fill:#dbdbdb"></rect><path d="M302.27,48V255.65H447.74V48Zm141.21,203.4h-137V52.25h137Z" style="fill:#ebebeb"></path><rect x="306.53" y="52.25" width="136.95" height="199.14" style="fill:#fff"></rect><rect x="306.52" y="134.69" width="136.95" height="4.26" transform="translate(750 273.64) rotate(180)" style="fill:#ebebeb"></rect><rect x="294.42" y="255.65" width="161.16" height="12.23" transform="translate(750 523.53) rotate(180)" style="fill:#dbdbdb"></rect><path d="M306.52,52.25h137V161.68h-137Zm133,4H310.47V157.73H439.53Z" style="fill:#dbdbdb"></path><rect x="397.21" y="52.25" width="2.13" height="105.48" style="fill:#dbdbdb"></rect><rect x="350.66" y="52.25" width="2.13" height="105.48" style="fill:#dbdbdb"></rect><rect x="539.83" y="51.44" width="66.33" height="66.33" style="fill:#fff"></rect><path d="M536.38,48v73.24h73.23V48Zm69.78,69.79H539.83V51.44h66.33Z" style="fill:#dbdbdb"></path><rect x="564.07" y="67.62" width="22.93" height="51.7" transform="translate(669 -482.07) rotate(90)" style="fill:#ebebeb"></rect><rect x="559.75" y="71.37" width="26.49" height="26.49" transform="translate(657.6 -488.38) rotate(90)" style="fill:#c7c7c7"></rect><rect x="609.61" y="47.99" width="2.83" height="73.24" style="fill:#c7c7c7"></rect><rect x="604.68" y="145.63" width="66.33" height="66.33" style="fill:#fff"></rect><rect x="616.09" y="156.25" width="17.32" height="50.03" style="fill:#c7c7c7"></rect><path d="M601.24,142.18v73.23h73.23V142.18ZM671,212H604.68V145.63H671Z" style="fill:#dbdbdb"></path><rect x="624.61" y="165.55" width="26.49" height="26.49" style="fill:#ebebeb"></rect><rect x="674.47" y="142.18" width="2.83" height="73.24" style="fill:#c7c7c7"></rect></g><g id="freepik--Floor--inject-89"><path d="M67.46,452.89c197-.61,418.05-.61,615.08,0-197,.62-418,.62-615.08,0Z" style="fill:#263238"></path></g><g id="freepik--Plant--inject-89"><path d="M610.81,333.17a97.78,97.78,0,0,1,2.26-15.89c1.12-4.7,2.71-9.51,5.68-13.4,2.71-3.55,6.6-6.37,11.12-6.93,4.36-.53,8.45,1.41,11.71,4.16,4,3.4,7.13,7.9,10,12.26a150.67,150.67,0,0,1,8.67,15.17c.08.17-.18.32-.27.15a93.69,93.69,0,0,0-7.75-12.7,79.6,79.6,0,0,0-8.92-10.8c-3-2.92-6.79-5.65-11.12-5.79s-8.29,2.28-10.89,5.61c-2.9,3.71-4.38,8.35-5.48,12.87A95.38,95.38,0,0,0,613.61,333c-.85,10.46-1.08,21-1.32,31.48q-.19,8.91-.27,17.81c0,3,0,6-.07,9a54.88,54.88,0,0,1-.35,8.7c-.1.59-1.05.53-1.15,0a51.66,51.66,0,0,1-.4-8.25q-.06-4.27-.1-8.56c-.05-5.54-.08-11.09-.06-16.63C609.92,355.44,610.05,344.27,610.81,333.17Z" style="fill:#263238"></path><path d="M625.76,325.28c.56-3,1.56-6.82,3.25-9.11,3-4.12,6.3-2.33,3.27,2.23A27.2,27.2,0,0,0,628,329.65s5.09,7.28,11.24,10.86c-.27-2.8-1.06-7.1-.51-11.25,1.18-9,6.62-8.48,5.27-1.34-1.08,5.72-1.52,11.8-1.23,14.43a30.91,30.91,0,0,0,6.57,3.22c-.35-1-.73-2.29-1.14-3.81-2.18-8.05,3.19-10.57,3.36-6a64,64,0,0,0,2.09,11.43c3,1,5.39,1.66,6.89,2.19a25.09,25.09,0,0,1,10.07,6.88,31.69,31.69,0,0,0,6.87-8.88c-1.88-1.62-4.85-4-9-6.93-7.72-5.45-5-12.34,1.09-8.06,4.43,3.09,7.85,8.82,9.4,11.76A47.81,47.81,0,0,0,682.54,328c-6.07-5.69-21.07-13.63-16.55-13.63,4.07,0,13.18,6,16.52,8.27A40.91,40.91,0,0,0,682,318c-5.71-3.75-24.28-9.57-21.32-11.25,3.25-1.84,16.2,4.16,20.12,6.06a23.65,23.65,0,0,0-3.43-7.11c-7.9-10.57-22.13-14.21-28.35-12.2-4.39,1.43-3.11,12.58-4,12.2C627.3,298.59,619.27,303.62,625.76,325.28Zm43.29-1.23c1.25-1.51,7.05,2.94,5.37,5.38S667.43,326,669.05,324.05Zm-30.28-9.51c1.52,1-.73,6.61-3.08,4.9C633.69,318,637.23,313.56,638.77,314.54Z" style="fill:#FFC727"></path><path d="M641.08,316.27c.8-1.58,1.63-3.14,2.54-4.66a27.2,27.2,0,0,1,2.92-4.23l-.76-.93c-.1-.12.08-.3.19-.17.29.33.57.68.86,1a.26.26,0,0,1,.12.15c1.1,1.31,2.12,2.65,3.1,4a45.55,45.55,0,0,1,5.13,1.48c1.73.58,3.45,1.18,5.13,1.89.18.08.09.37-.08.29-1.67-.74-3.36-1.45-5.09-2s-3.3-1-5-1.45c.54.76,1.07,1.53,1.58,2.31a59.92,59.92,0,0,1,9.07,3.7c3.06,1.45,6,3.14,8.95,4.84a.15.15,0,0,1-.16.25,98.47,98.47,0,0,0-8.9-4.6c-2.84-1.33-5.78-2.42-8.64-3.69,7.21,11.25,11.53,24.24,17.31,36.26.09.17-.19.32-.26.14-1.76-4.21-3.8-8.32-5.72-12.47-1.73-3.72-3.41-7.46-5.14-11.19-.5-1.09-1-2.17-1.55-3.26.31,6,.19,12.13,1.17,18.07a.15.15,0,1,1-.29,0c-.42-6.42-1.55-12.75-1.51-19.21,0,0,0,0,0-.08-1.22-2.45-2.53-4.88-3.94-7.23-2.39,5.62-4.9,11.33-6,17.37,0,.18-.34.1-.29-.09,1.63-6.05,3.13-12.11,6.05-17.71a67.23,67.23,0,0,0-5.08-7.32c-.8,1.5-1.83,2.91-2.74,4.34s-1.76,2.8-2.59,4.24a61.94,61.94,0,0,0-4.51,9.53c-.06.18-.36.09-.28-.09C638.11,322.6,639.51,319.38,641.08,316.27Z" style="fill:#263238"></path><path d="M584.24,330c4.63-4.64,10-10.73,17.16-10.72,6.9,0,12,5.57,14.9,11.3,3.05,6,4.15,12.79,5,19.39a237.69,237.69,0,0,1,1.83,23.84c.12,4.43.11,8.86,0,13.28a87,87,0,0,1-1,13.4.67.67,0,0,1-1.32,0c-.2-3.72,0-7.47,0-11.2s0-7.34-.18-11c-.27-7.42-.81-14.84-1.68-22.22-.76-6.44-1.37-13.07-3.3-19.3-1.74-5.61-5-12-10.69-14.51-7.77-3.36-15.36,2.79-20.45,8C584.34,330.28,584.11,330.09,584.24,330Z" style="fill:#263238"></path><path d="M560.63,340.32h0c0,.95.09,1.89.16,2.8a16.88,16.88,0,0,1,7.58-3.14c6.57-.69,6.15,4.3,1.76,4.51a25.13,25.13,0,0,0-9,1.8c1.07,8.68,3.46,15.65,3.82,15.74a125.81,125.81,0,0,0,17.35-2.19c-1.63-3.48-5.35-8.11-3.46-8.48s4,3.74,5,8.16a83.28,83.28,0,0,0,12.62-3.47c-2.89-2.5-7.35-5.62-5.65-6.94s5.25,3.05,7.38,6.24a25.35,25.35,0,0,0,5.45-3c-3.89-5.72-13.38-6.88-12.14-11s10.11,1.6,14.1,9.26c4.68-4.86,6-11.72,5.56-17.59-4.08-.48-11.92.38-11.35-2.55s6.23-2.36,10.87-.66a16.32,16.32,0,0,0-2.72-6.45c-4.3-5.51-17.41,1.5-17.41,1.5s1.4-13.18-3.6-15.45c-2.88-1.31-8-1.3-13.07,1.7,2.87.24,6.33,1.15,7.71,3.13,1.78,2.53-1,3.91-2.81,2.74-1.25-.83-3.6-3.43-7.83-3.78a26.23,26.23,0,0,0-4.73,5.24,23.19,23.19,0,0,0-1.38,2.18,18,18,0,0,1,15.34.28c5.69,2.82,2.51,8.72-2.38,6.43s-9.55-4.55-14.73-3.25a36.78,36.78,0,0,0-2.49,14.7,25.5,25.5,0,0,1,8.42-4c5.65-1.49,7.36,1.89,1.15,2.52A24.92,24.92,0,0,0,560.63,340.32Zm6.88-9.07c-.39-1.83,3.62-2.36,4.28-.87C572.35,331.65,567.89,333.08,567.51,331.25Zm34.28,10.14c.38-1,3.06.14,2.82,1.38C604.28,344.43,601.43,342.39,601.79,341.39Zm-18.92,6.42c2-.78,5,4.08,2.87,5.19S581.27,348.45,582.87,347.81Z" style="fill:#FFC727"></path><path d="M565.7,361c2.95-4.92,5.86-9.87,8.95-14.71,1.44-2.25,3-4.46,4.51-6.62l-.7-.17-1.17-.22c-.9-.16-1.82-.29-2.73-.38s-1.72-.14-2.59-.15a12.76,12.76,0,0,0-2.76.15c-.11,0-.13-.15,0-.15.92,0,1.86-.08,2.78-.09s1.79,0,2.69.06,1.67.13,2.5.26c.46.07.92.15,1.37.24a7.65,7.65,0,0,1,.83.18q2.4-3.3,5-6.45a59,59,0,0,0-16.12-5.15c-.09,0-.06-.16,0-.14a54.69,54.69,0,0,1,16.35,5q1.41-1.74,2.84-3.45c1.07-1.28,2.21-2.54,3.17-3.9.07-.09.2,0,.12.09-1.33,1.43-2.54,3-3.74,4.58h0a56.51,56.51,0,0,1,6,4.82c2,1.73,3.87,3.53,5.72,5.37.07.07,0,.18-.1.11-1.84-1.83-3.74-3.57-5.73-5.22s-4.08-3.17-6.09-4.81c0,0,0,0,0,0-.46.6-.91,1.21-1.37,1.8l-.69.91,0,.06-2.29,3a23.85,23.85,0,0,1,2.27,4.11c.66,1.39,1.24,2.83,1.77,4.27a62.63,62.63,0,0,1,2.45,9.22c0,.1-.12.14-.14.05a53.74,53.74,0,0,0-2.68-9.05c-.57-1.5-1.22-3-1.9-4.43s-1.35-2.62-1.92-4l-2,2.64c-.18.26-.36.53-.55.79a.08.08,0,0,1-.06.13h0c-2,2.83-3.95,5.72-5.83,8.64a2.39,2.39,0,0,1,.26.64c.12.36.23.72.34,1.08a20.46,20.46,0,0,1,.51,2.19c.13.69.23,1.39.3,2.09a18.93,18.93,0,0,0,.17,2.39c0,.12-.16.12-.14,0a7.93,7.93,0,0,0-.17-2.22,22.09,22.09,0,0,0-.42-2.27c-.16-.67-.34-1.35-.54-2-.1-.34-.21-.67-.32-1-.06-.17-.15-.36-.21-.54-.88,1.37-1.74,2.75-2.6,4.14-1.69,2.76-3.37,5.52-5.07,8.27C565.84,361.3,565.62,361.18,565.7,361Z" style="fill:#263238"></path><path d="M611.12,398.85c.08-2.79.52-5.6.82-8.37s.62-5.58.92-8.37c.57-5.37.89-10.86,2.15-16.13a23.53,23.53,0,0,1,6.57-12.07,10.72,10.72,0,0,1,6.43-3.07,11.05,11.05,0,0,1,6.84,2.11A23.81,23.81,0,0,1,640.6,359a59.75,59.75,0,0,1,4.48,7.28c0,.1-.1.16-.15.07a37.35,37.35,0,0,0-9.7-10.87,11.55,11.55,0,0,0-6.11-2.55,8.32,8.32,0,0,0-5.93,2.37c-3.25,2.83-5.14,7-6.26,11.07-1.33,4.85-1.76,9.94-2.42,14.91-.4,3-.77,5.91-1.16,8.86s-.64,5.95-1.26,8.84A.49.49,0,0,1,611.12,398.85Z" style="fill:#263238"></path><path d="M624.85,377.18a15.27,15.27,0,0,0,3,3.1c-.46-2.72-1-7.56.36-10.14,2.14-4,4.66-2,3.39,1.48a28.23,28.23,0,0,0-2,9.86,42.54,42.54,0,0,0,9.27,4.37,15.36,15.36,0,0,1-.31-4.77c.43-4.28,3.7-4.2,2.85.25a27.83,27.83,0,0,0-.45,5.23,96,96,0,0,0,14.45,3.25,42.24,42.24,0,0,0,6-10.64c-3.48-.87-10.53-1.07-10.38-3.56.2-3.35,7-.77,11,1.66a26.77,26.77,0,0,0,1.21-9,45.39,45.39,0,0,0-9.6-1.59c-7.17-.62-6.82-4.68-1.62-4.59,3.83.07,8.67,2.42,11,3.64-1.49-9.75-8.93-16-14.89-16.24-10-.4-6.42,12.08-6.42,12.08s-6.79-4.79-13.2-4.66S618,367.64,624.85,377.18Zm26.77-18c-.22-1.41,4.25-1.74,4.49.06C656.37,361.23,651.85,360.58,651.62,359.15Zm7.2,14.63c-.09-.92,1.84-1.08,2.28.08C661.39,374.61,658.9,374.69,658.82,373.78Zm-24.07.86c1.51.21,2.37,5.61-.23,5.51C632.53,380.06,633.47,374.45,634.75,374.64Z" style="fill:#FFC727"></path><path d="M636.84,380.64c.25-.68.47-1.36.68-2.05-.19.7-.37,1.4-.49,2.1C637,380.82,636.79,380.77,636.84,380.64Z" style="fill:#263238"></path><path d="M639.49,372c.47-1.38,1-2.75,1.53-4.11q.43-1.09.9-2.16a9.26,9.26,0,0,1,.9-1.81,12,12,0,0,1-.81-1.75.05.05,0,0,1,.09-.05,21.16,21.16,0,0,1,1.95,3c.28.47.54.95.82,1.43a13.64,13.64,0,0,1,1.68.26c.61.11,1.2.23,1.8.37l1.79.41c.59.14,1.18.34,1.77.43a.1.1,0,1,1,0,.19,11,11,0,0,0-1.87-.49c-.58-.13-1.15-.23-1.74-.31s-1.16-.16-1.75-.22l-1.32-.1c.23.42.48.83.72,1.26,0,.06.07.13.1.2a5.4,5.4,0,0,1,1.44.17c.52.09,1,.19,1.55.3,1,.24,2.09.48,3.12.77,2.17.61,4.31,1.3,6.45,2,.12,0,.05.22-.07.18a61.68,61.68,0,0,0-6.48-1.8c-1-.23-2-.47-3.08-.68l-1.55-.33a9.87,9.87,0,0,1-1.2-.26c1.11,2,2.15,4.11,3.1,6.22,2.08,4.6,3.83,9.34,5.61,14.06.05.11-.14.19-.18.07a128.44,128.44,0,0,0-6-13.74c-.4-.82-.81-1.63-1.22-2.44,0,.16-.07.33-.1.5-.11.55-.2,1.11-.3,1.67-.19,1.12-.38,2.24-.54,3.36a39,39,0,0,0-.81,7c0,.14-.22.13-.19,0,.17-1.11.17-2.27.24-3.39s.16-2.34.3-3.51.27-2.25.46-3.37q.13-.84.3-1.68a3.33,3.33,0,0,1,.31-1.21c-.59-1.18-1.17-2.36-1.76-3.53s-1.12-2.2-1.7-3.3c-.24-.46-.5-.93-.76-1.4a12.86,12.86,0,0,1-.66,1.69l-.78,1.9c-.57,1.4-1.11,2.81-1.64,4.22-.76,2-1.6,4.06-2.22,6.15C638.28,376.06,638.8,374,639.49,372Z" style="fill:#263238"></path><path d="M637.52,378.59l.15-.48Z" style="fill:#263238"></path><polygon points="599.01 393.19 599.58 408.11 601.02 446.58 632.58 446.58 634.03 408.11 634.59 393.19 599.01 393.19" style="fill:#455a64"></polygon><polygon points="599.01 393.19 599.39 403.17 634.14 405.17 634.59 393.19 599.01 393.19" style="fill:#37474f"></polygon><rect x="596.77" y="387.16" width="40.06" height="12.07" transform="translate(1233.6 786.38) rotate(180)" style="fill:#455a64"></rect><rect x="624.49" y="446.58" width="5.54" height="6.32" style="fill:#455a64"></rect><rect x="624.49" y="446.58" width="5.54" height="3.16" style="fill:#37474f"></rect><rect x="603.57" y="446.58" width="5.54" height="6.32" style="fill:#455a64"></rect><rect x="603.57" y="446.58" width="5.54" height="3.16" style="fill:#37474f"></rect></g><g id="freepik--Table--inject-89"><rect x="208.67" y="320.44" width="332.66" height="101.84" style="fill:#FFC727"></rect><rect x="208.67" y="320.44" width="332.66" height="101.84" style="opacity:0.4"></rect><polygon points="498.55 422.28 499.3 431.53 501.06 452.89 509.11 452.89 510.87 431.53 511.62 422.28 498.55 422.28" style="fill:#FFC727"></polygon><polygon points="498.55 422.28 499.3 431.53 501.06 452.89 509.11 452.89 510.87 431.53 511.62 422.28 498.55 422.28" style="opacity:0.4"></polygon><polygon points="511.62 422.28 498.55 422.28 498.92 426.84 510.87 431.53 511.62 422.28" style="opacity:0.4"></polygon><polygon points="238.38 422.28 239.13 431.53 240.89 452.89 248.94 452.89 250.7 431.53 251.45 422.28 238.38 422.28" style="fill:#FFC727"></polygon><polygon points="238.38 422.28 239.13 431.53 240.89 452.89 248.94 452.89 250.7 431.53 251.45 422.28 238.38 422.28" style="opacity:0.4"></polygon><polygon points="238.38 422.28 239.13 431.53 250.99 427.96 251.45 422.28 238.38 422.28" style="opacity:0.4"></polygon><g style="opacity:0.30000000000000004"><rect x="218.83" y="330.1" width="151.72" height="36.38"></rect><rect x="218.83" y="375.26" width="312.34" height="36.38"></rect><rect x="379.45" y="330.1" width="151.72" height="36.38"></rect></g></g><g id="freepik--Boxes--inject-89"><rect x="68.58" y="323.38" width="167.11" height="129.51" style="fill:#FFC727"></rect><rect x="172.4" y="323.38" width="63.29" height="129.51" style="opacity:0.2"></rect><path d="M231.33,444q-7-13.82-13.94-27.71L203.66,388.4l-13.55-28q-6.75-14-13.35-28.12,7,13.81,13.93,27.72l13.73,27.86,13.55,28Q224.72,429.86,231.33,444Z" style="fill:#FFC727"></path><path d="M231.33,332.3q-6.62,14.1-13.36,28.12l-13.55,28-13.73,27.86q-6.9,13.9-13.93,27.71,6.6-14.1,13.35-28.12l13.55-28L217.39,360Q224.29,346.12,231.33,332.3Z" style="fill:#FFC727"></path><rect x="194.56" y="323.38" width="19.22" height="15.8" transform="translate(408.34 662.56) rotate(180)" style="fill:#ebebeb"></rect><rect x="103.7" y="425.29" width="1.35" height="18.99" transform="translate(208.74 869.57) rotate(180)" style="fill:#263238"></rect><rect x="100.47" y="425.29" width="1.35" height="18.99" transform="translate(202.28 869.57) rotate(180)" style="fill:#263238"></rect><rect x="97.23" y="425.29" width="1.35" height="18.99" transform="translate(195.82 869.57) rotate(180)" style="fill:#263238"></rect><rect x="94" y="425.29" width="1.35" height="18.99" transform="translate(189.35 869.57) rotate(180)" style="fill:#263238"></rect><rect x="90.77" y="425.29" width="1.35" height="18.99" transform="translate(182.89 869.57) rotate(180)" style="fill:#263238"></rect><rect x="87.54" y="425.29" width="1.35" height="18.99" transform="translate(176.43 869.57) rotate(180)" style="fill:#263238"></rect><rect x="84.31" y="425.29" width="1.35" height="18.99" transform="translate(169.97 869.57) rotate(180)" style="fill:#263238"></rect><rect x="81.08" y="425.29" width="1.35" height="18.99" transform="translate(163.51 869.57) rotate(180)" style="fill:#263238"></rect><rect x="77.85" y="425.29" width="1.35" height="18.99" transform="translate(157.05 869.57) rotate(180)" style="fill:#263238"></rect><path d="M118.25,442.83l-5.18,1.44h12.16l-5.18-1.46v-7c3.71-.48,5.18-4.14,5.18-10.54H113.07c0,6.38,1.48,10.06,5.18,10.54Z" style="fill:#263238"></path><polygon points="128.06 434.98 131.24 434.98 131.24 444.27 139.37 444.27 139.37 434.98 142.56 434.98 135.3 425.29 128.06 434.98" style="fill:#263238"></polygon><polygon points="68.58 452.89 68.58 443.8 172.4 426.97 172.4 452.89 68.58 452.89" style="opacity:0.1"></polygon><rect x="97.91" y="239.41" width="129.11" height="83.97" style="fill:#FFC727"></rect><rect x="187.56" y="239.41" width="39.45" height="83.97" style="opacity:0.2"></rect><path d="M224.29,320.23q-4.38-9.37-8.68-18.82l-8.56-18.92-8.45-19q-4.2-9.53-8.32-19.1,4.38,9.38,8.68,18.82l8.56,18.92,8.45,19Q220.17,310.65,224.29,320.23Z" style="fill:#FFC727"></path><path d="M224.29,244.39q-4.11,9.59-8.32,19.1l-8.45,19L199,301.41q-4.29,9.45-8.68,18.82,4.11-9.57,8.32-19.09l8.45-19,8.56-18.91Q219.9,253.77,224.29,244.39Z" style="fill:#FFC727"></path><rect x="201.37" y="239.41" width="11.98" height="9.96" transform="translate(414.73 488.78) rotate(180)" style="fill:#ebebeb"></rect><rect x="119.8" y="306.17" width="0.84" height="11.84" transform="translate(240.43 624.18) rotate(180)" style="fill:#263238"></rect><rect x="117.78" y="306.17" width="0.84" height="11.84" transform="translate(236.4 624.18) rotate(180)" style="fill:#263238"></rect><rect x="115.77" y="306.17" width="0.84" height="11.84" transform="translate(232.38 624.18) rotate(180)" style="fill:#263238"></rect><rect x="113.75" y="306.17" width="0.84" height="11.84" transform="translate(228.35 624.18) rotate(180)" style="fill:#263238"></rect><rect x="111.74" y="306.17" width="0.84" height="11.84" transform="translate(224.32 624.18) rotate(180)" style="fill:#263238"></rect><rect x="109.73" y="306.17" width="0.84" height="11.84" transform="translate(220.29 624.18) rotate(180)" style="fill:#263238"></rect><rect x="107.71" y="306.17" width="0.84" height="11.84" transform="translate(216.27 624.18) rotate(180)" style="fill:#263238"></rect><rect x="105.7" y="306.17" width="0.84" height="11.84" transform="translate(212.24 624.18) rotate(180)" style="fill:#263238"></rect><rect x="103.69" y="306.17" width="0.84" height="11.84" transform="translate(208.21 624.18) rotate(180)" style="fill:#263238"></rect><path d="M128.87,317.11l-3.23.9h7.58L130,317.1v-4.35c2.31-.31,3.23-2.59,3.23-6.57h-7.58c0,4,.92,6.26,3.23,6.57Z" style="fill:#263238"></path><polygon points="134.99 312.21 136.97 312.21 136.97 318 142.03 318 142.03 312.21 144.02 312.21 139.5 306.18 134.99 312.21" style="fill:#263238"></polygon><polygon points="97.91 323.38 97.91 317.71 187.56 307.22 187.56 323.38 97.91 323.38" style="opacity:0.1"></polygon><rect x="183.31" y="368.93" width="129.11" height="83.97" style="fill:#FFC727"></rect><rect x="272.97" y="368.93" width="39.45" height="83.97" style="opacity:0.2"></rect><path d="M309.7,449.75q-4.38-9.39-8.69-18.83L292.45,412,284,393q-4.2-9.51-8.32-19.1,4.4,9.39,8.69,18.83l8.56,18.92,8.45,19Q305.58,440.16,309.7,449.75Z" style="fill:#FFC727"></path><path d="M309.7,373.9q-4.12,9.59-8.32,19.1l-8.45,19-8.56,18.92q-4.31,9.45-8.69,18.83,4.13-9.58,8.32-19.1l8.45-19L301,392.73Q305.32,383.28,309.7,373.9Z" style="fill:#FFC727"></path><rect x="286.78" y="368.93" width="11.98" height="9.96" transform="translate(585.54 747.81) rotate(180)" style="fill:#ebebeb"></rect><rect x="205.2" y="435.69" width="0.84" height="11.84" transform="translate(411.24 883.21) rotate(180)" style="fill:#263238"></rect><rect x="203.19" y="435.69" width="0.84" height="11.84" transform="translate(407.22 883.21) rotate(180)" style="fill:#263238"></rect><rect x="201.17" y="435.69" width="0.84" height="11.84" transform="translate(403.19 883.21) rotate(180)" style="fill:#263238"></rect><rect x="199.16" y="435.69" width="0.84" height="11.84" transform="translate(399.16 883.21) rotate(180)" style="fill:#263238"></rect><rect x="197.15" y="435.69" width="0.84" height="11.84" transform="translate(395.13 883.21) rotate(180)" style="fill:#263238"></rect><rect x="195.13" y="435.69" width="0.84" height="11.84" transform="translate(391.11 883.21) rotate(180)" style="fill:#263238"></rect><rect x="193.12" y="435.69" width="0.84" height="11.84" transform="translate(387.08 883.21) rotate(180)" style="fill:#263238"></rect><rect x="191.11" y="435.69" width="0.84" height="11.84" transform="translate(383.05 883.21) rotate(180)" style="fill:#263238"></rect><rect x="189.09" y="435.69" width="0.84" height="11.84" transform="translate(379.02 883.21) rotate(180)" style="fill:#263238"></rect><path d="M214.28,446.62l-3.23.9h7.58l-3.23-.91v-4.35c2.31-.3,3.23-2.58,3.23-6.57h-7.58c0,4,.92,6.27,3.23,6.57Z" style="fill:#263238"></path><polygon points="220.39 441.72 222.37 441.72 222.37 447.52 227.44 447.52 227.44 441.72 229.43 441.72 224.91 435.69 220.39 441.72" style="fill:#263238"></polygon><polygon points="183.31 452.89 183.31 447.23 272.96 436.73 272.96 452.89 183.31 452.89" style="opacity:0.1"></polygon><rect x="195.74" y="313.22" width="132.66" height="55.7" style="fill:#FFC727"></rect><rect x="280.28" y="313.22" width="48.12" height="55.71" style="opacity:0.2"></rect><path d="M325.08,365.09q-5.34-5.94-10.59-11.92l-10.44-12-10.3-12q-5.13-6-10.15-12.09Q288.94,323,294.19,329l10.44,12,10.3,12Q320.06,359,325.08,365.09Z" style="fill:#FFC727"></path><path d="M325.08,317.06q-5,6.06-10.15,12.09l-10.3,12-10.44,12q-5.25,6-10.59,11.92,5-6.07,10.15-12.1l10.3-12,10.44-12Q319.74,323,325.08,317.06Z" style="fill:#FFC727"></path><rect x="217.86" y="351.3" width="0.78" height="11.07" transform="translate(436.51 713.68) rotate(180)" style="fill:#263238"></rect><rect x="215.98" y="351.3" width="0.78" height="11.07" transform="translate(432.74 713.68) rotate(180)" style="fill:#263238"></rect><rect x="214.09" y="351.3" width="0.78" height="11.07" transform="translate(428.97 713.68) rotate(180)" style="fill:#263238"></rect><rect x="212.21" y="351.3" width="0.78" height="11.07" transform="translate(425.21 713.68) rotate(180)" style="fill:#263238"></rect><rect x="210.33" y="351.3" width="0.78" height="11.07" transform="translate(421.44 713.68) rotate(180)" style="fill:#263238"></rect><rect x="208.44" y="351.3" width="0.78" height="11.07" transform="translate(417.67 713.68) rotate(180)" style="fill:#263238"></rect><rect x="206.56" y="351.3" width="0.78" height="11.07" transform="translate(413.9 713.68) rotate(180)" style="fill:#263238"></rect><rect x="204.68" y="351.3" width="0.78" height="11.07" transform="translate(410.14 713.68) rotate(180)" style="fill:#263238"></rect><rect x="202.79" y="351.3" width="0.78" height="11.07" transform="translate(406.37 713.68) rotate(180)" style="fill:#263238"></rect><path d="M226.35,361.53l-3,.84h7.09l-3-.85v-4.07c2.16-.28,3-2.42,3-6.14h-7.09c0,3.71.86,5.86,3,6.14Z" style="fill:#263238"></path><polygon points="232.07 356.95 233.92 356.95 233.92 362.37 238.66 362.37 238.66 356.95 240.52 356.95 236.29 351.31 232.07 356.95" style="fill:#263238"></polygon><polygon points="195.75 368.93 195.75 362.01 280.28 349.22 280.28 368.92 195.75 368.93" style="opacity:0.1"></polygon><polygon points="342.69 299.29 294.57 299.29 280.28 313.22 328.41 313.22 342.69 299.29" style="fill:#FFC727"></polygon><polygon points="342.69 299.29 294.57 299.29 280.28 313.22 328.41 313.22 342.69 299.29" style="opacity:0.1"></polygon><polygon points="181.46 299.29 229.58 299.29 243.87 313.22 195.74 313.22 181.46 299.29" style="fill:#FFC727"></polygon><polygon points="181.46 299.29 229.58 299.29 243.87 313.22 195.74 313.22 181.46 299.29" style="opacity:0.1"></polygon><rect x="82.87" y="197.6" width="122.14" height="42.03" style="fill:#FFC727"></rect><rect x="156.89" y="197.6" width="48.12" height="42.03" style="opacity:0.2"></rect><path d="M201.69,235.79q-5.34-3.82-10.59-7.69l-10.44-7.72-10.31-7.77q-5.13-3.88-10.15-7.8,5.36,3.84,10.6,7.69l10.43,7.73L191.54,228C195,230.58,198.34,233.19,201.69,235.79Z" style="fill:#FFC727"></path><path d="M201.69,204.81q-5,3.91-10.15,7.8l-10.31,7.77L170.8,228.1q-5.25,3.87-10.6,7.69c3.35-2.6,6.73-5.21,10.15-7.8l10.31-7.76,10.44-7.73Q196.34,208.65,201.69,204.81Z" style="fill:#FFC727"></path><rect x="104.99" y="222.01" width="0.78" height="11.07" transform="translate(210.76 455.09) rotate(180)" style="fill:#263238"></rect><rect x="103.1" y="222.01" width="0.78" height="11.07" transform="translate(206.99 455.09) rotate(180)" style="fill:#263238"></rect><rect x="101.22" y="222.01" width="0.78" height="11.07" transform="translate(203.22 455.09) rotate(180)" style="fill:#263238"></rect><rect x="99.34" y="222.01" width="0.78" height="11.07" transform="translate(199.46 455.09) rotate(180)" style="fill:#263238"></rect><rect x="97.45" y="222.01" width="0.78" height="11.07" transform="translate(195.69 455.09) rotate(180)" style="fill:#263238"></rect><rect x="95.57" y="222.01" width="0.78" height="11.07" transform="translate(191.92 455.09) rotate(180)" style="fill:#263238"></rect><rect x="93.69" y="222.01" width="0.78" height="11.07" transform="translate(188.16 455.09) rotate(180)" style="fill:#263238"></rect><rect x="91.8" y="222.01" width="0.78" height="11.07" transform="translate(184.39 455.09) rotate(180)" style="fill:#263238"></rect><rect x="89.92" y="222.01" width="0.78" height="11.07" transform="translate(180.62 455.09) rotate(180)" style="fill:#263238"></rect><path d="M113.48,232.24l-3,.84h7.09l-3-.85v-4.07c2.17-.29,3-2.42,3-6.15h-7.09c0,3.72.86,5.86,3,6.15Z" style="fill:#263238"></path><polygon points="119.2 227.66 121.05 227.66 121.05 233.08 125.79 233.08 125.79 227.66 127.65 227.66 123.42 222.01 119.2 227.66" style="fill:#263238"></polygon><polygon points="82.87 239.63 82.87 232.72 156.89 219.92 156.89 239.63 82.87 239.63" style="opacity:0.1"></polygon><polygon points="219.3 183.67 171.17 183.67 156.89 197.6 205.01 197.6 219.3 183.67" style="fill:#FFC727"></polygon><polygon points="219.3 183.67 171.17 183.67 156.89 197.6 205.01 197.6 219.3 183.67" style="opacity:0.1"></polygon><polygon points="68.58 183.67 116.71 183.67 130.99 197.6 82.87 197.6 68.58 183.67" style="fill:#FFC727"></polygon><polygon points="68.58 183.67 116.71 183.67 130.99 197.6 82.87 197.6 68.58 183.67" style="opacity:0.1"></polygon></g><g id="freepik--character-1--inject-89"><rect x="234.21" y="82.32" width="253.26" height="134.37" transform="translate(14.85 -31.74) rotate(5.14)" style="fill:#455a64"></rect><path d="M372.05,228.06l-36.27-3.26a10.05,10.05,0,0,1-9.11-10.91h0L383,219h0A10,10,0,0,1,372.05,228.06Z" style="fill:#455a64"></path><path d="M383,219a11.37,11.37,0,0,1-1.13,4l-55.11-6.58v0a11.61,11.61,0,0,1-.05-2.51Z" style="fill:#263238"></path><rect x="284.52" y="224.44" width="138.63" height="5.67" transform="translate(21.79 -30.8) rotate(5.14)" style="fill:#455a64"></rect><rect x="241.8" y="90.57" width="238.08" height="117.87" transform="translate(14.85 -31.74) rotate(5.14)" style="fill:#263238"></rect><path d="M366,90.8,238,197.63l-1-.09,2.46-27.32,98.18-82Zm104.67,9.41-128,106.84L371,209.6l112.37-93.82,1.29-14.3ZM294.45,84.36,243.34,127l-.91,10.12,62.13-51.88Zm155,132.29,10.12.91,15.85-13.24.91-10.11Zm-73.81-125-128,106.84,2.06.18,128-106.83ZM440.1,215.81l2.07.19L477,186.92l.19-2.07ZM260.94,81.34,246.35,93.53l-.18,2.06L263,81.53ZM451.6,98.5l-128,106.83,2.06.19,128-106.83Z" style="fill:#37474f"></path><path d="M271.54,453.47c-2.47.8-72.78-.11-75.43-1.85-1-.64-1.49-10.9-1.69-23.3v-.39c0-2.56-.08-5.19-.08-7.86,0-.36,0-.73,0-1.1-.1-17.9.18-36.48.18-36.48l47,.48-1.42,36.13-.05,1.43-.29,7.48,0,.77s26.76,12.39,29.47,14.61S274,452.69,271.54,453.47Z" style="fill:#d3766a"></path><path d="M250.41,433.59c-.18,0-.28-.11-.29-.16A3,3,0,0,1,250.41,433.59Z" style="fill:#FFC727"></path><path d="M271.54,453.47c-2.47.79-72.78-.11-75.44-1.85-.9-.57-1.37-8.74-1.61-19.26,12.89,2.69,62.82,12.79,64.18,8.52.54-1.67-3.73-4.58-6.43-6.21,7.38,3.51,15.55,7.54,17,8.72C271.92,445.59,274,452.68,271.54,453.47Z" style="fill:#263238"></path><path d="M180.07,180s10.56,118.81,12.28,127.88c.4,2.07.64,13.3.8,27.73.37,31.5.15,88.3.15,88.3h49.57s-1.47-98.42-3.67-116.53S223,180,223,180Z" style="fill:#263238"></path><path d="M240.63,415.23c-7.74-.17-5.51-.23-13.25-.3-3.78,0-28.66-.26-32.2.33-.07,0-.07.14,0,.16,3.54.58,28.42.37,32.2.33,7.74-.08,5.51-.14,13.25-.3A.11.11,0,0,0,240.63,415.23Z" style="fill:#37474f"></path><path d="M202.72,359q-.08-10.79-.16-21.57c-.05-7,0-13.93-.37-20.88-.67-14.09-3.53-27.94-5.56-41.86s-3.73-27.92-5.27-41.92c-1.72-15.7-3.24-31.43-4.85-47.14,0-.11-.18-.1-.17,0,2.33,28.06,4.94,56.11,8.82,84q1.46,10.39,3.17,20.77c1.16,7,2.31,14,2.86,21.06s.63,13.88.7,20.82l.21,21.55c.16,16,.31,40.52.47,56.48a.24.24,0,0,0,.47,0C202.94,396,202.83,373.2,202.72,359Z" style="fill:#37474f"></path><path d="M169.62,180s21,118.81,22.73,127.88c.4,2.07.64,13.3.8,27.73l0,0L216.79,180Z" style="fill:#37474f"></path><path d="M154.33,457.47c-2.56-.4-64.89-33-66.47-35.72-.62-1,3.6-10.39,9-21.55.06-.12.11-.24.17-.35,1.11-2.3,23.37-39.83,23.37-39.83l38.33,22.5-21.26,37.89-.37.68s18.28,23.13,19.7,26.34S156.88,457.88,154.33,457.47Z" style="fill:#d3766a"></path><path d="M154.32,457.47c-2.56-.4-64.87-33-66.46-35.73-.53-.87,2.47-7.84,6.73-16.79,8.93,6.76,52.06,39.15,55.22,35.78.66-.71.16-2.39-.72-4.2,3.79,5,7.16,9.59,7.74,10.89C158.23,450.62,156.88,457.88,154.32,457.47Z" style="fill:#263238"></path><path d="M143,419,97.59,391s52.54-75.18,52.79-81.86c.37-9.93,5.13-50.91,9.13-84.09,0,0-7.58-18,6.61-45.1H223s-3.82,25.82-10.35,42.19A76.67,76.67,0,0,0,200,227.88s-5.66,74-5.88,83.2C193.73,329.32,143,419,143,419Z" style="fill:#263238"></path><path d="M145.78,408.54c-6.55-4.11-4.61-3-11.21-7.06-3.23-2-24.46-14.93-27.8-16.25-.07,0-.14.09-.08.14,2.74,2.32,24.19,14.91,27.46,16.82,6.67,3.91,4.8,2.71,11.52,6.55A.11.11,0,0,0,145.78,408.54Z" style="fill:#37474f"></path><path d="M214.84,221a94,94,0,0,0-14.81,6.9.17.17,0,0,0,.14.3c5-2.14,10.08-4.19,14.94-6.6A.33.33,0,0,0,214.84,221Z" style="fill:#37474f"></path><path d="M207.87,212.74c.49-3,.89-6,1.14-9a81.32,81.32,0,0,0-.18-16.8.14.14,0,0,0-.28,0,155.13,155.13,0,0,1-1.36,23.2c-.56,3.69-2.42,9.26,1.44,9.82s6.49-8.73,7-11.28a85.22,85.22,0,0,0,.83-22c0-.17-.32-.21-.32,0a166.41,166.41,0,0,1-.83,16.67c-.24,2.57-2.3,16.77-6.76,15.74-.75-.17-1.13-.91-1.24-2a17.08,17.08,0,0,1,.59-4.36" style="fill:#37474f"></path><path d="M208.64,219.51a23.26,23.26,0,0,0-1,3,6.5,6.5,0,0,0-.42,2.42.17.17,0,0,0,.31.06,8.53,8.53,0,0,0,1-2.35c.34-.91.7-1.82,1-2.74A.5.5,0,0,0,208.64,219.51Z" style="fill:#37474f"></path><path d="M172.8,183.49a52.36,52.36,0,0,0-4.26,9.37,57.6,57.6,0,0,0-2.53,10c-.33,1.69-.44,3.4-.62,5.11s-.21,3.42-.11,5.13a52.69,52.69,0,0,0,1.19,10.17v.11q-2,21.53-4.09,43t-4.23,43l-.14,1.34-.07.67a2.17,2.17,0,0,1-.14.73,21.38,21.38,0,0,1-1.31,2.49c-.9,1.57-1.85,3.11-2.79,4.65-1.89,3.07-3.81,6.11-5.74,9.16-3.86,6.08-7.79,12.12-11.72,18.16-7.85,12.08-15.84,24.07-23.84,36.05l23.22-36.45L147.16,328c1.91-3.05,3.82-6.1,5.7-9.17.93-1.54,1.86-3.08,2.75-4.63.43-.76.92-1.61,1.21-2.28a1.51,1.51,0,0,0,.11-.59l.06-.67.13-1.35q2.06-21.51,4.25-43t4.39-43v.11a54.19,54.19,0,0,1-1.09-10.31c-.07-1.73.1-3.46.19-5.19s.36-3.44.73-5.13a57.51,57.51,0,0,1,2.74-10A52.63,52.63,0,0,1,172.8,183.49Z" style="fill:#37474f"></path><path d="M243.22,133.28a.51.51,0,0,1-.44.5h-2.05c-1.52-4.89-3.25-8.8-2.83-7.29a24.58,24.58,0,0,1,.81,7.28c-.9,0-3,0-4.05-.06-1-8.5-2.68-14.86-2.68-12.93,0,7.79-.61,10.25-1.32,12.87-9.77-.17-22.58-.54-31.83-1-.77-4.71-1.38-9.8-1.56-9.46-1.43,2.55-2,6.33-2.24,9.26-2.95-.17-5.3-.36-6.72-.55,0,0-.44-3.94-.45-5.23a26.91,26.91,0,0,1,1.66-9.72,49,49,0,0,1,4.86-8.8s0,0,.05-.06,0,0,0,0a27.54,27.54,0,0,0,2.85-5.9.08.08,0,0,0,0,0,25.39,25.39,0,0,0,1.06-4.6c.81-5.71,4.36-10.46,9.84-11.62C219,77,229,81.64,231.55,89.19c.25.74.48,1.58.7,2.49v0c.83,3.38,1.48,7.74,2.13,11.12,0,0,0,0,0,0a0,0,0,0,0,0,0h0a31.22,31.22,0,0,0,1,3.92C237.55,113,243.2,116.73,243.22,133.28Z" style="fill:#263238"></path><path d="M205.76,87.31a10.88,10.88,0,0,0-6.82,8.33,27.69,27.69,0,0,1-1.88,7,25.41,25.41,0,0,1-4.47,6c-2.7,2.93-4.64,5.9-5.3,10a31.7,31.7,0,0,0,.37,13.06s0,0,0,0a33.44,33.44,0,0,1,.41-13.57c1.06-4.49,3.82-7.18,6.67-10.46a19,19,0,0,0,4.47-9c.4-2,.5-4.21,1.46-6.1,1.15-2.27,3.22-3.62,5.27-4.81A.25.25,0,0,0,205.76,87.31Z" style="fill:#263238"></path><path d="M240.88,113.6c-2.29-3.41-4.71-6.34-5.91-10.47-1.09-3.76-1.6-7.69-2.72-11.45,0-.06-.11,0-.09,0,1.67,6.65,1.64,13.26,5.5,19,2.09,3.12,4.2,6,5.48,9.7a32,32,0,0,1,1.61,11.94.1.1,0,1,0,.2,0A26.46,26.46,0,0,0,240.88,113.6Z" style="fill:#263238"></path><path d="M206,87c1.54-.26,4.44-8-.06-12.79s-12.07-1.79-10.53,5.3C196.37,83.94,202.74,87.49,206,87Z" style="fill:#263238"></path><path d="M198.68,72.26a9.05,9.05,0,0,0-4,4.47,5.48,5.48,0,0,0,.59,5.45A11,11,0,0,0,200,85.74a16.08,16.08,0,0,0,2.92,1A8.2,8.2,0,0,0,206,87a7.37,7.37,0,0,1-3.17.31,14.35,14.35,0,0,1-3.16-.67,10.69,10.69,0,0,1-5.34-3.74,6.41,6.41,0,0,1-1.17-3.2,6.5,6.5,0,0,1,.71-3.29A8,8,0,0,1,198.68,72.26Z" style="fill:#263238"></path><path d="M223.84,179l-.72,13.52-56.87-12.29s10.15-37.3,30-54.51c8.8-7.63,18.55-3.61,22.85,3.61,1.09,1.83,13.42,26,13.1,35.18C231.91,172.62,223.84,179,223.84,179Z" style="fill:#FFC727"></path><path d="M215.94,173a50.36,50.36,0,0,0-8.42-.17c-1.4.1-2.79.28-4.18.49-.7.11-1.39.19-2.08.26a8,8,0,0,1-2.19,0c-.06,0-.08.1,0,.11a13.94,13.94,0,0,0,2,.37,13.36,13.36,0,0,0,2,0c1.42-.09,2.84-.26,4.26-.37,2.86-.22,5.72-.44,8.59-.43C216.06,173.23,216.08,173,215.94,173Z" style="fill:#263238"></path><path d="M222.15,177a55.59,55.59,0,0,0-6.71-1.75c-1.14-.21-2.28-.36-3.43-.46-.55-.06-1.1-.1-1.66-.13s-1.22,0-1.83,0c-.06,0-.08.1,0,.11.57.06,1.13.23,1.7.33l1.7.29c1.13.2,2.27.42,3.4.6,2.28.38,4.55.78,6.81,1.24C222.23,177.27,222.26,177.07,222.15,177Z" style="fill:#263238"></path><path d="M191.33,185c.08.26.17.49.26.71l.95.19A6,6,0,0,0,191.33,185Zm26.91-55.38a6.7,6.7,0,0,0-1.93-1.69,6.3,6.3,0,0,0,1.26,2.25,6.44,6.44,0,0,0,1.93,1.68A6.41,6.41,0,0,0,218.24,129.63Zm-41,26.43a7.29,7.29,0,0,0-1.68,1.93,6.58,6.58,0,0,0,2.24-1.23,7,7,0,0,0,1.69-2A6.79,6.79,0,0,0,177.25,156.06Zm18-27.81a7,7,0,0,0-1.67,1.95,6.93,6.93,0,0,0,2.23-1.25,6.8,6.8,0,0,0,1.7-1.94A7.08,7.08,0,0,0,195.23,128.25Zm13.52,30.09a7.11,7.11,0,0,0-1.7,1.94,7.26,7.26,0,0,0,2.26-1.24,6.91,6.91,0,0,0,1.68-1.95A7,7,0,0,0,208.75,158.34Zm-16.11,6.82a7,7,0,0,0-2.56.19,7,7,0,0,0,2.47.7,6.57,6.57,0,0,0,2.56-.19A7.1,7.1,0,0,0,192.64,165.16Zm35-.48a7,7,0,0,0-2.56.19,6.8,6.8,0,0,0,2.47.7,6.72,6.72,0,0,0,2.55-.18A6.66,6.66,0,0,0,227.68,164.68Zm-17.47-24.6a6.42,6.42,0,0,0-2.56.2,7.69,7.69,0,0,0,5,.51A7,7,0,0,0,210.21,140.08Zm3,39.5A6.56,6.56,0,0,0,213,177a7.12,7.12,0,0,0-.71,2.47,7.45,7.45,0,0,0,.19,2.56A6.54,6.54,0,0,0,213.19,179.58Zm-36.82-4.79a7.24,7.24,0,0,0-.2-2.56,7.52,7.52,0,0,0-.51,5A7.18,7.18,0,0,0,176.37,174.79Zm50.68-26.31c0-.21,0-.42,0-.64v0c-.11-.57-.22-1.13-.32-1.69a7.45,7.45,0,0,0-.42,4.82A6.92,6.92,0,0,0,227.05,148.48ZM194,147.61a6.63,6.63,0,0,0-.18-2.57,7.33,7.33,0,0,0-.52,5A7.13,7.13,0,0,0,194,147.61Z" style="fill:#fff"></path><path d="M202.93,126c-.05,1.18,3.24,9.8,8.36,11,1.66.38,4.12-8.62,4.12-8.62l.33-.63,4.65-8.72-9-10-1.32-1.36s-1.11,2.47-2.47,5.56c-.07.14-.13.29-.2.44s-.16.34-.22.5c-.21.46-.43.93-.63,1.4s-.3.71-.45,1.09-.3.75-.46,1.13A63.61,63.61,0,0,0,202.93,126Z" style="fill:#d3766a"></path><path d="M220.4,119l-4.48,8.39a21.21,21.21,0,0,1-8.7-13.35l.39-.87c1.36-3.09,2.47-5.56,2.47-5.56l1.32,1.36Z" style="fill:#263238"></path><path d="M235.16,102.56c2.17,17.23-7.9,20.47-11.61,20.94-3.38.42-14.91,1.42-18.85-15.48s3.38-23.36,11-24.73S233,85.34,235.16,102.56Z" style="fill:#d3766a"></path><path d="M232.78,101.55a11.6,11.6,0,0,1-1.18-.19,1.93,1.93,0,0,1-1.17-.43.62.62,0,0,1,0-.75,1.53,1.53,0,0,1,1.49-.43,2.23,2.23,0,0,1,1.45.73A.66.66,0,0,1,232.78,101.55Z" style="fill:#263238"></path><path d="M221,102.11c.41-.07.77-.2,1.16-.3a1.91,1.91,0,0,0,1.13-.54.63.63,0,0,0,0-.75,1.55,1.55,0,0,0-1.53-.29,2.27,2.27,0,0,0-1.37.87A.66.66,0,0,0,221,102.11Z" style="fill:#263238"></path><path d="M223.67,105.1s-.08.07-.08.11c.12,1.18.06,2.55-1,3,0,0,0,.08,0,.07C223.92,108,224,106.2,223.67,105.1Z" style="fill:#263238"></path><path d="M222.53,104c-1.9,0-1.78,3.8,0,3.81S224.13,104,222.53,104Z" style="fill:#263238"></path><path d="M221.79,104.17c-.32.23-.64.62-1,.67s-.83-.33-1.14-.7c0,0-.07,0-.06,0,0,.73.31,1.47,1.1,1.55s1.21-.59,1.37-1.33C222.05,104.28,221.92,104.08,221.79,104.17Z" style="fill:#263238"></path><path d="M230.29,104.74s.09.05.09.1c0,1.18.23,2.54,1.32,2.88,0,0,0,.07,0,.07C230.38,107.66,230.11,105.86,230.29,104.74Z" style="fill:#263238"></path><path d="M231.29,103.46c1.89-.22,2.21,3.58.45,3.79S229.7,103.65,231.29,103.46Z" style="fill:#263238"></path><path d="M232.1,103.65c.32.17.65.52,1,.51s.69-.44.92-.86c0,0,.06,0,.07,0,.08.72-.1,1.5-.79,1.69s-1.14-.4-1.38-1.11C231.89,103.79,232,103.58,232.1,103.65Z" style="fill:#263238"></path><path d="M222.55,115c.29.26.59.63,1,.65a3.12,3.12,0,0,0,1.26-.34,0,0,0,0,1,0,0,1.57,1.57,0,0,1-1.47.7,1.25,1.25,0,0,1-1-1C222.42,115,222.51,115,222.55,115Z" style="fill:#263238"></path><path d="M223.65,111.46a3.92,3.92,0,0,0,2.72,1.61,5.12,5.12,0,0,0,1.41,0l.27,0,.25,0a.28.28,0,0,0,.22-.27h0a.25.25,0,0,0,0-.12h0v-.11c0-.89-.18-2.23-.18-2.23.33.14,2,.8,2,.34a59.77,59.77,0,0,0-2.14-11.82.11.11,0,0,0-.21,0c.27,3.7,1.18,7.33,1.5,11a7.09,7.09,0,0,0-1.88-.47c-.12,0,.35,2.6.32,3a.07.07,0,0,1,0,0,5.48,5.48,0,0,1-4.13-1.06C223.67,111.29,223.58,111.37,223.65,111.46Z" style="fill:#263238"></path><path d="M227.26,113a4.66,4.66,0,0,1-1.89,1.41,2.06,2.06,0,0,1-1.28.06c-.92-.26-.93-1.1-.74-1.82a4.73,4.73,0,0,1,.43-1.1A6,6,0,0,0,227.26,113Z" style="fill:#263238"></path><path d="M225.37,114.42a2.06,2.06,0,0,1-1.28.06c-.92-.26-.93-1.1-.74-1.82A2.17,2.17,0,0,1,225.37,114.42Z" style="fill:#ff99ba"></path><path d="M204.76,108.36c2.91.16,3.43-5.94,3.43-5.94s5.9-.11,7.65-8.63a13.09,13.09,0,0,1-2.45,7.07s10.37-1.34,14.55-10.13c0,0-1.65,4.47-3.25,6.08,0,0,4.33-1.32,6.38-4.9,0,0,1.93,5,3.36,6.33,0,0-.84-18.17-17.64-15.86,0,0-10.53.94-14.13,9.37S204.76,108.36,204.76,108.36Z" style="fill:#263238"></path><path d="M207.6,109s-4-5.27-6.4-3.83.75,9.19,3.68,10.15a2.94,2.94,0,0,0,3.87-1.73Z" style="fill:#d3766a"></path><path d="M202.16,107.37s0,.06,0,.08c2,.74,3.19,2.57,4,4.49a1.61,1.61,0,0,0-2.44-.35.06.06,0,0,0,.06.1,1.83,1.83,0,0,1,2,.56,8.08,8.08,0,0,1,1,1.57c.11.17.43.06.35-.14l0-.05C207.08,111.05,204.94,107.52,202.16,107.37Z" style="fill:#263238"></path><path d="M206.84,114.45a.86.86,0,0,1-.82.89.85.85,0,1,1-.08-1.7A.86.86,0,0,1,206.84,114.45Z" style="fill:#fff"></path><path d="M190.55,141c-.47,9.23.38,45.21,6.45,55.21,4,6.51,24.72,17.86,33.68,21.07,3.76,1.34,17.23-24.47,13-25.3-3.08-.6-24.89-12.87-27.59-14.56,0,0-7.16-22-12.61-36.41C198.37,127.36,191.45,123.77,190.55,141Z" style="fill:#d3766a"></path><path d="M254.09,198.7c-1.45-1.21-.82-2,2.53-1.87s16.56,3.36,17.31-1.34-17.94-9-23.54-8.78-14.58,2.63-14.58,2.63C239.27,190.91,247.32,195.53,254.09,198.7Z" style="fill:#d3766a"></path><path d="M227.09,216c9.93,4.08,22,9.75,34,8a6,6,0,0,0,3.53-1.71c5.39-.68,6.68-3.43,6.68-3.43,4.83-2.16,5.77-5.15,5.77-5.15s6.31-.87,6.43-4.77c.13-4.38-8.76-2.31-14.35-4.16-12.8-4.25-29.81-13.87-33.38-15.46Z" style="fill:#d3766a"></path><path d="M252.65,209.78a87.85,87.85,0,0,0,11.42,3.08,86,86,0,0,0,12.93.76.11.11,0,1,1,0,.21A45.92,45.92,0,0,1,252.59,210C252.41,209.87,252.45,209.72,252.65,209.78Z" style="fill:#263238"></path><path d="M249,217.13c3.75.94,10.36,2.55,22.38,1.63,0,0,.05.06,0,.07a41.2,41.2,0,0,1-22.44-1.52C248.68,217.23,248.71,217.07,249,217.13Z" style="fill:#263238"></path><path d="M247.05,221.12c6.45,1.35,10.68,1.39,17.58,1.16,0,0,.05.07,0,.07-7.82,1.09-10.78.59-17.67-1C246.74,221.28,246.8,221.07,247.05,221.12Z" style="fill:#263238"></path><path d="M212.23,159.33,189.1,172.28s-.82-29.14,1.36-37.78c2.45-9.72,6.89-6.34,11.84,1.8S212.23,159.33,212.23,159.33Z" style="fill:#FFC727"></path><path d="M194.87,128.59h0a6.25,6.25,0,0,0-1.3,1.61,6.93,6.93,0,0,0,2.23-1.25l.09-.08A2.79,2.79,0,0,0,194.87,128.59Zm13.88,29.75a7.11,7.11,0,0,0-1.7,1.94,7.26,7.26,0,0,0,2.26-1.24,6.91,6.91,0,0,0,1.68-1.95A7,7,0,0,0,208.75,158.34Zm-16.11,6.82a7,7,0,0,0-2.56.19,7,7,0,0,0,2.47.7,6.57,6.57,0,0,0,2.56-.19A7.1,7.1,0,0,0,192.64,165.16ZM193.82,145a7.33,7.33,0,0,0-.52,5,7.13,7.13,0,0,0,.7-2.47A6.63,6.63,0,0,0,193.82,145Z" style="fill:#fff"></path><path d="M190.05,166.36c.73-.58,7.88-4.73,9.45-5.59s8-4.49,9.66-5.25c.08,0,.14.07.07.11-1.51,1.07-7.95,4.73-9.54,5.65s-8.74,4.86-9.59,5.19C190,166.5,190,166.4,190.05,166.36Z" style="fill:#263238"></path><path d="M210.39,160.34c.67-.44,1.73-1.08,1.73-1.08-.94-2.93-7.07-17.29-8.49-20.79,0-.05.06-.08.08,0,.93,1.93,1.85,3.85,2.75,5.78l-.21-.78c-.25-.93-.47-1.86-.76-2.78,0-.08.09-.13.12,0a22.33,22.33,0,0,1,.95,2.75c.17.66.3,1.32.41,2,.51,1.11,1,2.22,1.51,3.35,1.48,3.45,3.14,7,4.35,10.55a14.23,14.23,0,0,1-2.37,1.26C210.35,160.55,210.29,160.41,210.39,160.34Z" style="fill:#263238"></path><path d="M191.34,171c-.78.53-1.58,1-2.37,1.53a92.2,92.2,0,0,1-.4-16c.1-1.75.25-3.5.48-5.24.07,3,.06,7.42.09,10.49s.05,7.44.12,10.48l-.24-.13c.77-.37,1.53-.75,2.32-1.11Z" style="fill:#263238"></path><path d="M188.8,157.92a5.61,5.61,0,0,1-.84-4.15,23.67,23.67,0,0,1,.84,4.15Z" style="fill:#263238"></path></g><g id="freepik--character-2--inject-89"><path d="M425.11,451.63c2.58.87,76.27,1.13,79.08-.64,1.07-.66,1.74-11.39,2.17-24.38.1-2.8.18-5.7.24-8.64l6-39.31-49.27-.31-4.65,39.31.19,8.65s-28.26,12.52-31.14,14.79S422.54,450.76,425.11,451.63Z" style="fill:#eb9481"></path><path d="M425.11,451.63c2.58.87,76.27,1.13,79.08-.64,1.3-.81,2-16.48,2.41-33l-47.94-.31.19,8.65s-28.26,12.52-31.14,14.79S422.54,450.76,425.11,451.63Z" style="fill:#fff"></path><path d="M425.11,451.63c2.58.87,76.27,1.13,79.08-.64,1.07-.66,1.74-11.39,2.17-24.38l-47.51-.3s-28.26,12.52-31.14,14.79S422.54,450.76,425.11,451.63Z" style="fill:#FFC727"></path><path d="M426.18,448.69c12.36-.26,62.21-.15,74.44.54.1,0,.1.07,0,.07-12.24.53-62.09,0-74.44-.41C425.92,448.88,425.92,448.69,426.18,448.69Z" style="fill:#263238"></path><path d="M454.06,427.52c4.94,0,10.67,1.71,13.73,5.77.11.15-.11.32-.26.24a67.88,67.88,0,0,0-13.56-5.4A.31.31,0,0,1,454.06,427.52Z" style="fill:#263238"></path><path d="M450.23,429c4.95-.05,10.68,1.72,13.73,5.77.12.16-.1.33-.25.25a68.52,68.52,0,0,0-13.56-5.41A.31.31,0,0,1,450.23,429Z" style="fill:#263238"></path><path d="M446.41,430.47c4.95-.05,10.67,1.71,13.73,5.77.12.15-.11.32-.25.24a68.12,68.12,0,0,0-13.56-5.4A.31.31,0,0,1,446.41,430.47Z" style="fill:#263238"></path><path d="M590.47,205.23s-64.66,97.32-66.19,104.16c-2.35,10.5-14.91,115.8-14.91,115.8l-53.93-1.07s12.19-93,21.9-123.16c7-21.69,57.49-93.65,57.49-93.65Z" style="fill:#37474f"></path><path d="M457.05,414.87c8.54-.06,38.84-.4,50.22.66.08,0,.08.15,0,.17-3.91.56-41.67-.32-50.22-.59A.12.12,0,1,1,457.05,414.87Z" style="fill:#263238"></path><path d="M535,456.69c2.72.18,75.83-19.1,78.11-21.52a1.08,1.08,0,0,0,.17-.5c.29-2.39-3.45-11.37-6.07-22.86-.17-.74-1.54-4.22-3.47-8.94-5.3-12.94-14.77-35.15-14.77-35.15L541.26,380l17.58,35.33,2.38,8.31s-24.14,19.31-26.34,22.24S532.33,456.5,535,456.69Z" style="fill:#eb9481"></path><path d="M535,456.69c2.72.18,75.83-19.1,78.11-21.52a1.08,1.08,0,0,0,.17-.5c.29-2.39-3.45-11.37-6.07-22.86-.17-.74-1.54-4.22-3.47-8.94l-44.93,12.42,2.38,8.31s-24.14,19.31-26.34,22.24S532.33,456.5,535,456.69Z" style="fill:#fff"></path><path d="M535,456.69c2.71.18,75.82-19.1,78.1-21.52.86-.92-1-10.81-5.9-23.36l-46,11.8s-24.14,19.3-26.35,22.23S532.33,456.5,535,456.69Z" style="fill:#FFC727"></path><path d="M535.32,453.57c11.88-3.4,60.12-16,72.13-18.43.09,0,.11.05,0,.08-11.7,3.62-60,15.8-72.09,18.54C535.12,453.82,535.07,453.64,535.32,453.57Z" style="fill:#263238"></path><path d="M556.89,426c4.77-1.31,10.76-1.06,14.75,2.08.15.13,0,.34-.19.31A68.47,68.47,0,0,0,557,426.61.31.31,0,0,1,556.89,426Z" style="fill:#263238"></path><path d="M553.57,428.4c4.77-1.31,10.76-1.06,14.75,2.08.15.13,0,.34-.19.31A67.9,67.9,0,0,0,553.64,429,.31.31,0,0,1,553.57,428.4Z" style="fill:#263238"></path><path d="M550.25,430.8c4.77-1.31,10.75-1.06,14.74,2.08.16.12,0,.34-.18.31a67.9,67.9,0,0,0-14.49-1.78A.31.31,0,0,1,550.25,430.8Z" style="fill:#263238"></path><path d="M555.05,423.39l53.48-14s-45.83-99.77-45.41-106.73c.36-6.17,37.51-60.25,39.56-70.37,3.36-16.57-4.71-31.37-12.53-40.54l-55.32,15.59s4.4,9.57,12.5,15.62c0,0-34.77,58-35.66,77.14S555.05,423.39,555.05,423.39Z" style="fill:#37474f"></path><path d="M554.18,413.77c7.76-2.22,5.5-1.69,13.29-3.83,3.81-1,28.84-7.88,32.56-8.24.09,0,.12.13.05.16-3.42,1.54-28.57,7.94-32.39,8.91-7.83,2-5.6,1.33-13.45,3.23A.12.12,0,0,1,554.18,413.77Z" style="fill:#263238"></path><path d="M538.83,220.7a99.64,99.64,0,0,1,15.32,7.22.17.17,0,0,1-.15.31c-5.16-2.26-10.43-4.42-15.46-6.94A.33.33,0,0,1,538.83,220.7Z" style="fill:#263238"></path><path d="M545.33,219.33a22.76,22.76,0,0,1,1,3,6.41,6.41,0,0,1,.39,2.44c0,.16-.24.17-.32.06a8.22,8.22,0,0,1-1-2.39c-.33-.92-.69-1.84-1-2.77A.52.52,0,0,1,545.33,219.33Z" style="fill:#263238"></path><path d="M545.33,214.32c-.22-.85-.44-1.7-.68-2.54s-.55-1.74-.73-2.63c0-.14-.25-.08-.21.07.22.85.32,1.73.47,2.6s.31,1.73.48,2.6c.32,1.6.75,3.22,1.23,4.79a5.75,5.75,0,0,1-2.47-.76,4.55,4.55,0,0,1-1.5-2.36c-.35-1-.66-1.94-1-2.9a19.37,19.37,0,0,1-1.06-3.23c0-.14-.25-.07-.22.07a35.44,35.44,0,0,0,2,6.82c.38.87.66,1.75,1.51,2.18a7.39,7.39,0,0,0,3,.58c.12,0,.29,0,.26-.16C546.07,217.74,545.76,216,545.33,214.32Z" style="fill:#263238"></path><path d="M546.25,224.82c-2.1,3.8-4.51,7.45-6.76,11.16s-4.28,7.32-6.33,11c-4.14,7.5-8,15.2-11.48,23q-2.59,5.81-4.9,11.74a89.76,89.76,0,0,0-4,12.13,33.2,33.2,0,0,0-.54,12.6c.66,4.29,4.48,20.87,8.67,29.84.14.3.63.07.52-.24-2.92-8.24-9.6-29.59-8.2-38.18a79.24,79.24,0,0,1,4-13.27c1.49-4,3.1-8,4.8-11.9,3.36-7.73,7.13-15.24,11-22.73,2.15-4.2,4.42-8.34,6.6-12.52s4.35-8.52,6.82-12.58A.11.11,0,0,0,546.25,224.82Z" style="fill:#263238"></path><path d="M586.53,216.7c-1-.17-2.46.18-6.8-.11a25.16,25.16,0,0,1-3.56-.58,7.68,7.68,0,0,1-3.3-1.35,17.25,17.25,0,0,1-3.78-5.19,26.71,26.71,0,0,1-2.63-6.41c0-.13-.23-.07-.21.06.23,1.27.36,2.54.69,3.79a23.25,23.25,0,0,0,1.27,3.44c.92,2.08,2,4.32,3.87,5.72s4.69,1.75,7.06,1.91c1.37.1,6.74,0,7.47-.81C586.73,217,586.72,216.74,586.53,216.7Z" style="fill:#263238"></path><path d="M597.67,400.22C591.87,385,568.2,329.51,562,315.48c-1.47-3.36-3.23-6.75-4-10.36-.83-3.92.38-7.47,2-11a190.63,190.63,0,0,1,10.33-18.74c3.76-6.09,7.73-12,11.66-18s8-11.86,11.16-18.21c3-6.07,4.74-12.55,3.87-19.36s-3.79-13.1-6.93-19.07c-.83-1.57-1.68-3.13-2.51-4.71-.06-.12-.25,0-.18.11C591,202.38,594.33,209,596,216a32.39,32.39,0,0,1,.78,10.61,33.59,33.59,0,0,1-3,10.37c-2.91,6.39-7,12.27-10.79,18.13s-7.9,11.94-11.7,18a206.83,206.83,0,0,0-10.65,18.78c-1.42,2.88-3,5.89-3.31,9.12-.38,3.55.9,6.94,2.27,10.15,6,13.94,37,87.57,37.8,89.29C597.46,400.63,597.75,400.44,597.67,400.22Z" style="fill:#263238"></path><path d="M528.71,140.54c2.93-.91,7-8.48,7.7-13.88,0-.37-1.68-3.4-3.59-7.19-1.16-2.3-2.39-4.89-3.34-7.33l-13.88,9.69a41.67,41.67,0,0,1,5.14,8.81,5.47,5.47,0,0,1,.28,1.05,1.22,1.22,0,0,1,.05.17C521.5,133.89,524.11,142,528.71,140.54Z" style="fill:#eb9481"></path><path d="M522.67,131.34a10.34,10.34,0,0,1-1.61.52.8.8,0,0,0,0-.18,4.28,4.28,0,0,0-.29-1,41.36,41.36,0,0,0-5.13-8.81l12.88-9C529.39,117,530.87,127.92,522.67,131.34Z" style="fill:#263238"></path><path d="M529.36,92.9c2.75,5.44,2.62,22.57-.82,27-5,6.4-14.6,8.61-20.4,2.28-5.63-6.13-5.06-28.45-1.08-32.61C512.92,83.43,525.28,84.87,529.36,92.9Z" style="fill:#eb9481"></path><path d="M513.89,105.49s.09.05.08.1c-.09,1.15,0,2.49,1,2.92,0,0,0,.07,0,.06C513.72,108.33,513.62,106.56,513.89,105.49Z" style="fill:#263238"></path><path d="M515,104.33c1.86,0,1.83,3.67.11,3.72S513.42,104.38,515,104.33Z" style="fill:#263238"></path><path d="M507.75,105.24s-.09.05-.09.1c0,1.15-.13,2.48-1.18,2.85,0,0,0,.07,0,.07C507.77,108.09,508,106.33,507.75,105.24Z" style="fill:#263238"></path><path d="M506.73,104c-1.85-.15-2,3.57-.31,3.71S508.29,104.15,506.73,104Z" style="fill:#263238"></path><path d="M516.46,102.64a14.53,14.53,0,0,1-1.44-.52,2.5,2.5,0,0,1-1.37-.81.79.79,0,0,1,.14-1,2,2,0,0,1,2-.19,2.86,2.86,0,0,1,1.64,1.25A.84.84,0,0,1,516.46,102.64Z" style="fill:#263238"></path><path d="M505.45,102.56a15.24,15.24,0,0,0,1.48-.37,2.48,2.48,0,0,0,1.44-.67.78.78,0,0,0,0-1,2,2,0,0,0-1.94-.38,2.82,2.82,0,0,0-1.76,1.08A.84.84,0,0,0,505.45,102.56Z" style="fill:#263238"></path><path d="M515.56,116.24c-.28.27-.56.64-1,.67a2.94,2.94,0,0,1-1.24-.3s-.08,0-.05.06a1.54,1.54,0,0,0,1.46.64,1.23,1.23,0,0,0,.91-1C515.69,116.23,515.6,116.2,515.56,116.24Z" style="fill:#263238"></path><path d="M514.37,112.78a4,4,0,0,1-2.63,1.73,5.12,5.12,0,0,1-1.41,0,1.12,1.12,0,0,1-.27,0l-.26,0a.31.31,0,0,1-.23-.26h0s0-.08,0-.12h0V114c0-.89.08-2.24.08-2.24-.33.16-2,.89-2,.43a59.88,59.88,0,0,1,1.61-11.88c0-.13.23-.09.21,0-.1,3.7-.85,7.36-1,11.08a6.49,6.49,0,0,1,1.86-.55c.12,0-.24,2.6-.2,3a.1.1,0,0,0,0,0,5.43,5.43,0,0,0,4.08-1.23C514.35,112.61,514.44,112.69,514.37,112.78Z" style="fill:#263238"></path><path d="M510.85,114.11a4.64,4.64,0,0,0,1.86,1.46,2,2,0,0,0,1.27.09c.92-.23.95-1.08.79-1.8a4.89,4.89,0,0,0-.4-1.11A6,6,0,0,1,510.85,114.11Z" style="fill:#263238"></path><path d="M512.71,115.57a2,2,0,0,0,1.27.09c.92-.23.95-1.08.79-1.8A2.15,2.15,0,0,0,512.71,115.57Z" style="fill:#ff99ba"></path><path d="M503.9,96c6.35,4.28,15-2.33,15-2.33a6.88,6.88,0,0,0,7,4.3s1.33,10.68,4.14,10.64c4.3-.06,5.52-14.65,4.15-17.51s-5-3.56-5-3.56a7,7,0,0,0-3-4.23c-2.95-2.23-13,.87-13,.87a9.41,9.41,0,0,0-2.62-3.48,2.65,2.65,0,0,0-3.82.38,6.52,6.52,0,0,1,1,2.63c.53,3.13-2,3.14-2,.3a4.37,4.37,0,0,1,1-2.93c-1.28-1.85-3.34-2.44-4.59-1.43C499.81,81.43,498.62,92.4,503.9,96Z" style="fill:#263238"></path><path d="M526.43,94.54a.14.14,0,1,1,.27.06,27.4,27.4,0,0,0-.58,6.51c.15,2.16,1.34,7.58,4.43,6.92a.12.12,0,0,1,.07.23c-2,1-3.46-1.61-4.15-3.43C525.23,101.54,525.63,97.86,526.43,94.54Z" style="fill:#263238"></path><path d="M502.24,79.47s0,0,0,0c-3.25,4.19-4,10.12-.95,14.68,3.83,5.73,11.47,2,16-.53.23-.12.45.2.22.33-4.42,2.57-12.18,6.17-16.18,1C497.81,90.29,498.58,83.74,502.24,79.47Z" style="fill:#263238"></path><path d="M528.2,87.49c4.23.42,7.26,2.39,7.71,6.86a16.34,16.34,0,0,1-4.32,12.42c-.15.16-.38-.06-.25-.23a18.33,18.33,0,0,0,4.09-9.28c.28-2.59,0-5.49-1.88-7.49-1.32-1.45-3.57-1.78-5.38-2.12C528.06,87.63,528.1,87.48,528.2,87.49Z" style="fill:#263238"></path><path d="M511.84,85.06c5.24-3.27,15.65-6.41,17.22,2.38,0,.07-.11.09-.13,0-2.07-8.79-11.59-4.77-17-2.18C511.82,85.34,511.72,85.13,511.84,85.06Z" style="fill:#263238"></path><path d="M515.65,112.18a5.43,5.43,0,0,1-4.63-6.11h0a5.42,5.42,0,1,1,6,6.13A5.56,5.56,0,0,1,515.65,112.18Zm-3.91-6a4.69,4.69,0,1,0,5.29-4,4.6,4.6,0,0,0-1.17,0A4.71,4.71,0,0,0,511.74,106.17Z" style="fill:#FFC727"></path><path d="M504.2,112.1c-2.22,0-4-2.45-4-5.44a6.55,6.55,0,0,1,1.16-3.79,3.37,3.37,0,0,1,5.78,0,6.41,6.41,0,0,1,1.13,3.79c0,2.83-1.64,5.15-3.7,5.39Zm-2.26-8.8a5.67,5.67,0,0,0-1,3.36c0,2.59,1.46,4.7,3.29,4.71s3.32-2.09,3.33-4.68a5.83,5.83,0,0,0-1-3.37,2.89,2.89,0,0,0-2.3-1.34H504A3,3,0,0,0,501.94,103.3Z" style="fill:#FFC727"></path><path d="M511.2,106.7l.47-.55c-.82-.7-2.72-1.64-4.05-.22l.53.49C509.34,105.16,511.12,106.64,511.2,106.7Z" style="fill:#FFC727"></path><path d="M535.35,108.2l.64-.33c-.15-.3-1.55-3-3.17-3.22s-11.23.62-11.64.66l.07.72c2.78-.25,10.29-.86,11.45-.66S535,107.47,535.35,108.2Z" style="fill:#FFC727"></path><path d="M527.05,107.05s2.93-6,5.59-5,1,9.21-1.69,10.72a3,3,0,0,1-4.15-1Z" style="fill:#eb9481"></path><path d="M532.11,104.4s.06.06,0,.08c-1.89,1.12-2.66,3.15-3.1,5.2a1.62,1.62,0,0,1,2.34-.81c.06,0,0,.12,0,.11a1.83,1.83,0,0,0-1.88.93,9.13,9.13,0,0,0-.7,1.75c-.06.19-.4.15-.37-.07v0C528,109,529.4,105.09,532.11,104.4Z" style="fill:#263238"></path><path d="M597.11,200.08c-.1.24-71.28,20.25-72.15,19.75-1.21-.7-9.92-70.39-3.73-89.09,1.54-4.67,10.56-10.41,15.89-7.87,15.45,7.35,20.93,15.93,26.47,22.59,4.1,4.94,10,13.74,15.65,22.86C588.6,183.35,597.46,199.24,597.11,200.08Z" style="fill:#FFC727"></path><path d="M538.12,123.36l-14.82,4.15a16.84,16.84,0,0,1,3.2-2.65l9-2.51a6.25,6.25,0,0,1,1.67.52Zm5.17,2.81-22.56,6.32c-.14.58-.28,1.21-.4,1.86l24.9-7C544.61,127,544,126.57,543.29,126.17Zm6.22,4.27-29.83,8.35c-.06.58-.12,1.19-.18,1.8l31.61-8.85C550.6,131.3,550.06,130.87,549.51,130.44Zm5.15,4.57-35.45,9.92c0,.58-.05,1.17-.07,1.77L556,136.39C555.57,135.93,555.12,135.47,554.66,135ZM559,139.8l-40,11.19c0,.57,0,1.16,0,1.75l41.13-11.52Zm4.59,5.66-.63-.76L519.06,157l0,1.74,45-12.61Q563.86,145.77,563.59,145.46Zm3.22,4.17L519.21,163l.06,1.73,48.6-13.61Zm3.55,5L519.47,168.9c0,.57,0,1.15.09,1.72l51.8-14.5Zm3.39,5.06-54,15.1.12,1.72,54.79-15.34ZM577,164.8l-56.82,15.91c0,.57.1,1.14.14,1.71L578,166.29Zm3.2,5.11L520.7,186.58c0,.58.09,1.14.15,1.71l60.3-16.88Zm3.14,5.14-62.14,17.39c.06.57.11,1.14.17,1.7l62.87-17.6Zm3.07,5.15-64.61,18.08c.06.58.12,1.14.18,1.7l65.31-18.28C587,181.21,586.74,180.71,586.44,180.2Zm3,5.16-67,18.75c.07.58.14,1.14.21,1.69l67.62-18.93Zm2.94,5.19-69.17,19.36c.07.59.15,1.15.22,1.69l69.79-19.53Zm2.82,5.22-71.16,19.92c.1.62.2,1.18.29,1.67L596,197.3Z" style="fill:#030402;opacity:0.1"></path><path d="M533.38,135.23c3.4,10.29,10,55.05,4.75,60.73-11.83,12.69-33,26.27-40.21,31.63-1.8,1.34-17.66-27.53-13-30.28,7.21-4.26,25.73-15.66,26.94-17,2.11-2.31,4.17-28.14,6.8-43.06C521,123.82,531.37,129.17,533.38,135.23Z" style="fill:#eb9481"></path><path d="M472.35,212c1.14-1.66.28-2.27-3.14-1.2s-16,8.17-18.14,3.55,15.84-14.38,21.67-15.71,15.72-1.45,15.72-1.45C485.35,199.81,478.4,206.84,472.35,212Z" style="fill:#eb9481"></path><path d="M505,222.09c-9,7-19.86,16.29-32.66,17.93a6.43,6.43,0,0,1-4.12-.75c-5.72.84-7.83-1.62-7.83-1.62C454.81,236.8,453,234,453,234s-6.73.91-8-3.07c-1.39-4.45,8.34-4.86,13.55-8.35,11.94-8,26.67-22.72,29.88-25.37Z" style="fill:#eb9481"></path><path d="M477,223a91,91,0,0,1-10.85,6.42,92.64,92.64,0,0,1-13.06,4.46.11.11,0,0,0,.05.22,48.87,48.87,0,0,0,24-10.94C477.25,223,477.16,222.87,477,223Z" style="fill:#263238"></path><path d="M482.86,229.48c-3.59,2-9.91,5.57-22.51,8,0,0,0,.08,0,.08A43.9,43.9,0,0,0,483,229.66C483.17,229.51,483.1,229.35,482.86,229.48Z" style="fill:#263238"></path><path d="M486,233c-6.24,3.22-10.57,4.46-17.73,6.19,0,0,0,.09,0,.08,8.33-1.11,11.23-2.46,17.85-6.07C486.32,233.11,486.2,232.91,486,233Z" style="fill:#263238"></path><path d="M490.71,191.72,506,224.53s28.31-17.75,33.64-29.75c3.36-7.56,0-38.84-4.12-54.4S520.36,119,516.73,144s-5,34-5.82,35.17S490.71,191.72,490.71,191.72Z" style="fill:#FFC727"></path><path d="M523.54,212.24c.34-1,13.05-10.62,16.17-19.7,1.36-3.95,1.54-15.69.87-23-.26-2.79-.78-5.55-1.21-8.32-.88-5.58-1.87-11.17-2.37-16.8a.05.05,0,0,1,.1,0c1,3.5,1.73,7.06,2.37,10.64l.06-.6c.18-1.72.42-3.44.43-5.16,0-.12.2-.11.19,0-.07,1.71,0,3.42,0,5.12,0,.83,0,1.65-.11,2.47,0,.31-.06.65-.1,1,.17,1.11.35,2.22.5,3.33.39,2.83.62,5.67,1,8.51.93,7.8,1,18.22-.81,23.75-3,9.34-16.42,18.55-17,19C523.46,212.58,523.49,212.37,523.54,212.24Z" style="fill:#263238"></path><path d="M512.07,217.81a76.53,76.53,0,0,1-3.21-7q-1.5-3.47-3-7c-2-4.7-4-9.38-5.7-14.2,0-.12.11-.2.17-.09,2.43,4.51,4.4,9.3,6.41,14q1.52,3.56,2.92,7.15a64.64,64.64,0,0,1,2.55,7A.1.1,0,0,1,512.07,217.81Z" style="fill:#263238"></path></g></svg>
