<svg xmlns="http://www.w3.org/2000/svg" viewBox="0 0 750 500"><g id="freepik--background-complete--inject-110"><g style="opacity:0.30000000000000004"><polygon points="288.83 0 62.72 182.65 62.72 137.9 233.42 0 288.83 0" style="fill:#ebebeb"></polygon><polygon points="687.28 250.95 687.28 295.7 564.89 394.55 509.48 394.55 687.28 250.95" style="fill:#ebebeb"></polygon><polygon points="168.8 0 62.72 85.7 62.72 71.04 150.68 0 168.8 0" style="fill:#ebebeb"></polygon><polygon points="687.28 89.01 687.28 103.65 327.16 394.55 309 394.55 687.28 89.01" style="fill:#ebebeb"></polygon><polygon points="687.28 319.45 687.28 334.11 612.45 394.55 594.29 394.55 687.28 319.45" style="fill:#ebebeb"></polygon><polygon points="608.79 0 120.34 394.55 102.18 394.55 590.65 0 608.79 0" style="fill:#ebebeb"></polygon><polygon points="421.92 0 62.72 290.16 62.72 286.73 417.71 0 421.92 0" style="fill:#ebebeb"></polygon><polygon points="687.28 126.18 687.28 129.6 359.27 394.55 355.04 394.55 687.28 126.18" style="fill:#ebebeb"></polygon></g><rect x="62.72" y="108.4" width="624.56" height="3.18" style="fill:#c7c7c7"></rect><rect x="68.46" y="195.46" width="394.55" height="3.64" transform="translate(463.02 -68.46) rotate(90)" style="fill:#c7c7c7"></rect><rect x="286.99" y="195.46" width="394.55" height="3.64" transform="translate(681.54 -286.98) rotate(90)" style="fill:#c7c7c7"></rect><rect x="62.72" y="394.55" width="624.56" height="9.98" style="fill:#c7c7c7"></rect></g><g id="freepik--Lamp--inject-110"><rect x="95.68" y="166.52" width="5.31" height="294.43" style="fill:#263238"></rect><rect x="38.48" y="135.1" width="178.33" height="5.31" transform="translate(-60.02 130.6) rotate(-45)" style="fill:#263238"></rect><rect x="95.68" y="434.84" width="5.31" height="57.53" transform="translate(-365.27 561.94) rotate(-90)" style="fill:#263238"></rect><polygon points="191.09 99.09 215.73 75.95 192.53 57.1 174.07 74.45 191.09 99.09" style="fill:#FFC727"></polygon><polygon points="215.73 75.94 191.09 99.09 184.32 89.29 205.45 67.6 215.73 75.94" style="opacity:0.1"></polygon><polygon points="188.54 137.75 255.04 75.26 223.28 58.16 173.44 104.99 188.54 137.75" style="fill:#FFC727"></polygon></g><g id="freepik--Chair--inject-110"><polygon points="306.36 408.52 234.75 466.26 238.78 466.26 321.49 408.52 306.36 408.52" style="fill:#c7c7c7"></polygon><polygon points="313.08 408.52 277.7 466.26 281.74 466.26 325.1 408.52 313.08 408.52" style="fill:#c7c7c7"></polygon><polygon points="330.43 408.52 365.81 466.26 361.78 466.26 318.41 408.52 330.43 408.52" style="fill:#c7c7c7"></polygon><polygon points="336.61 408.52 408.22 466.26 404.19 466.26 321.49 408.52 336.61 408.52" style="fill:#c7c7c7"></polygon><polygon points="456.13 387.34 456.13 370.45 357.79 366.41 305.85 227.74 186.84 227.74 228.95 387.34 329.55 415.58 335.86 415.58 456.13 387.34" style="fill:#263238"></polygon><polygon points="186.84 227.74 200.46 227.74 244.33 373.22 333.33 398.43 456.13 370.45 456.13 387.34 335.86 415.58 329.55 415.58 228.95 387.34 186.84 227.74" style="opacity:0.1"></polygon></g><g id="freepik--Cat--inject-110"><path d="M328.65,296.57c-.61-4.74-3-18-3.91-19.15S314.39,281,310.4,290Z" style="fill:#FFC727"></path><path d="M327.59,296.19c-.46-3.88-2.27-14.64-2.91-15.56s-7.83,3.24-10.78,10.61Z" style="fill:#ff9bbc"></path><path d="M321.62,295.52c-.3-2.89.63-6.21,3.16-7.87a6.09,6.09,0,0,1,2.77-1c-.23.09-.46.18-.68.25a3,3,0,0,0-.66.29c-3.13,1.46-4.29,5.07-4.59,8.29Z" style="fill:#FFC727"></path><path d="M320.18,295.44c-1.08-4.78.47-10.36,4.61-13.21a15.7,15.7,0,0,1,1.82-1.06c-5,3.15-6.9,8.56-6.43,14.27Z" style="fill:#FFC727"></path><path d="M297.89,293.72c-2.31-2-12.75-7.73-14.35-7.32s-1.12,12.78-.85,15.36,3.75,10.6,3.75,10.6Z" style="fill:#FFC727"></path><path d="M297.58,294.22c-1.83-1.58-9.75-6.4-11-6.07s-.89,10.11-.67,12.15,2.87,8.28,2.87,8.28Z" style="fill:#ff9bbc"></path><path d="M294,301.15c-2.62-1.89-6.11-3.39-9.26-2a3.19,3.19,0,0,0-.65.3c-.21.12-.42.24-.64.35a6.27,6.27,0,0,1,2.54-1.46c2.92-.8,6,.68,8,2.8Z" style="fill:#FFC727"></path><path d="M294.93,300c-4-4.11-9.34-6.23-15-4.56a15,15,0,0,1,2-.67c4.87-1.23,10.09,1.27,13,5.23Z" style="fill:#FFC727"></path><path d="M284.54,318.15c0,.82,2.81,4.74,7.68,7.07,0,0-7.06,13.36-7.15,18.57-.13,8.51,6.9,21.19,14.8,25.14,5.28,2.64,57.38,3.19,59.85,3.19s23.19-10.26,22.78-13.2c-.59-4.2-8-28.82-20.51-33.7-3.27-1.28-9.36-1.08-18.58,2.18,0,0-6.91-3.4-13.11-3.87,0,0,9.11-11.91,7.31-20.34-.34-1.6-16.36-13.84-19.16-14.93s-22.57,3-25.88,8.2C290.53,299.67,284.57,316.08,284.54,318.15Z" style="fill:#FFC727"></path><path d="M284.54,318.15c0,.82,2.81,4.74,7.68,7.07,0,0-7.06,13.36-7.15,18.57-.13,8.51,6.9,21.19,14.8,25.14,5.28,2.64,57.38,3.19,59.85,3.19s23.19-10.26,22.78-13.2c-.59-4.2-8-28.82-20.51-33.7-3.27-1.28-9.36-1.08-18.58,2.18,0,0-6.91-3.4-13.11-3.87,0,0,9.11-11.91,7.31-20.34-.34-1.6-16.36-13.84-19.16-14.93s-22.57,3-25.88,8.2C290.53,299.67,284.57,316.08,284.54,318.15Z" style="fill:#FFC727"></path><path d="M343.41,327.4c-3,1.46-6,3.15-9,4.46a27.72,27.72,0,0,1,9-4.46Z" style="fill:#263238"></path><path d="M292.22,327.19c-.35,1.34,3.14,2.9,7.13,2.5,5.2-.52,7.63-3.08,7.45-3.83-.29-1.29-2,.2-7.82.7C297.3,326.71,292.47,326.2,292.22,327.19Z" style="opacity:0.1"></path><path d="M288.8,333.55c-.45,1.73,4.24,3.78,9.59,3.31,7-.62,10.21-3.92,10-4.9-.41-1.68-3.13.67-10.4,1.14C294.23,333.34,289.13,332.26,288.8,333.55Z" style="opacity:0.1"></path><path d="M287.08,342.3c-.34,1.87,5.43,3.75,11.69,2.87,8.15-1.15,11.6-4.89,11.21-5.92-.67-1.76-3.62.94-12.14,1.94C293.47,341.71,287.33,340.9,287.08,342.3Z" style="opacity:0.1"></path><path d="M372.06,339.38c-.15-1.27-3.7-1.47-7,.21-4.35,2.18-5.61,5.22-5.21,5.82.69,1,1.71-.86,6.57-3.22C367.81,341.5,372.17,340.33,372.06,339.38Z" style="opacity:0.1"></path><path d="M368.33,332.71c-.18-1.65-4.95-1.88-9.45.32-5.85,2.87-7.57,6.82-7,7.59.91,1.32,2.5-1.63,8.66-4.47C363.68,334.7,368.47,333.94,368.33,332.71Z" style="opacity:0.1"></path><path d="M362.7,326.67c-.33-1.74-6-1.44-11.12,1.41-6.71,3.71-8.46,8.12-7.77,8.89,1.16,1.3,2.84-2,9.9-5.74C357.35,329.32,363,328,362.7,326.67Z" style="opacity:0.1"></path><path d="M321.93,370.17c.56,1.82,5.46,1.25,9.54-2,5.31-4.22,6.16-8.95,5.44-9.72-1.23-1.32-2.17,2.26-7.8,6.5C326.22,367.14,321.51,368.82,321.93,370.17Z" style="opacity:0.1"></path><path d="M288.6,351.93c-.11,2.23,6.85,3.54,14,1.6,9.29-2.54,12.73-7.39,12.13-8.53-1-1.94-4.07,1.63-13.79,4.05C295.92,350.3,288.69,350.28,288.6,351.93Z" style="opacity:0.1"></path><path d="M306.2,368.46c.33,2.07,6.74,2,12.69-1.08,7.75-4.05,9.88-9.17,9.12-10.11-1.28-1.61-3.29,2.24-11.44,6.27C312.38,365.6,306,366.91,306.2,368.46Z" style="opacity:0.1"></path><path d="M292.82,360.43c-.12,2.48,7.66,4,15.64,1.78,10.39-2.84,13.37-8.64,12.69-9.9-1.16-2.17-4.34,1.31-14.55,4.89C301.16,359.11,292.91,358.57,292.82,360.43Z" style="opacity:0.1"></path><path d="M382.5,358.92c2.24,1,9.75-1.77,15.13-2.15s9.74,5,9.19,7.84c-.89,4.71-11,14-23.31,16.93s-36.43,5.71-48,3-13.46-10.23-12.37-15c1.38-6.05,10.07-9.3,22-8.29,7.89.67,21.65,3.07,29.72,3.52Z" style="fill:#FFC727"></path><path d="M322.93,371.2c.26-7.07,7.57-9.51,13.51-10.28,12.34-1.45,24.31,2.52,36.5,3.47,6.06.55,12.19,1.14,18.26.38-6,1.16-12.24.81-18.33.41s-12.19-1.39-18.2-2.41c-8.76-1.26-18.57-2.69-26.81,1.3a9,9,0,0,0-4.93,7.13Z" style="fill:#263238"></path><path d="M318.26,306.24c-4.49.67-5.74,5.41-6.13,5.9s-5.63,8.35-3.29,12.17a40.72,40.72,0,0,0,5.52.29c2.51-.1,11.95-1.22,15.46-1.13,0,0,1.76-10.16-3.8-13.36C326,310.11,323.27,305.49,318.26,306.24Z" style="fill:#fff"></path><path d="M330.3,323.53c-5.08.24-10,1.13-15.09,1.61a29.84,29.84,0,0,1-9.12-.93c2.54.09,5,.23,7.55.11,5.52-.51,11.11-1.64,16.66-.79Z" style="fill:#263238"></path><path d="M324.25,301c1.56-.52,2.87.77,3.48,2.58.5,1.48.08,3.29-1.41,3.8s-3-1-3.49-2.33S322.56,301.55,324.25,301Z" style="fill:#263238"></path><path d="M306.47,305.73c-2.36.09-3.49,1.95-3.42,4.07a3.55,3.55,0,0,0,3.8,3.34,3.78,3.78,0,0,0,3.55-3.8A3.73,3.73,0,0,0,306.47,305.73Z" style="fill:#263238"></path><path d="M316.51,307.79a5.82,5.82,0,0,0,2.26.91c.19,0,1.71-1.49,1.69-1.79s-1.65,0-2.06,0S316.41,307.51,316.51,307.79Z" style="fill:#263238"></path><path d="M322.2,308.66c-.19.47-.39.94-.62,1.38a3.21,3.21,0,0,1-.4.59.51.51,0,0,1-.22.16.53.53,0,0,1-.25-.06,1.82,1.82,0,0,1-.5-.43,4.21,4.21,0,0,1-.44-.58,10.07,10.07,0,0,1-.73-1.28l-.39-.81-.1.9a10.57,10.57,0,0,1-.36,1.76,5.81,5.81,0,0,1-.32.82,1.49,1.49,0,0,1-.51.59l-.08,0-.09,0-.19,0a1.42,1.42,0,0,1-.41-.08,3.25,3.25,0,0,1-.8-.38,9.12,9.12,0,0,1-1.43-1.15,7.17,7.17,0,0,0,1.29,1.35,3.43,3.43,0,0,0,.83.49,1.37,1.37,0,0,0,1,.06,1.74,1.74,0,0,0,.74-.73,4.63,4.63,0,0,0,.39-.89,9.9,9.9,0,0,0,.42-1.85l-.5.08a9.38,9.38,0,0,0,.8,1.33,4.85,4.85,0,0,0,.51.61,2,2,0,0,0,.68.48.8.8,0,0,0,.49.05.85.85,0,0,0,.38-.3,3.63,3.63,0,0,0,.37-.7A8.52,8.52,0,0,0,322.2,308.66Z" style="fill:#263238"></path><path d="M329.82,305.09c1.25-.34,2.51-.65,3.78-.92s2.53-.53,3.81-.73l1.92-.3c.64-.08,1.28-.17,1.93-.24,1.28-.16,2.57-.25,3.87-.36l-1.95,0c-.65,0-1.3.07-1.94.13-1.3.1-2.59.28-3.87.49s-2.56.47-3.82.79c-.63.15-1.26.32-1.88.5S330.43,304.86,329.82,305.09Z" style="fill:#263238"></path><path d="M330.48,305.73l1.74-.24,1.74-.22c1.16-.13,2.32-.26,3.48-.35l1.75-.14,1.74-.09.88,0,.87,0c.59,0,1.17,0,1.76,0-1.17-.08-2.34-.12-3.51-.1s-2.34.08-3.51.17-2.33.23-3.49.41S331.62,305.45,330.48,305.73Z" style="fill:#263238"></path><path d="M330.29,306.51l1.47,0c.48,0,1,0,1.46,0,1,0,1.94,0,2.91,0s1.95.06,2.92.1l2.92.15c-.48-.08-1-.14-1.45-.2s-1-.11-1.46-.15c-1-.09-1.94-.13-2.92-.16s-1.95,0-2.93,0S331.26,306.38,330.29,306.51Z" style="fill:#263238"></path><path d="M301.17,313.67c-.8.08-1.6.2-2.39.33s-1.59.28-2.38.44c-1.58.33-3.14.73-4.69,1.17s-3.08.95-4.59,1.52c-.76.28-1.5.58-2.25.89-.37.15-.74.32-1.1.49l-1.1.5c1.5-.59,3-1.18,4.52-1.69.76-.27,1.52-.52,2.28-.77s1.54-.48,2.31-.69c1.54-.46,3.1-.85,4.66-1.22S299.58,313.94,301.17,313.67Z" style="fill:#263238"></path><path d="M300.77,314.74c-1.42.31-2.82.71-4.2,1.13s-2.76.91-4.13,1.42-2.7,1.07-4,1.68-2.61,1.26-3.88,2c.66-.3,1.31-.63,2-.91l1-.45,1-.43c.67-.29,1.34-.56,2-.83s1.35-.54,2-.79c1.35-.52,2.72-1,4.09-1.47.68-.23,1.37-.46,2.06-.67S300.08,315,300.77,314.74Z" style="fill:#263238"></path><path d="M301.4,315.52c-1.15.38-2.27.84-3.38,1.32s-2.21,1-3.29,1.54-2.15,1.12-3.19,1.74c-.53.3-1,.62-1.56.93l-1.52,1c1.06-.58,2.11-1.18,3.18-1.75s2.13-1.14,3.21-1.68,2.16-1.07,3.25-1.59c.54-.26,1.09-.52,1.64-.76S300.84,315.76,301.4,315.52Z" style="fill:#263238"></path><path d="M325.25,296.35a2.53,2.53,0,0,0-1.95-1.21,2.66,2.66,0,0,0-2.2.66c.4.12.75.16,1.09.23,1,.14,2,.28,3.06.32Z" style="fill:#263238"></path><path d="M300.48,302.84a28.61,28.61,0,0,0,2.54-1.76,9.88,9.88,0,0,0,.84-.72,2.62,2.62,0,0,0-2.25.48,2.56,2.56,0,0,0-1.13,2Z" style="fill:#263238"></path><path d="M318.27,321.58a8.39,8.39,0,0,0,2.61-2.17c.05-.07.22,0,.24.08l.21,1.05c.05-.05,1.17-1.28,1.32-4.52,0,0,.05,0,.05,0a4.88,4.88,0,0,1-1.53,5.3c-.15.08-.36-1-.38-1.17a4,4,0,0,1-2.44,1.5C318.3,321.67,318.22,321.61,318.27,321.58Z" style="fill:#263238"></path></g><g id="freepik--plant-3--inject-110"><path d="M602.43,264.19h0l0,0S602.41,264.21,602.43,264.19Z" style="fill:#FFC727"></path><path d="M605.66,257.34c-5.21,8.62-18.82,40-21,49.1s-6.34,57-6.8,58.45a29.85,29.85,0,0,1-2.86,5.84h9.27A15.47,15.47,0,0,1,583,365.6c.05-3.33,4.38-53.14,5.4-58.61s14.86-41.57,19.91-47.55Z" style="fill:#FFC727"></path><path d="M605.66,257.34c-5.21,8.62-18.82,40-21,49.1s-6.34,57-6.8,58.45a29.85,29.85,0,0,1-2.86,5.84h9.27A15.47,15.47,0,0,1,583,365.6c.05-3.33,4.38-53.14,5.4-58.61s14.86-41.57,19.91-47.55Z" style="opacity:0.1"></path><path d="M602.41,264.22c2.48-3,7.17-17.56,7.17-23.74s-.24-20.27,2-25.47,13.11-11.86,18.55-12.11,9,1.36,14.34,1.11,14.09-11.37,19.65-12.3,19.1,6.3,25,7.23,15.2-1.85,15.2-1.85a78.69,78.69,0,0,0-8.16,8.9c-3.33,4.45-6.12,9.83-9.45,11.87s-18.92,10.57-26.89,15.94-17.62,15.58-23,16.14-10.57.37-19.1,4.08A59.86,59.86,0,0,0,602.41,264.22Z" style="fill:#FFC727"></path><path d="M602.41,264.22c2.48-3,7.17-17.56,7.17-23.74s-.24-20.27,2-25.47,13.11-11.86,18.55-12.11,9,1.36,14.34,1.11,14.09-11.37,19.65-12.3,19.1,6.3,25,7.23,15.2-1.85,15.2-1.85a78.69,78.69,0,0,0-8.16,8.9c-3.33,4.45-6.12,9.83-9.45,11.87s-18.92,10.57-26.89,15.94-17.62,15.58-23,16.14-10.57.37-19.1,4.08A59.86,59.86,0,0,0,602.41,264.22Z" style="opacity:0.1"></path><path d="M704.33,197.1a77.41,77.41,0,0,0-8.14,8.89c-3.35,4.45-6.12,9.82-9.46,11.86s-18.91,10.58-26.89,16-17.62,15.58-23,16.14-10.57.37-19.1,4.08a60.21,60.21,0,0,0-15.3,10.17l0,0s0,0,0,0l.71-1.07,0,0c3.44-5.13,17.72-26.14,26.81-34.46,10.4-9.53,31-18.67,36.11-20.16s37.47-11.05,38.21-11.36Z" style="opacity:0.1"></path><path d="M609.66,253.67a218.43,218.43,0,0,1,13.75-18.62,56.73,56.73,0,0,1,9.24-9.28c9.14-6.29,18.67-12.25,29.07-16.22,3.66-1.35,7.41-2.25,11.11-3.33l11.16-3-11,3.51c-14.53,3.75-27.5,11.42-39.79,19.83-3.47,2.53-6.31,5.81-9.19,9-5,5.82-9.73,12-14.33,18.13Z" style="fill:#FFC727"></path><path d="M618.71,215.81c-.39,3.6.15,8.87.21,12.53.12,3,.2,6.38.23,9.43,0,1,0,2.1,0,3.15-.19-1-.3-2.08-.45-3.12-.34-3-.63-6.38-.73-9.42,0-4.18-.36-8.5.78-12.57Z" style="fill:#FFC727"></path><path d="M655.46,231.44c-5.26,2.34-10.55,4.6-16.29,5.54a125.9,125.9,0,0,1-12.89.48c-1.43,0-2.86-.05-4.29-.13,1.43-.14,2.85-.23,4.28-.36,4.12-.32,8.71-.55,12.78-1,5.51-.85,11.05-3,16.41-4.54Z" style="fill:#FFC727"></path><path d="M639.16,208.85a61,61,0,0,0-5.24,16.6,23.81,23.81,0,0,1,5.24-16.6Z" style="fill:#FFC727"></path><path d="M675.73,219.6c-5.45.8-10.94,1.31-16.43,1.75a38.15,38.15,0,0,1-16.4-1.72,57.85,57.85,0,0,0,12.24,1c6.85-.52,13.71-1,20.59-1.07Z" style="fill:#FFC727"></path><path d="M652.11,214.37c3.9.06,9.41.26,13.24.11s9.32-.76,13.19-1.11a56.93,56.93,0,0,1-26.43,1Z" style="fill:#FFC727"></path><path d="M590.39,246.79c2.09,5.79,8.53,38.6,9.39,46.91s6.55,67.47,6.36,70-4.91,7.06-4.91,7.06h10.94s-.88-4.41-1.62-8.49S604.2,302,602.9,291.57s-8.32-46.09-8.32-46.09Z" style="fill:#FFC727"></path><path d="M590.39,246.79c2.09,5.79,8.53,38.6,9.39,46.91s6.55,67.47,6.36,70-4.91,7.06-4.91,7.06h10.94s-.88-4.41-1.62-8.49S604.2,302,602.9,291.57s-8.32-46.09-8.32-46.09Z" style="opacity:0.1"></path><path d="M594.09,251.61c-3.21-5.69-12.85-13.6-20.52-17.06s-10.38-2.72-17.06-7.17S541.43,203.89,532,198s-15.82-10.63-21.51-16.32-12.36-20-18.79-25.22c0,0,53.65,3.71,65.52,10.88S586.1,198,589.89,207.1C597.31,224.9,594.09,251.61,594.09,251.61Z" style="fill:#FFC727"></path><path d="M594.09,251.61c-3.21-5.69-12.85-13.6-20.52-17.06s-10.38-2.72-17.06-7.17S541.43,203.89,532,198s-15.82-10.63-21.51-16.32-12.36-20-18.79-25.22c0,0,53.65,3.71,65.52,10.88S586.1,198,589.89,207.1C597.31,224.9,594.09,251.61,594.09,251.61Z" style="opacity:0.1"></path><path d="M594.08,251.58c-3.22-5.68-12.85-13.57-20.51-17s-10.39-2.72-17.06-7.17S541.43,203.89,532,198s-15.82-10.64-21.51-16.33-12.36-20-18.79-25.22c0,0,46.44,17.66,59.34,28.81a164.73,164.73,0,0,1,33.38,40.61C588.09,232.37,593.86,250.87,594.08,251.58Z" style="opacity:0.1"></path><path d="M507.58,162.78c13.86,5.6,28,11.14,40.45,19.52,8,6.1,14.68,13.62,21.23,21.19s12.7,15.64,16.5,24.95a118.86,118.86,0,0,1,5.32,14A147.9,147.9,0,0,0,582,222c-6.57-10.56-14.9-20-23.49-28.91a96.38,96.38,0,0,0-11-10c-12.36-8.36-26.35-14.14-39.92-20.25Z" style="fill:#FFC727"></path><path d="M553.93,218c9.1,3.6,18.64,6.16,27.86,9.46,1.32.49,2.64.95,4,1.47-1.38-.3-2.73-.67-4.09-1-9.43-2.6-19.12-5.17-27.72-9.93Z" style="fill:#FFC727"></path><path d="M582.32,197.52a131.17,131.17,0,0,1,2.12,13.19,44.31,44.31,0,0,1-1,13.33c.09-3.91.52-9.41,0-13.24s-1-9.39-1.13-13.28Z" style="fill:#FFC727"></path><path d="M576.46,190a126,126,0,0,1,2.06,12.66c.43,4.22,1,8.69-.4,12.79.66-3.67-.18-9-.59-12.68-.47-4.25-.9-8.49-1.07-12.77Z" style="fill:#FFC727"></path><path d="M534.24,192.58c5.66,2.31,11.5,4.16,17.32,6A179.34,179.34,0,0,1,569.09,204c-1.49-.34-3-.74-4.46-1.09-4.31-1.18-9.1-2.14-13.36-3.39a91.37,91.37,0,0,1-17-6.94Z" style="fill:#FFC727"></path><path d="M555,170.33c5.28,8.95,9.63,18.73,10.35,29.21l-1-3.78c-1.88-8.68-6.07-17.21-9.4-25.43Z" style="fill:#FFC727"></path><path d="M517.49,177.11c9.4,1.42,19,4.2,28.61,4.38-9.75,1.18-19.37-1.61-28.61-4.38Z" style="fill:#FFC727"></path><path d="M573.16,313.63c.25,1,7.09,4.64,9.69,8.82s13.44,41.89,14.74,44a20.3,20.3,0,0,0,4,4.26h-8.9s.68-10.66-1.18-15.39-10.23-30.67-11.71-32.43-5.41-4.77-8-5.12Z" style="fill:#FFC727"></path><path d="M573.16,313.63c.25,1,7.09,4.64,9.69,8.82s13.44,41.89,14.74,44a20.3,20.3,0,0,0,4,4.26h-8.9s.68-10.66-1.18-15.39-10.23-30.67-11.71-32.43-5.41-4.77-8-5.12Z" style="opacity:0.1"></path><path d="M574,316.6c-.74-1.85-4.08-19.32-7.6-22.5s-22.81-9.48-27.82-9.67-21.44,3-28.93,8.16c-2.41,1.67-14.28,4.82-20.58,9.09s-14.47,10.2-13.36,10.57,16.14,1.67,19.48,1.29,12.79-6.11,15.2-6.3,17.62,6.3,22.63,8.9,8.82,9.13,12.79,10.57C551.88,328.94,574,316.6,574,316.6Z" style="fill:#FFC727"></path><path d="M574,316.6c-.74-1.85-4.08-19.32-7.6-22.5s-22.81-9.48-27.82-9.67-21.44,3-28.93,8.16c-2.41,1.67-14.28,4.82-20.58,9.09s-14.47,10.2-13.36,10.57,16.14,1.67,19.48,1.29,12.79-6.11,15.2-6.3,17.62,6.3,22.63,8.9,8.82,9.13,12.79,10.57C551.88,328.94,574,316.6,574,316.6Z" style="opacity:0.1"></path><path d="M573.94,316.6h0c-.61.34-22.14,12.29-28.17,10.1-4-1.44-7.79-8-12.79-10.56s-20.21-9.09-22.63-8.91-11.87,5.94-15.2,6.31-18.36-.93-19.48-1.31c0,0,24.12-10.56,32.65-13s22.44-4.27,27.81-3.9,23.18,7.87,26.34,10.34S573.94,316.6,573.94,316.6Z" style="opacity:0.1"></path><path d="M561.68,305.18c-5.3.38-10.62.48-15.93.5-3.91.09-7.82,1.14-11.65,1.92l-3.9.82c5.06-1.75,10.12-3.5,15.56-3.74,5.31,0,10.62.11,15.92.5Z" style="fill:#FFC727"></path><path d="M554.44,301.58c-5.12-3.89-9.43-8.89-11.54-15,1.85,2.56,3.36,5.39,5.38,7.78s4.19,4.76,6.16,7.26Z" style="fill:#FFC727"></path><path d="M531.84,295.41c-5,2.12-11.27,4.21-16.3,6.26-2.14.94-7.18,3.65-9.33,4.74,7.41-5.91,16.53-8.83,25.63-11Z" style="fill:#FFC727"></path><path d="M518,297.13c-3.26,1.68-6.66,3.1-9.93,4.73s-5.91,4.2-8.93,6.26a46.62,46.62,0,0,1,6.08-5.67c3.82-2.65,8.36-4,12.78-5.32Z" style="fill:#FFC727"></path><path d="M524.34,296.15a11.72,11.72,0,0,1-4.86-3,12.45,12.45,0,0,1-1.5-3.12,20.35,20.35,0,0,1,2.2,2.48c1.35,1.23,2.88,2.21,4.16,3.62Z" style="fill:#FFC727"></path><path d="M484.48,308.46c8.75-3.76,17.44-8.16,26.78-10.3,8-1.68,16-3.56,24.21-3.33,5.28.58,10.25,2.84,15.11,4.8,3.52,1.53,7,3.08,10.42,4.86a45.61,45.61,0,0,1,8.52,7.72c-2.73-2.62-5.49-5.39-8.75-7.29-3.41-1.66-6.95-3.15-10.48-4.58-5.29-1.93-10.58-4.53-16.29-4.6a132.53,132.53,0,0,0-28.08,4.65c-7.23,2.4-14.32,5.32-21.44,8.07Z" style="fill:#FFC727"></path><path d="M573.94,316.6s-22.06,12.34-28.18,10.11c-4-1.44-7.79-8-12.79-10.56s-20.21-9.09-22.63-8.91-11.87,5.94-15.2,6.31-18.36-.93-19.48-1.31c0,0,13.49-.61,16.09-1.09s10.81-5.52,12.79-6.5,8-.68,9.51-.75,13.73-.37,16.88,0,16.88,11.32,19.66,12.7S568.39,316.88,573.94,316.6Z" style="fill:#FFC727"></path><path d="M573.94,316.6s-22.06,12.34-28.18,10.11c-4-1.44-7.79-8-12.79-10.56s-20.21-9.09-22.63-8.91-11.87,5.94-15.2,6.31-18.36-.93-19.48-1.31c0,0,13.49-.61,16.09-1.09s10.81-5.52,12.79-6.5,8-.68,9.51-.75,13.73-.37,16.88,0,16.88,11.32,19.66,12.7S568.39,316.88,573.94,316.6Z" style="opacity:0.1"></path><path d="M608.28,322.45c1.85-5.75,2.6-27.82,4.45-35.79s19.84-22.26,28.19-26.34,35.23-4.82,41.54-5.19,10.57-2.6,11.68-2.41-29.8,19.66-43,29.11-31.37,24.48-35.27,28.93A70,70,0,0,0,608.28,322.45Z" style="fill:#FFC727"></path><path d="M608.28,322.45c1.85-5.75,2.6-27.82,4.45-35.79s19.84-22.26,28.19-26.34,35.23-4.82,41.54-5.19,10.57-2.6,11.68-2.41-29.8,19.66-43,29.11-31.37,24.48-35.27,28.93A70,70,0,0,0,608.28,322.45Z" style="opacity:0.1"></path><path d="M609.71,313.63c-.29,2.51-8.57,18.74-10.7,24.3s-4.82,28.91-5.29,29.93a13.56,13.56,0,0,1-2.78,2.87h7.42s.47-2.54,1.08-5.73,1.36-18.07,1.92-20.63c1.12-5.1,9.2-25.75,12.28-30.74Z" style="fill:#FFC727"></path><path d="M609.71,313.63c-.29,2.51-8.57,18.74-10.7,24.3s-4.82,28.91-5.29,29.93a13.56,13.56,0,0,1-2.78,2.87h7.42s.47-2.54,1.08-5.73,1.36-18.07,1.92-20.63c1.12-5.1,9.2-25.75,12.28-30.74Z" style="opacity:0.1"></path><path d="M593.22,275.65c2.56-.45,7.81-5.39,14.7-8.12s20.55-5.75,24-2.7-5.77,25-15.37,30.23-22.94,14.56-26.72,17.84-4.52,5.16-6.45,4.5c-2.34-.79-.56-12.72-6.15-17.29s-16.08-13.36-18.29-17.92-2.63-14.81-.89-18.27,8.4-9.05,13.46-8.91S591.8,275.9,593.22,275.65Z" style="fill:#FFC727"></path><path d="M593.22,275.65c2.56-.45,7.81-5.39,14.7-8.12s20.55-5.75,24-2.7-5.77,25-15.37,30.23-22.94,14.56-26.72,17.84-4.52,5.16-6.45,4.5c-2.34-.79-.56-12.72-6.15-17.29s-16.08-13.36-18.29-17.92-2.63-14.81-.89-18.27,8.4-9.05,13.46-8.91S591.8,275.9,593.22,275.65Z" style="opacity:0.1"></path><path d="M616.51,295.06c-9.6,5.26-22.94,14.56-26.72,17.84-3.08,2.67-4.14,4.41-5.47,4.62h0l-1-.11s3.65-12,5.56-18.09,4-19.77,4.32-23.67c2.56-.45,7.81-5.39,14.7-8.12s20.54-5.75,24-2.7S626.11,289.8,616.51,295.06Z" style="opacity:0.1"></path><path d="M593.22,275.65c-.62,7.74-1.35,15.62-3.71,23.05-1.36,4.27-2.93,9.05-4.51,13.26.34-1.53.75-3,1.12-4.54,1.09-4.37,2.64-9.12,3.68-13.46,1.26-5.86,2.27-12.39,3.42-18.31Z" style="fill:#FFC727"></path><path d="M592.22,282.58c-3.2-3.29-7.83-8.47-11-11.89A48.21,48.21,0,0,0,572,263l-3.33-2.32A59.57,59.57,0,0,1,579,267.14c5,4.59,9.13,10,13.18,15.44Z" style="fill:#FFC727"></path><path d="M591.22,289.18a174,174,0,0,1,15.3-11.45,43.69,43.69,0,0,1,17.69-7.13c-1.53.46-3,.94-4.53,1.5-7.56,2.53-13.94,7.4-20.52,11.78-2,1.34-5.95,4-7.94,5.3Z" style="fill:#FFC727"></path><path d="M590.38,292.92c7.47-6.37,15.24-13.34,25.32-14.59-1.17.38-2.34.76-3.48,1.2a38.14,38.14,0,0,0-9.66,5.08c-3.58,2.45-8.58,6-12.18,8.31Z" style="fill:#FFC727"></path><path d="M589.21,297.61c-3.78-4.38-7.14-9.14-11-13.42a83.39,83.39,0,0,0-8-6.62,40.74,40.74,0,0,1,8.66,5.95,84,84,0,0,1,10.35,14.09Z" style="fill:#FFC727"></path><rect x="562.15" y="370.73" width="65.21" height="65.21" style="fill:#37474f"></rect><polygon points="562.15 435.94 612.59 423.07 621.62 370.74 627.36 370.74 627.36 435.94 562.15 435.94" style="opacity:0.1"></polygon><rect x="551.17" y="387.96" width="10.98" height="78.3" style="fill:#FFC727"></rect><rect x="551.17" y="387.96" width="10.98" height="78.3" style="fill:#fff;opacity:0.5"></rect><rect x="627.36" y="387.96" width="10.98" height="78.3" style="fill:#FFC727"></rect><rect x="627.36" y="387.96" width="10.98" height="78.3" style="fill:#fff;opacity:0.5"></rect><rect x="589.26" y="387.96" width="10.98" height="78.3" style="fill:#FFC727"></rect><rect x="589.26" y="387.96" width="10.98" height="78.3" style="fill:#fff;opacity:0.5"></rect><rect x="562.15" y="435.94" width="65.21" height="4.21" style="fill:#FFC727"></rect><rect x="562.15" y="435.94" width="65.21" height="4.21" style="fill:#fff;opacity:0.5"></rect><rect x="562.15" y="435.94" width="5.19" height="4.21" style="opacity:0.1"></rect><rect x="584.07" y="435.94" width="5.19" height="4.21" style="opacity:0.1"></rect><rect x="600.25" y="435.94" width="5.19" height="4.21" style="opacity:0.1"></rect><rect x="622.17" y="435.94" width="5.19" height="4.21" style="opacity:0.1"></rect></g><g id="freepik--plant-2--inject-110"><rect x="304.57" y="94.11" width="152.46" height="2" transform="translate(197.86 442.36) rotate(-76.24)" style="fill:#263238"></rect><rect x="423.48" y="18.88" width="2" height="152.46" transform="translate(-10.44 103.59) rotate(-13.75)" style="fill:#263238"></rect><rect x="401.45" y="21.06" width="2" height="148.09" style="fill:#263238"></rect><path d="M402.45,23.39a6.77,6.77,0,1,1,6.76-6.77A6.77,6.77,0,0,1,402.45,23.39Zm0-10.53a3.77,3.77,0,1,0,3.76,3.76A3.77,3.77,0,0,0,402.45,12.86Z" style="fill:#FFC727"></path><rect x="401.45" width="2" height="13.22" style="fill:#263238"></rect><path d="M443.94,169.15l-7.44,56.58a13.45,13.45,0,0,1-13.31,11.48H382.44a13.47,13.47,0,0,1-11.22-6,13.67,13.67,0,0,1-2.09-5.45l-7.44-56.58Z" style="fill:#FFC727"></path><polygon points="443.94 169.15 436.8 223.47 368.82 223.47 361.69 169.15 443.94 169.15" style="fill:#fff;opacity:0.6000000000000001"></polygon><rect x="365.03" y="204.61" width="75.56" height="2" style="fill:#FFC727"></rect><polygon points="384.36 237.26 368.57 169.55 370.52 169.09 384.36 228.45 398.19 169.09 400.14 169.55 384.36 237.26" style="fill:#FFC727"></polygon><polygon points="421.26 237.26 405.48 169.55 407.43 169.09 421.26 228.45 435.1 169.09 437.05 169.55 421.26 237.26" style="fill:#FFC727"></polygon><path d="M443.94,169.15l-7.44,56.58a13.45,13.45,0,0,1-13.31,11.48H382.44a13.47,13.47,0,0,1-11.22-6,13.67,13.67,0,0,1-2.09-5.45l-.3-2.26,59.73-10Z" style="opacity:0.1"></path><path d="M443.24,129.3c2.81,3.7,6.62,6.78,8.22,11.31,2.53,6.69,1.64,13.94,1.41,20.89a21.44,21.44,0,0,0,.12,3.39l.14,1.69.3,1.68c2,11.37,8.11,21.49,13.33,31.68,1.08,2.06,2.06,4.18,3,6.32,1.78,4.35,2.19,9.07,2.69,13.7,1,12.72,2,25.84-1.17,38.35-5,14.1-12.12,27.72-13.1,42.81-.42,6.83.25,13.79,4.09,19.59a137.54,137.54,0,0,1,10.6,18l-.17.1c-2.36-4-4.8-7.95-7.43-11.74s-5.88-7.43-7.36-12c-2.88-9.13-1.78-18.93.61-28s6.28-17.57,9.83-26.15a45.63,45.63,0,0,0,3.08-13.26,144.87,144.87,0,0,0-.46-34.57c-.92-7-5-12.82-8.39-18.83-5-8.52-9.87-17.5-11.17-27.5a43.11,43.11,0,0,1-.22-5.33c.31-6.89,1.5-13.84-.7-20.5-1.37-4.45-4.93-7.7-7.39-11.55l.16-.12Z" style="fill:#263238"></path><path d="M470.76,256.72a26.87,26.87,0,0,0,2.5,13.72,13.53,13.53,0,0,1-2.5-13.72Z" style="fill:#263238"></path><path d="M469.11,205.61c1.89,1.64,3,4,4.34,6a19.85,19.85,0,0,0,5,5.18c-5.2-1.53-7-6.91-9.38-11.21Z" style="fill:#263238"></path><path d="M452.8,170.24a50.65,50.65,0,0,0-10.14-5c-7.22-2.25-15-1-22.32.3-3.77.71-7.71,1.93-11.54.86-3.74-.89-7.28-2.22-11.05-2.9a85,85,0,0,0-33.84.91l-.06-.19c14.37-6,31.08-5.09,45.24,1.12,3.64,1.37,7.45.38,11.11-.44,7.4-1.85,15.48-4.24,23-1.12a32.61,32.61,0,0,1,9.75,6.33l-.12.16Z" style="fill:#263238"></path><path d="M453.34,185.16s9.67-7.81,17.16-.08c9,9.23-2.68,34.4-2.68,34.4-8,0-35-11-25.17-29.26C445.08,185.71,453.34,185.16,453.34,185.16Z" style="fill:#37474f"></path><path d="M453.34,185.16s9.67-7.81,17.16-.08c9,9.23-2.68,34.4-2.68,34.4-8,0-35-11-25.17-29.26C445.08,185.71,453.34,185.16,453.34,185.16Z" style="opacity:0.1"></path><path d="M453.34,185.16a91.51,91.51,0,0,1,14.09,32.77,217.59,217.59,0,0,0-14.09-32.77Z" style="fill:#263238"></path><path d="M477.89,143.73s-3.4-7.85,4.07-12.21,26.29,8.71,26.29,8.71a28.3,28.3,0,0,1-10.87,15.48c-7.38,5.45-15.39,3.36-18.71-1.15S477.89,143.73,477.89,143.73Z" style="fill:#37474f"></path><path d="M477.89,143.73s-3.4-7.85,4.07-12.21,26.29,8.71,26.29,8.71a28.3,28.3,0,0,1-10.87,15.48c-7.38,5.45-15.39,3.36-18.71-1.15S477.89,143.73,477.89,143.73Z" style="opacity:0.1"></path><path d="M477.89,143.73c7.73-4.2,16.83-3.47,25.32-3.14,1.22.07,2.44.11,3.66.07-9.63,1.38-19.66-.46-29,3.07Z" style="fill:#263238"></path><path d="M369.18,160.11s-8,4.71-17.56-3.54-5.41-24.47,1-36.32c0,0,19,2.37,25.47,14.54C384.41,146.65,380.57,156.89,369.18,160.11Z" style="fill:#37474f"></path><path d="M369.18,160.11s-8,4.71-17.56-3.54-5.41-24.47,1-36.32c0,0,19,2.37,25.47,14.54C384.41,146.65,380.57,156.89,369.18,160.11Z" style="opacity:0.1"></path><path d="M369.18,160.11A144.76,144.76,0,0,0,353.65,122c1,1.41,2,2.83,2.92,4.28,6.36,10.26,11,21.79,12.61,33.79Z" style="fill:#263238"></path><path d="M457.9,178.11s-8.89-7.18-2.46-20.26,27.07-13.42,42.14-9.65c0,0,2.84,21.91-8.86,32.59C477.3,191.21,464.77,189.88,457.9,178.11Z" style="fill:#37474f"></path><path d="M457.9,178.11A110.88,110.88,0,0,1,474.16,161a71.25,71.25,0,0,1,20.74-11.16c-1.78.82-3.55,1.67-5.28,2.58a83.47,83.47,0,0,0-14.83,9.35,191.2,191.2,0,0,0-16.89,16.31Z" style="fill:#263238"></path><path d="M429.3,163.5s-9.75,4.21-17.29-1.33-8-16-7.2-24.39,4.54-21.5,4.54-21.5,15.07,6.77,22.61,14c7.32,7,10.31,12.85,9.2,21.83C440,161.5,429.3,163.5,429.3,163.5Z" style="fill:#37474f"></path><path d="M429.3,163.5c-6.31-14.18-12.94-29.9-18.56-44.37A398.45,398.45,0,0,1,429.3,163.5Z" style="fill:#263238"></path><path d="M349.33,139.78s-8.76-10.42-21.06-4.77-10.75,40.57-10.75,40.57,12.58,4.61,29.26-1.22c14.91-5.21,18.51-12.91,15.74-23.83C360.39,142.12,349.33,139.78,349.33,139.78Z" style="fill:#37474f"></path><path d="M319.48,173.47c5.23-12.73,15.7-30.07,29.85-33.69a25.9,25.9,0,0,0-5.17,2.48c-11.28,7.34-18.41,19.62-24.68,31.21Z" style="fill:#263238"></path><path d="M363.88,164.29s-1.29-10.33-15-10.66S330,168.48,326.92,179.46s-4.76,20.66-7,22.68c0,0,14.64,1.76,29-1.7,12.78-3.08,20.62-10,22.72-18.24S371.71,167.76,363.88,164.29Z" style="fill:#455a64"></path><path d="M363.88,164.29c-14.33,5.92-25.83,17.14-35.22,29.23-1.35,1.75-2.6,3.57-3.94,5.34q1.72-2.84,3.54-5.63c8.84-12.57,20.72-24.15,35.62-28.94Z" style="fill:#263238"></path><path d="M403.48,164.05s-1.11-13-11-16.51-26.82,7.67-26.82,7.67,2,9.62,14.74,14.5S403.48,164.05,403.48,164.05Z" style="fill:#37474f"></path><path d="M368.53,155.32c10.31-2.41,22.68-3.2,30.94,4.66a22,22,0,0,1,3,3.55c-8.74-10.26-21.74-9.58-33.92-8.21Z" style="fill:#263238"></path><path d="M399.93,163.5s-6.32-4.21-12.31-3.33-12.52,11.42-12.3,26.72a116.66,116.66,0,0,0,15-3.66c5.73-1.94,16-4,17.29-10.42S399.93,163.5,399.93,163.5Z" style="fill:#455a64"></path><path d="M399.93,163.5c-7.39.91-14,9.36-18.48,14.85-1.68,2.13-3.24,4.36-4.88,6.54.64-1.2,1.34-2.37,2-3.56,4.27-6.84,12.49-17.89,21.34-17.83Z" style="fill:#263238"></path><path d="M443.16,129.36C435,126.7,430,119.49,430,108.63c0-9.77,10.39-23.61,16.71-28,0,0,11.86,13.41,12.41,26.38S443.16,129.36,443.16,129.36Z" style="fill:#455a64"></path><path d="M443.16,129.36c-5-15.16-2.78-30.62,2.66-45.31-.47,1.86-.95,3.72-1.37,5.59a122,122,0,0,0-3,16.94c-.75,7.6.16,15.31,1.67,22.78Z" style="fill:#263238"></path><path d="M451.36,142.77s1.66-10.42,6.54-16.18,25.61-8.21,25.61-8.21S471.09,142,451.36,142.77Z" style="fill:#455a64"></path><path d="M451.36,142.77c2.44-5.88,5.32-12.1,10.76-15.84,5.58-3.32,11.79-5.17,18-6.68-1.51.55-3,1.08-4.5,1.66a78.13,78.13,0,0,0-13,5.86c-5.19,3.53-8.25,9.62-11.29,15Z" style="fill:#263238"></path><path d="M440.55,177.38s-6.32-5.48-14.31-2-9.22,22.17-5.81,39c0,0,12.22-6.57,19.07-16.67S444.72,181.54,440.55,177.38Z" style="fill:#37474f"></path><path d="M435.48,175.47c-7.29,10.92-11,23.73-13.84,36.43.17-1.63.39-3.26.62-4.89,2-11.25,5.77-22.69,13.22-31.54Z" style="fill:#263238"></path><path d="M475.17,214.21s.83,12.39,10.89,19.87,28.68,1.5,28.68,1.5-9.52-14.38-19.25-19.2S475.17,214.21,475.17,214.21Z" style="fill:#455a64"></path><path d="M475.17,214.21c7,1.26,13.53,4.33,19.54,8a126.1,126.1,0,0,1,17,12.55c-1.44-1-2.87-2.05-4.33-3-10.14-6.84-20.39-14-32.25-17.53Z" style="fill:#263238"></path><path d="M472.69,228.89l-22,9.17s2.12,9.51,10.84,9.77S472.69,228.89,472.69,228.89Z" style="fill:#455a64"></path><path d="M472.87,268.61s-10.73,5.65-8.32,14.55S476,294.38,486.08,294.3,509.61,288,509.61,288s-5.49-6-11.06-12S488.18,264.22,483,263.37C475.94,262.21,472.87,268.61,472.87,268.61Z" style="fill:#455a64"></path><path d="M472.87,268.61c6.59.38,11.7,5,16.75,8.77a94.16,94.16,0,0,0,12,7.6c1.4.74,2.85,1.39,4.32,2-6.17-1.69-11.77-5.09-17-8.79-5-3.74-9.75-8.44-16.16-9.58Z" style="fill:#263238"></path><path d="M457.65,292.72s-6.73-6.07-15.63-.33-10.47,20.7-10.47,37.41c0,0,14.55,3.16,28.6-8.07S472.49,293.53,457.65,292.72Z" style="fill:#455a64"></path><path d="M457.65,292.72c-10.37,9.78-17.93,22.17-23.6,35.17,4.38-13.54,12.27-26.39,23.6-35.17Z" style="fill:#263238"></path><path d="M464.5,325.06s-3.22,10.2,0,16.74,18.62,10.64,18.62,10.64-1.55-10.59-4.21-14.86S464.5,325.06,464.5,325.06Z" style="fill:#455a64"></path><path d="M445.27,146.14s-8.76-2.37-13.08,4.5-1.78,16.17,3.65,22.83,11.86,20.62,11.86,20.62,12.44-8.52,16.52-21.61c4.88-15.63,1-22.61-5.32-26.34C452.84,142.56,445.27,146.14,445.27,146.14Z" style="fill:#455a64"></path><path d="M445.16,146.84c-1.89,15.06,7.64,29.79,3,44.7,3.21-15-6.31-29.66-3-44.7Z" style="fill:#263238"></path></g><g id="freepik--plant-1--inject-110"><path d="M129.2,308.48c1.12-3,3.12-18.56,3.66-27.87s-4.61-21.08-9.14-27.13-6.88-7.14-8.27-12.86-5.11-13.15-11.72-20.5-10.34-10-14.22-9.42-3.86,9.63-4.44,11.43-6.6,6.47-5.42,13.46,3.19,9.59,3.18,11.94-2.74,5.79-.73,11.55,12.2,10.88,14.48,14,6,11.6,10.25,16,11.49,7.95,14.56,11.21S129.2,308.48,129.2,308.48Z" style="fill:#FFC727"></path><path d="M129.2,308.48c1.12-3,3.12-18.56,3.66-27.87s-4.61-21.08-9.14-27.13-6.88-7.14-8.27-12.86-5.11-13.15-11.72-20.5-10.34-10-14.22-9.42-3.86,9.63-4.44,11.43-6.6,6.47-5.42,13.46,3.19,9.59,3.18,11.94-2.74,5.79-.73,11.55,12.2,10.88,14.48,14,6,11.6,10.25,16,11.49,7.95,14.56,11.21S129.2,308.48,129.2,308.48Z" style="opacity:0.1"></path><g style="opacity:0.2"><path d="M128.6,304.52C123.53,289.69,118,275,110.48,261.23c-4.8-10.82-7.74-22.22-11.46-33.4a60.74,60.74,0,0,0-3.77-9.53l-.77-1.25c2.32,3.18,3.59,7,5,10.62,4,11,7.08,22.47,11.9,33.14,7.46,13.82,12.9,28.63,17.21,43.71Z"></path><path d="M125.67,264.05a54.77,54.77,0,0,1-.36,30.51c.15-1.27.33-2.54.46-3.82a94,94,0,0,0-.1-26.69Z"></path><path d="M100.09,271.11c4.53,4.44,8.55,9.48,13.32,13.63a38,38,0,0,0,6.68,3.52c1.16.53,2.35,1,3.53,1.5a35.62,35.62,0,0,1-10.76-4.25c-5-4.12-8.9-9.28-12.77-14.4Z"></path><path d="M112.92,244.54c2,7.36,3,15.32,1.31,22.85.26-7.67-.61-15.21-1.31-22.85Z"></path><path d="M85.38,233.28C91,239.47,96.89,245.55,104,249.9c1,.68,2.09,1.15,3.14,1.75-9.2-3.1-16.51-10.43-21.8-18.37Z"></path><path d="M89.47,228.21c4.34,5.08,8.52,10.53,14.46,13.82-6.58-2-11.29-8-14.46-13.82Z"></path></g><path d="M148.19,369.59H151s-4-14.87-8.67-28.82c-5.65-16.76-12.22-29.15-12.43-35.2l-2.68.85s9.44,21.73,12.74,33.72S148.19,369.59,148.19,369.59Z" style="fill:#FFC727"></path><path d="M148.19,369.59H151s-4-14.87-8.67-28.82c-5.65-16.76-12.22-29.15-12.43-35.2l-2.68.85s9.44,21.73,12.74,33.72S148.19,369.59,148.19,369.59Z" style="opacity:0.1"></path><path d="M162.93,310a215.73,215.73,0,0,0-2.91-23.1c-.91-4.68,1-20.53,3.11-27.94s11.3-29.47,16-33.2,27-16.82,36.81-16.86,8.08,8.86,5.69,15.06-10.18,15.83-12.82,21.28-9.17,29.59-12.54,36.44-8.57,17.88-13.11,21.09S166.21,307.19,162.93,310Z" style="fill:#FFC727"></path><path d="M162.93,310a215.73,215.73,0,0,0-2.91-23.1c-.91-4.68,1-20.53,3.11-27.94s11.3-29.47,16-33.2,27-16.82,36.81-16.86,8.08,8.86,5.69,15.06-10.18,15.83-12.82,21.28-9.17,29.59-12.54,36.44-8.57,17.88-13.11,21.09S166.21,307.19,162.93,310Z" style="opacity:0.1"></path><g style="opacity:0.2"><path d="M217.34,212a80.8,80.8,0,0,0-11.21,8.64c-5.28,4.68-10.57,9.48-15,15-3.9,5.84-6.79,12.41-9.85,18.74a117.73,117.73,0,0,0-5.52,13c-2.39,7.91-5.87,19.12-8.37,27.11l-4,13.61L167,294.38c2.36-8.1,5.58-19.3,8-27.25A117.78,117.78,0,0,1,180.41,254c3.15-6.4,6.05-12.92,10.07-18.84,4.49-5.56,9.92-10.23,15.33-14.85,3.68-3,7.34-6,11.53-8.27Z"></path><path d="M214.24,228.58c-4.53,4.76-9.72,9.55-16.36,11-1.9.54-5.71,1.67-7.59,2.23-1.28.35-2.54.74-3.82,1.08a137.9,137.9,0,0,1,14.85-5.4c4.73-2.16,8.85-5.65,12.92-8.87Z"></path><path d="M182.5,227.74c-1,4-2,10.08-2.87,14.13-.24,1.22-.84,4.09-1,5.28a13.78,13.78,0,0,0,.51,5.21c.26,1.16.62,2.31,1,3.46a21.37,21.37,0,0,1-2.34-6.89c-.27-2.44.5-4.87.88-7.26a82.58,82.58,0,0,1,3.85-13.93Z"></path><path d="M195.47,262.85A64.63,64.63,0,0,1,184,274.05c-2.83,1.66-6.26,3.34-9.21,4.83-1.14.53-2.26,1.09-3.41,1.6,1-.71,2.12-1.35,3.18-2,2.79-1.72,6.08-3.59,8.9-5.22,3.83-2.73,8.47-7.24,12.06-10.38Z"></path><path d="M198.62,271.69c-4.18,4.92-8.78,10.27-14.91,12.76-3.21,1.05-7.17,2.21-10.44,3.16-1.4.37-2.8.77-4.21,1.12,1.34-.56,2.71-1.06,4.06-1.59,3.2-1.17,7.06-2.56,10.27-3.61,6-2.54,10.48-7.56,15.23-11.84Z"></path></g><path d="M164.48,308.35c-1.07,1.77-3.75,13.34-5.25,25.88-2,16.77-2.73,35.36-2.73,35.36h-4s2.57-26,4.32-37.29,6.25-24.94,6.25-24.94Z" style="fill:#FFC727"></path><path d="M164.48,308.35c-1.07,1.77-3.75,13.34-5.25,25.88-2,16.77-2.73,35.36-2.73,35.36h-4s2.57-26,4.32-37.29,6.25-24.94,6.25-24.94Z" style="opacity:0.1"></path><path d="M169.54,339.9c-5.15,10.31-6.75,29.69-6.75,29.69h-3.56s3.64-17.83,5.16-22.79c1.7-5.58,2.31-8.39,2.31-8.39Z" style="fill:#FFC727"></path><path d="M167.47,340.79a106.59,106.59,0,0,0-4.34-11.61c-1.24-2.77-3.55-10.34-3-14.36s10.06-12.5,11.94-14.08,8.28-3.26,10.16-8,1.18-10.06,4.63-13.51,15.39-6,19.14-7.89,8.48-5.33,13.41-5.53,14.8-.89,19.63,1.28,12.73,8,12,10.95-3.94,3.16-5.81,5.82-10.16,16.28-19.14,27.23-19,17.14-23.28,18.08-8.48.85-11.74,2.53-4.24,4-9.07,5.72-9.57,1.78-11.54,2.17A8.47,8.47,0,0,0,167.47,340.79Z" style="fill:#FFC727"></path><path d="M167.48,340.77a8.8,8.8,0,0,1,3.05-1.17c2-.39,6.71-.39,11.54-2.17s5.82-4,9.08-5.71,7.49-1.59,11.73-2.53,14.3-7.15,23.28-18.09c7.6-9.28,14.71-20.47,17.84-25.29-3.47,5-17.57,21.72-21.29,24.2s-20,7.8-24.36,9.47-9.68,9.76-13.42,13S169.57,338.21,167.48,340.77Z" style="fill:#FFC727"></path><path d="M167.48,340.77a8.8,8.8,0,0,1,3.05-1.17c2-.39,6.71-.39,11.54-2.17s5.82-4,9.08-5.71,7.49-1.59,11.73-2.53,14.3-7.15,23.28-18.09c7.6-9.28,14.71-20.47,17.84-25.29-3.47,5-17.57,21.72-21.29,24.2s-20,7.8-24.36,9.47-9.68,9.76-13.42,13S169.57,338.21,167.48,340.77Z" style="opacity:0.2"></path><g style="opacity:0.2"><path d="M248.45,275.93a75,75,0,0,0-13.24,3.38,213.94,213.94,0,0,0-25.41,10.1,56.06,56.06,0,0,0-11.57,7.06A129.43,129.43,0,0,0,175.75,322c-3.21,6-5.63,12.48-8.27,18.76,2.37-6.44,4.59-12.95,7.73-19.08a121.88,121.88,0,0,1,22.38-26c7.25-5.74,16-9.1,24.47-12.45,8.58-3.05,17.29-6.34,26.39-7.32Z"></path><path d="M222.31,303.9c-2.95,1.88-6.45,2.71-9.77,3.74-9.7,2.91-20.89,3.9-30.88,5.65,10.07-2.88,20.53-3.83,30.69-6.39,3.35-.86,6.83-1.5,10-3Z"></path><path d="M205.62,277.56c-4.33,3.83-7.67,8.66-11.11,13.26-2.71,3.42-4.3,7.43-5.67,11.53l-1.46,4.11c1.23-5.68,2.63-11.56,6.31-16.22,3.49-4.61,7.09-9.41,11.93-12.68Z"></path><path d="M173.78,308.59c-1.61,7.38-1.4,15-2.47,22.45a72.9,72.9,0,0,1,.07-11.35c.4-3.75.71-7.67,2.4-11.1Z"></path><path d="M215.31,271.94c-2.74,3.43-11.2,13.55-13.69,16.89-1.81,2.74-3.37,5.66-5.12,8.44,1.62-3.62,3.15-7.38,5.55-10.57a121.38,121.38,0,0,1,13.26-14.76Z"></path><path d="M231.19,285.81c-3.72,2.15-7.93,3.25-12.08,4.27-4.26.84-8.54.69-12.84.59,1.06-.17,2.12-.27,3.18-.41l6.35-.66a91,91,0,0,0,15.39-3.79Z"></path></g><path d="M139.18,351.83a24,24,0,0,1-.89-11.06c.59-5.06,3.28-10.39.31-14.68s-9.34-7.1-10.52-9.91-4.73-10.36-11.69-15.54S101,291.91,96.57,288.51s-9.92-9.62-12.88-7.4,2.67,22.11,5.33,24.44,7,19.5,11.39,22.31,8.44,3.11,9.47,4.3,3.4,5.17,7.1,6.51a113.69,113.69,0,0,1,16.13,7.84A23.76,23.76,0,0,1,139.18,351.83Z" style="fill:#FFC727"></path><g style="opacity:0.2"><path d="M139.18,351.83c-5.86-9.13-12.05-18.05-18.68-26.63-11.28-14.13-24-27.12-34.14-42.17,8.84,11.48,18.45,22.27,28,33.15a236.32,236.32,0,0,1,24.8,35.65Z"></path><path d="M130,337.31a118,118,0,0,1-26.49-13c8.59,4,18,8.74,26.49,13Z"></path><path d="M122.9,308.59A47.58,47.58,0,0,1,125.48,331a190.72,190.72,0,0,0-2.58-22.45Z"></path><path d="M113.58,299.62c2.61,6.3,4.16,13.35,3.18,20.17-.42-6.84-1.89-13.44-3.18-20.17Z"></path><path d="M87.24,298.18c6.28,3.48,13.17,7.08,19.65,10.17a51.84,51.84,0,0,1-19.65-10.17Z"></path></g><path d="M138.37,348.43c4,8.34,7.76,21.16,7.76,21.16h-2s-3.57-15-7.07-20Z" style="fill:#FFC727"></path><path d="M146.88,317.66a28.68,28.68,0,0,1,7.4-15.24c4.44-4.74,12.13-12.14,14.5-26.64s-2.57-28.09-3.55-31.51-3.26-8.14-4.89-8.43-5.17,1.62-8.13,1.92-8.88.3-14.06,7.4-12,11.83-15.83,22.34-3,28.85,4,34.47,13.62,7.25,16.58,10.06A16.68,16.68,0,0,1,146.88,317.66Z" style="fill:#FFC727"></path><g style="opacity:0.2"><path d="M158.42,237.61c-4.55,4.93-6.72,11.51-9.07,17.67-2.14,6.27-4.32,12.66-5.29,19.22a163.74,163.74,0,0,0-1.27,19.94,40,40,0,0,0,.69,9.91,79.34,79.34,0,0,0,2.81,9.61,69.68,69.68,0,0,1-3.29-9.5c-1.54-6.57-.94-13.39-.79-20.07.15-10.13,2.77-20,6.42-29.38,2.52-6.11,4.9-12.74,9.79-17.4Z"></path><path d="M166.36,260.1c-2.65,3.94-6.38,7-10.16,9.87a32,32,0,0,1-12.84,6c1.09-.47,2.18-.92,3.24-1.42a39.77,39.77,0,0,0,9-5.35,76.85,76.85,0,0,0,10.75-9.06Z"></path><path d="M139.33,246.05c.47,3,1,7.39,1.62,10.35.67,3.42,2.55,6.39,4.63,9.16-6-4.67-6.68-12.46-6.25-19.51Z"></path><path d="M124.54,269.57c1.93,4.74,4.52,11.45,6.61,16a23.57,23.57,0,0,0,7.9,9.9c1.09.93,2.25,1.81,3.41,2.68-3.77-2.18-7.55-4.67-10.16-8.27-3.66-6.31-5.82-13.35-7.76-20.34Z"></path><path d="M161.82,283c-4,7-10.35,18.54-18.46,20.87a12.46,12.46,0,0,0,3-1.82c4.62-3.62,7.76-8.71,11.28-13.35,1-1.43,3.13-4.29,4.19-5.7Z"></path><path d="M131.05,275.78c2.13,3.69,3.88,7.52,6,11.19,1.2,2.28,3.24,3.67,5.37,5a14.31,14.31,0,0,1-4.51-2.47,17,17,0,0,1-3-4.31,54.41,54.41,0,0,1-3.88-9.45Z"></path></g><path d="M153.54,369.59h2.76s-10.16-41-8.72-55.18l-1.75,1.23S145.83,339.41,153.54,369.59Z" style="fill:#FFC727"></path><polygon points="133.45 418.73 176.28 418.73 181.05 369.59 128.67 369.59 133.45 418.73" style="fill:#37474f"></polygon><polygon points="181.06 369.58 179.81 382.47 129.93 382.47 128.68 369.58 181.06 369.58" style="fill:#fff;opacity:0.9"></polygon><polygon points="179.81 382.47 178.56 395.35 131.18 395.35 129.93 382.47 179.81 382.47" style="fill:#FFC727"></polygon><polygon points="133.45 418.73 164.48 406.93 176.03 369.59 181.05 369.59 176.28 418.73 133.45 418.73" style="opacity:0.1"></polygon><rect x="117.33" y="418.73" width="74.88" height="10.91" style="fill:#FFC727"></rect><rect x="117.33" y="418.73" width="74.88" height="10.91" style="opacity:0.4"></rect><polygon points="123.55 466.26 117.96 466.26 127.72 429.63 141.11 429.63 123.55 466.26" style="fill:#FFC727"></polygon><polygon points="123.55 466.26 117.96 466.26 127.72 429.63 141.11 429.63 123.55 466.26" style="opacity:0.4"></polygon><polygon points="127.72 429.63 126.36 434.71 139.49 433 141.11 429.63 127.72 429.63" style="opacity:0.1"></polygon><polygon points="185.99 466.26 191.58 466.26 181.82 429.63 168.42 429.63 185.99 466.26" style="fill:#FFC727"></polygon><polygon points="185.99 466.26 191.58 466.26 181.82 429.63 168.42 429.63 185.99 466.26" style="opacity:0.4"></polygon><polygon points="181.82 429.63 183.17 434.71 170.04 433 168.42 429.63 181.82 429.63" style="opacity:0.1"></polygon><polygon points="158.25 466.26 151.28 466.26 148.58 429.63 160.95 429.63 158.25 466.26" style="fill:#FFC727"></polygon><polygon points="158.25 466.26 151.28 466.26 148.58 429.63 160.95 429.63 158.25 466.26" style="opacity:0.4"></polygon><polygon points="148.82 432.88 148.58 429.63 160.95 429.63 160.71 432.88 148.82 432.88" style="opacity:0.1"></polygon></g><g id="freepik--Floor--inject-110"><path d="M62.72,466.26c200.07-.61,424.49-.62,624.56,0-200.07.61-424.49.61-624.56,0Z" style="fill:#263238"></path></g></svg>
