<svg xmlns="http://www.w3.org/2000/svg" viewBox="0 0 500 500"><g id="freepik--background-complete--inject-35"><path d="M250,359.71a117.9,117.9,0,1,1,117.89-117.9A118,118,0,0,1,250,359.71ZM250,125A116.84,116.84,0,1,0,366.84,241.81,117,117,0,0,0,250,125Z" style="fill:#ebebeb"></path><path d="M250,346.93A105.12,105.12,0,1,1,355.12,241.81,105.24,105.24,0,0,1,250,346.93Zm0-209.18A104.06,104.06,0,1,0,354.06,241.81,104.18,104.18,0,0,0,250,137.75Z" style="fill:#ebebeb"></path><rect x="180.42" y="61.19" width="1.06" height="19.44" transform="translate(-13.39 72.95) rotate(-22)" style="fill:#ebebeb"></rect><rect x="193.3" y="86.75" width="1.06" height="32.07" transform="translate(-24.39 80.1) rotate(-22)" style="fill:#ebebeb"></rect><rect x="79.8" y="160.07" width="1.06" height="19.44" transform="translate(-107.35 177.39) rotate(-67)" style="fill:#ebebeb"></rect><rect x="111.45" y="167.19" width="1.06" height="32.07" transform="translate(-100.43 214.71) rotate(-67)" style="fill:#ebebeb"></rect><rect x="69.38" y="310.33" width="19.44" height="1.06" transform="translate(-110.69 52.27) rotate(-22)" style="fill:#ebebeb"></rect><rect x="94.94" y="297.45" width="32.07" height="1.06" transform="translate(-103.55 63.27) rotate(-22)" style="fill:#ebebeb"></rect><rect x="168.26" y="410.95" width="19.44" height="1.06" transform="translate(-270.33 414.53) rotate(-67)" style="fill:#ebebeb"></rect><rect x="175.38" y="379.31" width="32.07" height="1.06" transform="translate(-233.02 407.62) rotate(-67)" style="fill:#ebebeb"></rect><rect x="318.52" y="402.99" width="1.06" height="19.44" transform="translate(-131.37 149.57) rotate(-22)" style="fill:#ebebeb"></rect><rect x="305.64" y="364.8" width="1.06" height="32.07" transform="translate(-120.37 142.43) rotate(-22)" style="fill:#ebebeb"></rect><rect x="419.14" y="304.11" width="1.06" height="19.44" transform="translate(-33.19 577.52) rotate(-67)" style="fill:#ebebeb"></rect><rect x="387.49" y="284.36" width="1.06" height="32.07" transform="translate(-40.11 540.2) rotate(-67)" style="fill:#ebebeb"></rect><rect x="411.18" y="172.23" width="19.44" height="1.06" transform="translate(-34.07 170.25) rotate(-22)" style="fill:#ebebeb"></rect><rect x="372.99" y="185.11" width="32.07" height="1.06" transform="translate(-41.22 159.25) rotate(-22)" style="fill:#ebebeb"></rect><rect x="312.3" y="71.61" width="19.44" height="1.06" transform="translate(129.79 340.37) rotate(-67)" style="fill:#ebebeb"></rect><rect x="292.55" y="103.26" width="32.07" height="1.06" transform="translate(92.48 347.29) rotate(-67)" style="fill:#ebebeb"></rect><rect x="249.47" y="32.68" width="1.06" height="47.83" style="fill:#ebebeb"></rect><rect x="249.47" y="91.3" width="1.06" height="16.61" style="fill:#ebebeb"></rect><rect x="118.51" y="86.93" width="1.06" height="47.83" transform="translate(-43.52 116.64) rotate(-45)" style="fill:#ebebeb"></rect><rect x="148.91" y="132.95" width="1.06" height="16.61" transform="translate(-56.11 147.04) rotate(-45)" style="fill:#ebebeb"></rect><rect x="40.87" y="241.28" width="47.83" height="1.06" style="fill:#ebebeb"></rect><rect x="99.48" y="241.28" width="16.61" height="1.06" style="fill:#ebebeb"></rect><rect x="95.12" y="372.25" width="47.83" height="1.06" transform="translate(-228.73 193.35) rotate(-45)" style="fill:#ebebeb"></rect><rect x="141.14" y="341.84" width="16.61" height="1.06" transform="translate(-198.32 205.95) rotate(-45)" style="fill:#ebebeb"></rect><rect x="249.47" y="403.11" width="1.06" height="47.83" style="fill:#ebebeb"></rect><rect x="249.47" y="375.72" width="1.06" height="16.61" style="fill:#ebebeb"></rect><rect x="380.44" y="348.86" width="1.06" height="47.83" transform="translate(-152.01 378.57) rotate(-45)" style="fill:#ebebeb"></rect><rect x="350.03" y="334.07" width="1.06" height="16.61" transform="translate(-139.42 348.16) rotate(-45)" style="fill:#ebebeb"></rect><rect x="411.3" y="241.28" width="47.83" height="1.06" style="fill:#ebebeb"></rect><rect x="383.91" y="241.28" width="16.61" height="1.06" style="fill:#ebebeb"></rect><rect x="357.05" y="110.32" width="47.83" height="1.06" transform="translate(33.2 301.85) rotate(-45)" style="fill:#ebebeb"></rect><rect x="342.25" y="140.72" width="16.61" height="1.06" transform="translate(2.79 289.25) rotate(-45)" style="fill:#ebebeb"></rect><path d="M252.41,241.81A2.41,2.41,0,1,1,250,239.4,2.41,2.41,0,0,1,252.41,241.81Z" style="fill:#ebebeb"></path><path d="M70.24,351.82c2.89.63,4.94,4.25,3.26,6.95a4.83,4.83,0,0,1-9-3.25A4.9,4.9,0,0,1,70.24,351.82Z" style="fill:#ebebeb"></path><path d="M333.44,429.17c2.89.62,4.94,4.25,3.26,6.95a4.83,4.83,0,0,1-9-3.26A4.9,4.9,0,0,1,333.44,429.17Z" style="fill:#ebebeb"></path><path d="M120.67,84.93c2.88.63,4.94,4.25,3.26,6.95a4.83,4.83,0,0,1-9-3.25A4.89,4.89,0,0,1,120.67,84.93Z" style="fill:#ebebeb"></path><path d="M406.77,345.05c2.89.62,4.94,4.25,3.26,6.95a4.83,4.83,0,0,1-9-3.25A4.9,4.9,0,0,1,406.77,345.05Z" style="fill:#ebebeb"></path><path d="M325.46,72c2.89.63,4.94,4.25,3.26,7a4.83,4.83,0,0,1-9-3.25A4.9,4.9,0,0,1,325.46,72Z" style="fill:#ebebeb"></path><path d="M186,213.57c2.88.62,4.94,4.25,3.26,7a4.83,4.83,0,0,1-9-3.25A4.89,4.89,0,0,1,186,213.57Z" style="fill:#ebebeb"></path><path d="M79.71,374.56a2.67,2.67,0,0,1,1.79,3.82A2.62,2.62,0,0,1,79,379.77a2.65,2.65,0,0,1-2.38-3.18A2.68,2.68,0,0,1,79.71,374.56Z" style="fill:#ebebeb"></path><path d="M260.18,433.92a2.64,2.64,0,0,1-.77,5.21A2.65,2.65,0,0,1,257,436,2.69,2.69,0,0,1,260.18,433.92Z" style="fill:#ebebeb"></path><path d="M410.63,133.3a2.67,2.67,0,0,1,1.79,3.82,2.66,2.66,0,0,1-4.94-1.79A2.69,2.69,0,0,1,410.63,133.3Z" style="fill:#ebebeb"></path><path d="M423,339.89a2.64,2.64,0,1,1-3.15,2A2.67,2.67,0,0,1,423,339.89Z" style="fill:#ebebeb"></path><path d="M274.71,319a2.66,2.66,0,0,1,1.79,3.81,2.65,2.65,0,0,1-4.94-1.78A2.69,2.69,0,0,1,274.71,319Z" style="fill:#ebebeb"></path><path d="M291,188.93a2.67,2.67,0,0,1,2.66,3.27,2.65,2.65,0,0,1-5.22-.53A2.69,2.69,0,0,1,291,188.93Z" style="fill:#ebebeb"></path><path d="M342.24,97.53a2.64,2.64,0,1,1-3.15,2A2.67,2.67,0,0,1,342.24,97.53Z" style="fill:#ebebeb"></path><path d="M434.38,298.47a2.67,2.67,0,0,1,1.79,3.82,2.66,2.66,0,0,1-4.94-1.79A2.69,2.69,0,0,1,434.38,298.47Z" style="fill:#ebebeb"></path><path d="M92.5,168.68a2.66,2.66,0,0,1,1.78,3.81,2.65,2.65,0,0,1-4.93-1.78A2.68,2.68,0,0,1,92.5,168.68Z" style="fill:#ebebeb"></path><path d="M62.1,368.1A1.75,1.75,0,1,1,60,369.44,1.77,1.77,0,0,1,62.1,368.1Z" style="fill:#ebebeb"></path><path d="M449.79,214.41a1.76,1.76,0,0,1,1.18,2.53,1.74,1.74,0,0,1-1.69.92,1.75,1.75,0,1,1,.51-3.45Z" style="fill:#ebebeb"></path><path d="M345.12,421.34a1.75,1.75,0,1,1-2.09,1.34A1.77,1.77,0,0,1,345.12,421.34Z" style="fill:#ebebeb"></path><path d="M74.47,165.29a1.76,1.76,0,0,1,1.18,2.53,1.72,1.72,0,0,1-1.69.92,1.74,1.74,0,0,1-1.58-2.1A1.79,1.79,0,0,1,74.47,165.29Z" style="fill:#ebebeb"></path><path d="M403.38,119.55a1.75,1.75,0,1,1-2.09,1.34A1.77,1.77,0,0,1,403.38,119.55Z" style="fill:#ebebeb"></path><path d="M263.94,330.42a1.75,1.75,0,1,1-2.09,1.34A1.77,1.77,0,0,1,263.94,330.42Z" style="fill:#ebebeb"></path><path d="M181.56,88.06a1.77,1.77,0,0,1,1.19,2.53,1.76,1.76,0,0,1-3.28-1.18A1.79,1.79,0,0,1,181.56,88.06Z" style="fill:#ebebeb"></path></g><g id="freepik--Character--inject-35"><path d="M271.26,249.24c-64.94,36.77-134.37,76.25-153.07,58.5-20.82-19.76,21.86-70.81,26.06-72,4.71-1.27,63-14.76,116.06-16.93C318.49,216.48,287.33,240.15,271.26,249.24Z" style="fill:#263238"></path><path d="M271.26,249.24c-25.09,14.21-50.85,28.82-74.09,40.37l70-70.92C315.89,218.45,286.64,240.53,271.26,249.24Z" style="opacity:0.1"></path><path d="M193.36,453.05,208.3,347.5s-13.23-21.56-7.5-38.07c6.55-18.88,29.43-64.63,48.64-82.35,24.34-22.46,53-8.55,62.59,5.45,19.23,28,54.73,113.81,69.87,220.55Z" style="fill:#FFC727"></path><path d="M193.36,453.05,208.3,347.5s-13.23-21.56-7.5-38.07c6.55-18.88,29.43-64.63,48.64-82.35,24.34-22.46,53-8.55,62.59,5.45,19.23,28,54.73,113.81,69.87,220.55Z" style="fill:#fff;opacity:0.6000000000000001"></path><path d="M270,340.58a170.67,170.67,0,0,0-25.17,1.22c-4.14.57-8.23,1.32-12.32,2.17-2,.42-4.09.77-6.14,1.11a26.77,26.77,0,0,1-6.5.47.15.15,0,0,0,0,.3,46.74,46.74,0,0,0,6.14.59,46,46,0,0,0,6-.43c4.21-.54,8.39-1.27,12.59-1.85,8.47-1.16,16.94-2.33,25.48-2.88C270.39,341.25,270.37,340.58,270,340.58Z" style="fill:#263238"></path><path d="M289.68,350.3a182.4,182.4,0,0,0-20.52-3.36c-3.46-.36-6.9-.51-10.37-.57-1.66,0-3.32,0-5,0-1.82,0-3.64.29-5.47.29-.19,0-.22.29,0,.29,1.71.06,3.43.4,5.14.55l5.17.46c3.45.31,6.89.66,10.34.94,6.9.55,13.77,1.18,20.65,2C290,350.91,290,350.37,289.68,350.3Z" style="fill:#263238"></path><path d="M228,319.78c-1.09,11.18,0,133.28,0,133.28h-34.6L208.3,347.5s-13.23-21.56-7.5-38.07c6.55-18.88,29.43-64.63,48.64-82.35a51.85,51.85,0,0,1,5-4.06C251.85,231.74,229,309.24,228,319.78Z" style="fill:#263238"></path><path d="M381.9,453.06H284.07s-13.63-118.78-13.79-133.28,22.14-101.85,22.14-101.85c8.63,3.23,15.69,8.91,19.61,14.6C331.26,260.49,366.76,346.33,381.9,453.06Z" style="fill:#263238"></path><path d="M294.61,453.18c-.64-5.14-15.53-126-14.86-134.93s16.1-91,16.75-94.49l2,.37c-.16.85-16.08,85.44-16.73,94.27s14.7,133.28,14.85,134.54Z" style="fill:#455a64"></path><path d="M219.48,453.06h-2c0-1.18.75-117.95,1.26-131.44s26.43-86.52,27.54-89.62l1.88.68c-.27.75-26.92,75.69-27.42,89S219.48,451.89,219.48,453.06Z" style="fill:#455a64"></path><path d="M324,370c-.7-7-16.09-95.15-20-122.82-3.5-24.83,2.72-33.48,19.09-15.22,30.14,33.62,102.44,163,81.2,185.72C374.84,449.24,324,370,324,370Z" style="fill:#263238"></path><path d="M309.9,284.48Q319,326.89,324,370q-9.09-42.4-14.1-85.54Z" style="fill:#455a64"></path><path d="M308.18,291a124.72,124.72,0,0,1,4.89,13.17A30,30,0,0,1,308.18,291Z" style="fill:#455a64"></path><path d="M299,227.45c-.67,3.42-14.55,24.77-29.94,22-10.82-2-7.63-23.79-7.63-23.79l-8-30.33L291,169.54S299.25,226,299,227.45Z" style="fill:#eb9481"></path><path d="M293.89,189.38A59.85,59.85,0,0,1,261,223.94l-7.51-28.64L291,169.54S292.32,178.5,293.89,189.38Z" style="fill:#263238"></path><path d="M221.79,139.78c-19.31,47.61,7.09,64.54,17.38,68.68,9.34,3.77,41.63,15.41,65.76-30s8.05-69.38-12.86-79.12S241.09,92.16,221.79,139.78Z" style="fill:#eb9481"></path><path d="M232.75,137.67a35.27,35.27,0,0,0,3.55.36c1.37.12,2.44.36,3.69-.32a1.82,1.82,0,0,0,.68-2.14c-.69-1.59-2.32-2.16-4-2.38a6.7,6.7,0,0,0-4.72,1A2,2,0,0,0,232.75,137.67Z" style="fill:#263238"></path><path d="M265,149.59a34,34,0,0,1-3.11-1.76c-1.18-.69-2.19-1.12-2.82-2.4a1.84,1.84,0,0,1,.69-2.13c1.48-.91,3.14-.42,4.6.35a6.71,6.71,0,0,1,3.29,3.53A2,2,0,0,1,265,149.59Z" style="fill:#263238"></path><path d="M245.51,185.1c-1,.6-2.12,1.49-3.38,1.28a9.39,9.39,0,0,1-3.45-1.78c-.1-.07-.24,0-.19.13a4.75,4.75,0,0,0,3.86,3c1.61.12,2.71-1,3.44-2.34C245.9,185.16,245.65,185,245.51,185.1Z" style="fill:#263238"></path><path d="M235.29,168.58s-2.27,4.79-3,7.15c-.07.22.47.5,1.26.8,0,0,.05.05.09,0a11.82,11.82,0,0,0,12.24-.76c.24-.18,0-.52-.25-.44-3.83,1.3-7.47.81-11.19-.29,0-.71,4.16-8.07,3.8-8.22-1.26-.51-4.09-.44-5.76-.47,4.44-10.11,10.47-19.42,14.73-29.55a.34.34,0,0,0-.57-.35c-7,9.32-12.37,20.84-17.22,31.16C228.78,168.93,234.21,168.69,235.29,168.58Z" style="fill:#263238"></path><path d="M235.29,176.23a12.48,12.48,0,0,0,3.39,5.3,5.56,5.56,0,0,0,3.12,1.33c2.52.22,3.34-1.88,3.56-3.84a13.43,13.43,0,0,0,0-3.15A16,16,0,0,1,235.29,176.23Z" style="fill:#263238"></path><path d="M238.68,181.53a5.56,5.56,0,0,0,3.12,1.33c2.52.22,3.34-1.88,3.56-3.84C242.8,178.39,239.75,179.2,238.68,181.53Z" style="fill:#ff9cbd"></path><path d="M260,160.58a3.59,3.59,0,0,0,.51,1.12,2.22,2.22,0,0,0,1.58,1c2,.33,3.42-1.48,4.09-3.45.05-.14,0-.25-.11-.17-1.1.8-2.34,1.6-3.43,1.11a4.29,4.29,0,0,1-1.6-1.93A11,11,0,0,1,260,160.58Z" style="fill:#263238"></path><path d="M261.14,160.33a5.27,5.27,0,0,0-.31-2.79,3.8,3.8,0,0,0-2.27-2,3.41,3.41,0,0,0-3,.52,6.14,6.14,0,0,0-1.76,2.14,10.84,10.84,0,0,0-.61,1.55,7.43,7.43,0,0,0-.31,3.43,11.38,11.38,0,0,1,.88-2.35,15,15,0,0,1,1.16-2c.89-1.26,2.09-2.17,3.19-1.74s1.75,1.59,1.76,3.15a24.62,24.62,0,0,1-.55,4.79A10.8,10.8,0,0,0,261.14,160.33Z" style="fill:#263238"></path><path d="M229.94,150.05a3.79,3.79,0,0,1-1.08.58,2.23,2.23,0,0,1-1.9-.14c-1.8-1-1.81-3.25-1.14-5.22,0-.15.15-.2.19-.07.39,1.3.89,2.69,2.05,3a4.22,4.22,0,0,0,2.44-.55A11,11,0,0,0,229.94,150.05Z" style="fill:#263238"></path><path d="M229.18,149.15a5.27,5.27,0,0,1,1.94-2,3.79,3.79,0,0,1,3-.24,3.43,3.43,0,0,1,2.1,2.26,6.08,6.08,0,0,1,.09,2.77,12.81,12.81,0,0,1-.45,1.61,7.57,7.57,0,0,1-1.84,2.91,10.72,10.72,0,0,0,.72-2.41,14.53,14.53,0,0,0,.27-2.25c.06-1.54-.34-3-1.48-3.31s-2.35.19-3.31,1.42a24.23,24.23,0,0,0-2.47,4.14A10.94,10.94,0,0,1,229.18,149.15Z" style="fill:#263238"></path><path d="M294.78,175.17s15.45-12,21.24-6.07-9.11,25.7-18.23,26.22-9.77-7.88-9.77-7.88Z" style="fill:#eb9481"></path><path d="M311.61,174.65a.12.12,0,0,1,0,.23c-6.45.56-11.1,4.94-14.91,9.79,2.36-1.59,5-2,7.26.86.12.15-.1.34-.25.26-2.19-1.22-4-1.34-6.18.05a25.75,25.75,0,0,0-4.09,3.72c-.43.43-1.27-.13-.9-.66l.09-.11C294.7,181.44,303.53,173,311.61,174.65Z" style="fill:#263238"></path><path d="M228,126.48s18.48-1.65,27,1.44c18.24,6.6,50.73,46.51,50.73,46.51s36.06-49.4-11-75.7C274,87.21,242.15,94.8,228,126.48Z" style="fill:#FFC727"></path><path d="M228,126.48s18.48-1.65,27,1.44c18.24,6.6,50.73,46.51,50.73,46.51s36.06-49.4-11-75.7C274,87.21,242.15,94.8,228,126.48Z" style="fill:#fff;opacity:0.6000000000000001"></path><path d="M371.5,288.28c-3.42-6.78-37.41-49-40.36-56.39s-10.6-25.14-10.6-25.14c3.07-4.84-3.3-41.29-.64-60.06S317.49,106,291.5,95.77s-50.3,2.74-64.93,28.9-21.95,55-19.51,65,11.42,22.9,11.42,22.9-5.38.93-7.65,2c-2.44,1.16-7.06,6.86-7.52,8.25s12.84,17.07,26.05,26.8S288,257.91,288,257.91s-2.4,39.64,6.64,57c0,0,23,4.21,35.44,4.87S379,321,379,321,375.19,295.61,371.5,288.28ZM290.29,171.09c-5.06,21.12-27.73,47.25-55,34.94-26.64-12-19.82-52.06-13.89-63.79,14.39-28.43,42.3-29.43,43.79-29.26S298.18,138.17,290.29,171.09Z" style="fill:#FFC727"></path><g style="opacity:0.1"><path d="M288,257.91c.06-9.09,10.09-19.05,15.34-26.11a159,159,0,0,0,17.18-25.05c-3.35,9.7-9.26,18.35-15.62,26.3-3.2,4-6.55,7.83-9.72,11.76s-6.37,8-7.18,13.1Z"></path><path d="M218.48,212.61c14.8,13.28,30.91,20.35,51,17.43,12.87-2,25.26-6.74,36.92-12.42,4.12-2,8.12-4.15,12.06-6.47a124.41,124.41,0,0,1-43.58,19.93c-22.41,4.92-40.91-2-56.4-18.47Z"></path><path d="M221.3,215.24c5.18,11.06,14.62,27.59,28.28,28.08,6.88-.48,13.5-3.8,19.73-6.73,6.37-3.16,12.59-6.65,18.71-10.3-8.59,6.43-17.76,12.24-27.72,16.35-4.26,1.58-8.91,3.3-13.54,2.43-13.58-3.11-21.29-17.71-25.46-29.83Z"></path><path d="M282.66,131.88C294.47,143,297.52,160.51,295.54,176c-.36-3.93-.55-7.84-1.08-11.7-1.28-11.58-4.89-22.91-11.8-32.42Z"></path></g><path d="M333.46,182c-.21-.44-5-11.05.85-19.18,2.94-4,6.53-8.15,10-12.12,6.85-7.84,13.93-15.94,12.41-20-1.41-3.75-7.43-11.41-28.17-26.62C316,94.88,303.93,87.26,303.81,87.19l1.6-2.54c2,1.25,48.82,30.85,54.12,45,2.15,5.74-4.85,13.75-13,23-3.43,3.93-7,8-9.83,11.92-4.86,6.68-.61,16-.56,16.15Z" style="fill:#FFC727"></path><path d="M349.21,202.6c0-.12-4-12.06-7.33-16.29a20.32,20.32,0,0,0-7.65-5.84l1.08-2.8a23,23,0,0,1,8.93,6.78c3.66,4.65,7.65,16.7,7.82,17.21Z" style="fill:#FFC727"></path><path d="M330,208.52c-.42-1.49-4.06-14.73-2.78-19.16A52.77,52.77,0,0,1,332,179.28l2.57,1.55a49.83,49.83,0,0,0-4.42,9.37c-.79,2.72,1.29,12.18,2.78,17.51Z" style="fill:#FFC727"></path><path d="M346,208.55c0-.12-4.15-12.56-5.31-16-.91-2.65-5.92-9.76-7.77-12.27l2.41-1.78c.71,1,7,9.51,8.19,13.08,1.18,3.42,5.29,15.88,5.33,16Z" style="fill:#FFC727"></path><path d="M336.3,209.93c0-.09-1.92-9.68-3-12.75-1.17-3.34-1.2-16.07-1.2-17.52h3c0,5.46.27,14.36,1,16.53,1.15,3.27,3,12.76,3.11,13.16Z" style="fill:#FFC727"></path><polygon points="283.1 119.01 217.16 55.3 308.54 65.92 374.04 127.62 283.1 119.01" style="fill:#263238"></polygon><path d="M237.71,106.24l8.93-25.88s30.4.47,49.73,9.73,38.32,30.11,38.32,30.11l-14.26,25.67s-23.27-17.82-39-25S237.71,106.24,237.71,106.24Z" style="fill:#FFC727"></path><path d="M237.71,106.24l.09,0c1.71.47,28.34,7.7,43.59,14.63,15.52,7,38.32,24.42,39,25h0L334.7,120.2s-19-20.85-38.33-30.11-49.73-9.73-49.73-9.73Z" style="fill:#37474f"></path><path d="M289.21,88.43l.1.06C289.25,88.49,289.22,88.48,289.21,88.43Z" style="fill:#263238"></path><path d="M305.88,134.86a35.22,35.22,0,0,1,4.18,3.38l-.05,0a.36.36,0,0,0-.09-.08c-4-2.81-8.81-6.06-13.72-9.12-3.73-2.33-7.53-4.55-11.09-6.38-1.27-.66-2.51-1.27-3.72-1.81-1.76-.8-3.68-1.61-5.7-2.41l-.12,0,.95-2.28c4.87,1.78,9.64,3.7,14.35,5.82-.43-.27-.87-.53-1.31-.79-2-1-4.11-2-6.17-2.92-2.85-1.31-5.72-2.6-8.59-3.83l-.1,0L276,111l.1,0c1.33.5,2.66,1,4,1.51l.51-2.39c1.59.27,3,.59,4.52,1l.13,0,1.06-3.6,2,.56q-3.56-1.66-7.25-3l1.44-4.07h0l.37.14q3,1.09,6,2.26l.91-2.37-1.93-.72,1.1-3.41.06,0,.21.07a107.23,107.23,0,0,1,14.18,5.73,55.91,55.91,0,0,0-14.92-8.37h0s0-.09.1-.25l0-.08.07-.19,0-.11a1.19,1.19,0,0,1,.08-.22l0-.12h0l.13-.37c.14-.38.27-.76.37-1l.05-.15.06-.18h0c1.35.48,2.67,1,4,1.58,4.08,1.67,8.11,3.45,12,5.47a140,140,0,0,0-16.11-10.22l0,0-.12-.06v0l-.13-.07,0,0-.09-.06c-.78.07-.32-.65.17-1.12.39.13.79.27,1.17.42.92.31,1.82.66,2.71,1a2.33,2.33,0,0,1,.33.14c1.71.93,3.41,1.9,5.08,2.9,4.08,2.32,8.16,4.68,12.19,7.12,2.44,1.77,4.79,3.6,7,5.42-2.15-1.32-4.37-2.61-6.61-3.89a88.74,88.74,0,0,1,7,6.16l.13.12-1.56,1.74a77.24,77.24,0,0,0-7.35-4.67c.82.79,1.63,1.61,2.39,2.45,1.93,2,5.69,7.87,7.31,10.15l-3.2-2.17-2.18,2.22h0l-2.24,2.89c-.27-.18-.54-.36-.82-.52l-.86.93c1.71,1.25,3.38,2.56,5,4l-2.59,3.4a99.94,99.94,0,0,0-12.27-6.4c3.71,2.63,7.29,5.4,10.81,8.33l0,0-2.51,3,0,0c-.51-.41-1-.81-1.58-1.19,3.42,4,7.17,9,9.27,11.53l-11.34-9.07a46.56,46.56,0,0,0-6.1-4c2.56,1.8,5.07,3.69,7.53,5.63A.18.18,0,0,1,305.88,134.86Z" style="fill:#455a64"></path><path d="M126.46,308.66c17.48-10.85,41.16-51.82,61.12-130.9,2.76-10.94-77.1-22.15-80.65-10.62-4.48,14.53-15.45,67.6-14.42,82.26C94.72,281,114.59,316,126.46,308.66Z" style="fill:#eb9481"></path><path d="M101.19,192.72s.26-4.83,2.57-30.84c1.6-18,17-60.76,65.7-75,18.66-5.45,30.64,5.26,12.26,14.37-12.95,6.41-22.47,9.75-26.11,13,0,0,21.62,4.66,26.67,16.44,2.26,5.26,8.09,19.77,11,31.71a48.8,48.8,0,0,1-5.75,2.59,26.94,26.94,0,0,1-7,27.85Z" style="fill:#eb9481"></path><path d="M108,145c6.83-6.54,21.54-20.18,37.45-27.15,17.68-7.74,53.81-17.89,59.39-4.78,4.09,9.61-9.36,14.7-9.36,14.7s15.82-1,17.62,8.44c1.63,8.65-9,12-9,12s9.7,1,9.68,9.65c0,10.38-20.37,6.55-29.49,17C182.26,177.17,108,145,108,145Z" style="fill:#eb9481"></path><path d="M150.55,137.85c7.43-5.1,27.29-12.37,44.64-10.37.4,0,.57.37.2.4A189.12,189.12,0,0,0,150.62,138C150.52,138.05,150.47,137.91,150.55,137.85Z" style="fill:#263238"></path><path d="M158.88,155.47c6.87-3.75,27.67-10.32,45.18-7.69.4.06.55.39.18.41-20.53,1.1-37.73,5.11-45.29,7.45A.09.09,0,0,1,158.88,155.47Z" style="fill:#263238"></path><path d="M126.46,308.66c17.48-10.85,36.07-32.87,57.37-105.12L100.6,188c-3.18,15.16-9.12,46.76-8.09,61.42C94.72,281,114.59,316,126.46,308.66Z" style="fill:#FFC727"></path><path d="M126.46,308.66c17.48-10.85,36.07-32.87,57.37-105.12L100.6,188c-3.18,15.16-9.12,46.76-8.09,61.42C94.72,281,114.59,316,126.46,308.66Z" style="fill:#fff;opacity:0.6000000000000001"></path><path d="M97.42,197.05l75.27,53.33s-33,61-48.93,60.12-31.34-39.15-31.87-62.87S97.42,197.05,97.42,197.05Z" style="fill:#263238"></path><path d="M164.46,264.67c-1.39,2.3-2.91,4.78-4.54,7.36L93,224.35c.38-3.43.81-6.71,1.24-9.72Z" style="fill:#455a64"></path><path d="M165.3,245.15c2.71,1.63,5.34,3.37,8,5-2.28,4.91-4.8,9.68-7.52,14.35-7.92,13.59-17.17,26.54-28.36,37.63,6.41-8.25,12.57-16.71,18.34-25.4s11.31-17.55,16.47-26.62l.16.63c-2.37-1.89-4.78-3.71-7.11-5.64Z" style="fill:#455a64"></path><path d="M127.62,294.66s26.28,6.9,29.4-16.53C157,278.13,136.18,272.29,127.62,294.66Z" style="fill:#dbdbdb"></path><path d="M212.62,357.94c1.33.34,12.69-33.19,7.13-40s-23.29-.35-25.77,9.49C191.81,336.05,208.79,357,212.62,357.94Z" style="fill:#FFC727"></path><path d="M211.24,356.38c.7.76-4.22-32.44-13.48-32.61C194.7,323.71,188.62,331.49,211.24,356.38Z" style="opacity:0.1"></path><path d="M211.64,355.84c.26-1.35,35.48,2.76,39.25,10.68s-9.66,21.16-19.62,19.19C222.55,384,210.89,359.72,211.64,355.84Z" style="fill:#FFC727"></path><path d="M212.46,357.75c-.39-.95,27.57,17.69,23.75,26.12C235,386.66,225.32,388.81,212.46,357.75Z" style="opacity:0.1"></path><path d="M263,431.94s-1.48,25.09-26.22,17.61L127.62,294.66s4.55-18.44,29.4-16.53Z" style="fill:#ebebeb"></path><rect x="179.98" y="358.22" width="35.17" height="14.41" transform="translate(-171.32 174.38) rotate(-34.22)" style="fill:#FFC727"></rect><path d="M402.47,419.6c-15.46,11.32-40.05,6.87-115.34-3.35-10.42-1.41-20.22-77.62-9-76.68,14.11,1.18,68.62,8.82,72.54,9.89C383.67,358.42,413,411.91,402.47,419.6Z" style="fill:#eb9481"></path><path d="M289.22,344.27s-26.6-13.44-42.76-16.17c-21.64-3.66-41.83,2.09-50.15,5C179,339.2,141.2,365.94,147,378.16c5.26,11.06,42.47-18.22,42.47-18.22s-42.87,23.59-34.09,35.75,50-24.3,50-24.3S161.92,396.62,173,407.72c8.33,8.39,47.56-22.52,47.56-22.52s-37.23,21.95-29,30.95c9.06,9.94,47.06-16.32,47.06-16.32,24.7,19.36,44.38,18.48,58.3,16.18C300.22,415.45,289.22,344.27,289.22,344.27Z" style="fill:#eb9481"></path><path d="M203.77,350.83c-5.13,2.59-10.35,5.17-15.24,8.21s-9.67,6.25-14.25,9.73C163,377.3,157.33,384.4,157.73,384c9.46-9.47,26.79-20.61,31.68-23.65s9.61-6.3,14.48-9.34C204,350.93,203.89,350.77,203.77,350.83Z" style="fill:#263238"></path><path d="M215.06,368.28c-6.42,3.59-12.91,6.92-19.17,10.79s-11.8,8.06-17.75,12.34c-.45.32-.13.46.35.15,6.11-4,12.07-7.29,18.23-11.25s12.16-8.17,18.44-11.89C215.26,368.37,215.16,368.22,215.06,368.28Z" style="fill:#263238"></path><path d="M227.44,381.51c-10.08,5-19.24,11.83-28.05,18.75-.44.35,0,.48.47.15,9.21-6.41,16.39-11.5,27.75-18.55C227.79,381.75,227.65,381.41,227.44,381.51Z" style="fill:#263238"></path><path d="M402.47,419.6c-15.46,11.32-35.77,13.69-111.06,3.47l-9.2-84.68c14.12,1.18,64.52,10,68.44,11.07C383.67,358.42,413,411.91,402.47,419.6Z" style="fill:#FFC727"></path><path d="M402.47,419.6c-15.46,11.32-35.77,13.69-111.06,3.47l-9.2-84.68c14.12,1.18,64.52,10,68.44,11.07C383.67,358.42,413,411.91,402.47,419.6Z" style="fill:#fff;opacity:0.6000000000000001"></path><path d="M301.08,339.56l14,106s79.56-10.9,89.55-27.77c5.22-8.81-17.1-53.47-47.52-66C345.67,347.09,301.08,339.56,301.08,339.56Z" style="fill:#263238"></path><path d="M301.08,339.56c15.68,2.35,31.27,5.13,46.74,8.67,3.88,1,7.85,1.74,11.54,3.43,10.87,5.2,19.61,14,26.9,23.38-2.76-2.85-5.62-5.57-8.56-8.2-5.85-5.14-12.07-10.13-19.15-13.38a70.25,70.25,0,0,0-11.18-3.35c-15.38-3.67-30.88-6.92-46.29-10.55Z" style="fill:#455a64"></path><path d="M341.41,441.06c-3,.58-5.84,1.11-8.49,1.59L317.78,342.56c2.85.54,5.9,1.12,9,1.74Z" style="fill:#455a64"></path><path d="M311.66,419.6c1.55,8.58,2.93,17.19,4.21,25.81l-.9-.69c6-1,12-2.05,18-3.13,17.93-3.43,36-6.61,53.3-12.5-16.76,7.5-35,11.12-52.95,14.43q-9.44,1.67-18.93,2.9c-1-8.93-2-17.86-2.72-26.82Z" style="fill:#455a64"></path></g><g id="freepik--Table--inject-35"><path d="M48.8,453.07c128.9-.61,273.5-.62,402.4,0-128.9.62-273.5.61-402.4,0Z" style="fill:#263238"></path></g><g id="freepik--Stars--inject-35"><polygon points="119.29 72.01 125.1 70.94 126.4 64.81 127.69 70.94 133.5 72.02 127.72 73.43 126.4 79.21 125.07 73.43 119.29 72.01" style="fill:#FFC727"></polygon><polygon points="112.41 306.33 118.22 305.25 119.52 299.13 120.81 305.25 126.62 306.33 120.84 307.74 119.52 313.53 118.19 307.74 112.41 306.33" style="fill:#FFC727"></polygon><polygon points="401.21 276.3 407.02 275.23 408.31 269.11 409.61 275.23 415.42 276.31 409.64 277.72 408.31 283.5 406.99 277.72 401.21 276.3" style="fill:#FFC727"></polygon><polygon points="324.02 84.83 329.83 83.75 331.13 77.63 332.43 83.75 338.23 84.83 332.45 86.24 331.13 92.03 329.81 86.24 324.02 84.83" style="fill:#FFC727"></polygon><polygon points="63.5 335.36 66.74 334.76 67.47 331.33 68.19 334.76 71.44 335.36 68.21 336.15 67.47 339.38 66.73 336.15 63.5 335.36" style="fill:#FFC727"></polygon><polygon points="91.94 165.05 95.18 164.45 95.91 161.03 96.63 164.45 99.88 165.05 96.65 165.84 95.91 169.07 95.17 165.84 91.94 165.05" style="fill:#FFC727"></polygon><polygon points="203.56 81.47 206.81 80.87 207.53 77.45 208.26 80.87 211.5 81.47 208.27 82.26 207.53 85.49 206.79 82.26 203.56 81.47" style="fill:#FFC727"></polygon><polygon points="376.99 336.54 380.24 335.94 380.96 332.52 381.69 335.94 384.94 336.55 381.7 337.33 380.96 340.57 380.23 337.33 376.99 336.54" style="fill:#FFC727"></polygon><polygon points="327.15 221.42 330.4 220.82 331.13 217.4 331.85 220.82 335.1 221.43 331.87 222.22 331.13 225.45 330.39 222.22 327.15 221.42" style="fill:#FFC727"></polygon><polygon points="428.56 212.52 431.81 211.92 432.53 208.5 433.26 211.92 436.5 212.53 433.27 213.32 432.53 216.55 431.79 213.32 428.56 212.52" style="fill:#FFC727"></polygon><polygon points="382.29 132.58 385.54 131.98 386.26 128.56 386.99 131.98 390.23 132.58 387 133.37 386.26 136.6 385.52 133.37 382.29 132.58" style="fill:#FFC727"></polygon><polygon points="193.59 432.56 196.84 431.96 197.56 428.54 198.29 431.96 201.53 432.56 198.3 433.35 197.56 436.58 196.82 433.35 193.59 432.56" style="fill:#FFC727"></polygon><path d="M425.45,279.45a.94.94,0,0,0,0-1.88A.94.94,0,0,0,425.45,279.45Z" style="fill:#FFC727"></path><path d="M185.08,302a.94.94,0,0,0,0-1.88A.94.94,0,0,0,185.08,302Z" style="fill:#FFC727"></path><path d="M68.38,174.84a1,1,0,0,0,0-1.89A.95.95,0,0,0,68.38,174.84Z" style="fill:#FFC727"></path><path d="M387.71,178.75a.94.94,0,0,0,0-1.88A.94.94,0,0,0,387.71,178.75Z" style="fill:#FFC727"></path><path d="M348.23,231.31a.67.67,0,0,0,0-1.33A.67.67,0,0,0,348.23,231.31Z" style="fill:#FFC727"></path><path d="M265.24,51.2a.67.67,0,0,0,0-1.33A.67.67,0,0,0,265.24,51.2Z" style="fill:#FFC727"></path><path d="M322.39,59.69a1.81,1.81,0,0,0,0-3.61A1.81,1.81,0,0,0,322.39,59.69Z" style="fill:#FFC727"></path><path d="M187.33,246a1.81,1.81,0,0,0,0-3.61A1.81,1.81,0,0,0,187.33,246Z" style="fill:#FFC727"></path></g><g id="freepik--speech-bubble--inject-35"><path d="M450.93,103.27a48.11,48.11,0,0,1-80.41,30.44l-24.08,3.54,12.05-20.82a48.13,48.13,0,1,1,92.44-13.16Z" style="fill:#fff"></path><path d="M450.93,103.27a48.48,48.48,0,0,1-9.72,24.4,53.14,53.14,0,0,1-4.36,5,53.44,53.44,0,0,1-5.08,4.3,47.52,47.52,0,0,1-31.25,9.68,42.61,42.61,0,0,1-6.66-.69,48.58,48.58,0,0,1-23.81-11.76l.57.18-24.05,3.69-1.75.27.89-1.54,12-20.86-.05.83a48.66,48.66,0,0,1,3-42.9,49.32,49.32,0,0,1,15.07-16A49,49,0,0,1,418,52.15a49,49,0,0,1,18.56,11.38A48.4,48.4,0,0,1,450.93,103.27Zm0,0a47.62,47.62,0,0,0-54.58-52.08A47.27,47.27,0,0,0,376.48,59a49.61,49.61,0,0,0-14.4,15.71A47.46,47.46,0,0,0,356,95.11a48,48,0,0,0,3.39,21l.17.43-.23.39-12.12,20.77-.86-1.27,24.1-3.37.33-.05.24.22a47.34,47.34,0,0,0,23,11.87,41.16,41.16,0,0,0,6.53.8,46.76,46.76,0,0,0,6.59,0A47.61,47.61,0,0,0,420,143a44.79,44.79,0,0,0,11.61-6.26,51.4,51.4,0,0,0,5.08-4.24,53,53,0,0,0,4.38-5A48.48,48.48,0,0,0,450.93,103.27Z" style="fill:#263238"></path><path d="M423.47,107.34a63,63,0,0,1-20.22,17.54A62.94,62.94,0,0,1,383,107.34c-7.12-9.42-6.77-24.16,3.41-27.35,11.26-3.53,16.8,13.42,16.8,13.42s5.61-17.06,16.8-13.42C430.2,83.29,430.58,97.92,423.47,107.34Z" style="fill:#FFC727"></path></g></svg>
