<svg xmlns="http://www.w3.org/2000/svg" viewBox="0 0 500 500"><g id="freepik--background-complete--inject-52"><path d="M279.3,127c4.77,0,123.92-.83,157.58-.83,2.35,0-.62-4.07-1.92-4.36-4.14-.9-8.45-1-12.66-1.39a40.93,40.93,0,0,1-12.06-3c-3.31-1.39-6.61-3-10.2-3.57-6.93-1.09-13,2.67-19.52,4.33a14.74,14.74,0,0,1-11.82-1.62c-3-1.8-5.74-4-8.88-5.56a48.75,48.75,0,0,0-38.94-1.78,45.34,45.34,0,0,0-8.52,4.36c-3.17,2.08-5.91,4.75-9.1,6.81-7.05,4.56-15.78,3.08-23.48,5.7C279.36,126.2,278.88,127,279.3,127Z" style="fill:#ebebeb"></path><path d="M138.22,60.81c6.31,0,112.54.7,119.22.49.48,0,.74-.72.26-.95-4.21-2.09-9-1.67-13.36-3.14-2.57-.87-4.15-2.55-5.94-4.48a12.3,12.3,0,0,0-5.52-3.61,11.61,11.61,0,0,0-6-.19c-2.16.51-4,1.75-6.09,2.52-5.1,1.93-10.06.1-13.7-3.68-3-3.11-6-6-10-7.72a13.31,13.31,0,0,0-10.64-.15c-3.9,1.77-6.57,5.32-10.23,7.45-4.34,2.54-9.53,1.94-14.32,2.7s-8.47,4.8-12.67,7.13a9.06,9.06,0,0,1-4.58,1.42c-.94,0-1.86-.28-2.79-.4-1.45-.18-2.82-.13-3.8,1.07C137.76,59.57,137.8,60.81,138.22,60.81Z" style="fill:#ebebeb"></path><path d="M66.12,223.1c6.31,0,112.54.7,119.22.49a.52.52,0,0,0,.26-1c-4.21-2.08-9-1.66-13.36-3.14-2.57-.86-4.15-2.55-5.94-4.48a12.34,12.34,0,0,0-5.53-3.6,11.56,11.56,0,0,0-6-.19c-2.16.51-4,1.75-6.09,2.52-5.1,1.93-10.06.1-13.7-3.68-3-3.11-6-6.05-10-7.72a13.31,13.31,0,0,0-10.64-.15c-3.9,1.77-6.57,5.32-10.23,7.45-4.34,2.54-9.53,1.94-14.32,2.7s-8.47,4.8-12.67,7.13a9.07,9.07,0,0,1-4.59,1.42c-.93,0-1.86-.28-2.79-.4-1.44-.18-2.82-.14-3.79,1.07C65.65,221.86,65.7,223.1,66.12,223.1Z" style="fill:#ebebeb"></path><path d="M53.43,85.47c4.61,0,82.17.51,87,.36.35,0,.54-.53.19-.7-3.07-1.52-6.56-1.22-9.75-2.29a10.48,10.48,0,0,1-4.34-3.28,9,9,0,0,0-4-2.63,8.53,8.53,0,0,0-4.4-.14,38.16,38.16,0,0,0-4.44,1.85c-3.72,1.4-7.35.07-10-2.69-2.19-2.27-4.35-4.42-7.33-5.64a9.72,9.72,0,0,0-7.77-.11c-2.84,1.29-4.8,3.88-7.47,5.44-3.17,1.85-7,1.42-10.45,2s-6.19,3.51-9.26,5.21a6.52,6.52,0,0,1-3.34,1,20,20,0,0,1-2-.29,2.79,2.79,0,0,0-2.77.78C53.09,84.56,53.13,85.47,53.43,85.47Z" style="fill:#ebebeb"></path><path d="M177.86,161.51c4.61,0,82.17.51,87,.35.35,0,.54-.52.19-.69-3.07-1.52-6.56-1.22-9.75-2.3A10.37,10.37,0,0,1,251,155.6a9,9,0,0,0-4-2.63,8.53,8.53,0,0,0-4.4-.14,38.16,38.16,0,0,0-4.44,1.85c-3.72,1.4-7.34.07-10-2.69-2.2-2.27-4.36-4.42-7.34-5.64a9.72,9.72,0,0,0-7.77-.11c-2.84,1.29-4.79,3.88-7.47,5.44-3.16,1.85-7,1.41-10.45,2s-6.19,3.51-9.25,5.2a6.5,6.5,0,0,1-3.35,1,20,20,0,0,1-2-.29,2.79,2.79,0,0,0-2.77.78C177.52,160.6,177.56,161.51,177.86,161.51Z" style="fill:#ebebeb"></path><path d="M359.42,294.71c4.61,0,82.17.51,87.05.36.35,0,.53-.53.19-.7-3.08-1.52-6.56-1.22-9.76-2.29a10.45,10.45,0,0,1-4.33-3.28,9,9,0,0,0-4-2.63,8.49,8.49,0,0,0-4.39-.14,37.45,37.45,0,0,0-4.44,1.85c-3.73,1.4-7.35.07-10-2.69-2.19-2.27-4.35-4.42-7.33-5.64a9.72,9.72,0,0,0-7.77-.11c-2.85,1.29-4.8,3.88-7.47,5.44-3.17,1.85-7,1.42-10.46,2s-6.18,3.51-9.25,5.21a6.55,6.55,0,0,1-3.34,1,20,20,0,0,1-2-.29,2.79,2.79,0,0,0-2.77.78C359.09,293.8,359.12,294.71,359.42,294.71Z" style="fill:#ebebeb"></path><path d="M37.21,456s74.13-35.08,95.09-36.16c18.61-1,48.86,1.89,84.37,12,52.61,15,98,24.13,98,24.13Z" style="fill:#dbdbdb"></path><path d="M462.79,456s-43.3-48.43-93.64-52.79c-30.62-2.64-65.22,7.38-95.21,19.82-50,20.74-89.21,33-89.21,33Z" style="fill:#ebebeb"></path><g style="opacity:0.5"><path d="M374.24,456h21.68c11.07-3.13,22.13-6.6,33.1-9,7.26-1.72,14.72-2.14,22.1-2.41-14.09-8.19-30.75-6.22-45.42-1.93A148.23,148.23,0,0,0,374.24,456Z" style="fill:#dbdbdb"></path><path d="M335.35,456h9.9a280.28,280.28,0,0,1,32-14.18,242.67,242.67,0,0,1,33.69-10A108.82,108.82,0,0,1,431.78,429h0l-.09,0c-16.72-7.3-40.05-3.26-56.78,2.94A121.1,121.1,0,0,0,335.35,456Z" style="fill:#dbdbdb"></path><path d="M294.84,456h7.57q6.36-3.87,12.73-7.59c29.78-16.81,62.46-34.44,95.59-32.31h.2l-1.24-.53c-35.69-15.11-82.95,11.19-111.84,37.6C296.84,454.09,295.84,455,294.84,456Z" style="fill:#dbdbdb"></path><path d="M267.41,456h2.95c7.18-5.32,14.38-10.3,21.7-15,25.71-16.21,60.49-37,89.5-35.79a92.35,92.35,0,0,0-12.41-2,130.61,130.61,0,0,0-24.1.28H345c-25.77,6.44-52.72,25.24-69.34,42.84A126.15,126.15,0,0,0,267.41,456Z" style="fill:#dbdbdb"></path><path d="M234.05,456h4.52q8.35-6.76,16.86-13c14.94-10.69,33.05-23.2,51.41-31.72A331.27,331.27,0,0,0,273.94,423q-6.6,2.75-12.94,5.28a172,172,0,0,0-21.73,21.14C237.48,451.56,235.73,453.74,234.05,456Z" style="fill:#dbdbdb"></path><path d="M206.58,456h6.6q5.61-4.41,11.32-8.59c4.93-3.53,10.21-7.26,15.73-11-8.81,3.35-16.88,6.32-24,8.85-2.84,2.88-5.49,5.76-7.9,8.59C207.75,454.57,207.16,455.28,206.58,456Z" style="fill:#dbdbdb"></path></g><path d="M105.25,106.32a18,18,0,0,0-2.16-.92,8.78,8.78,0,0,0-2.35-.54,2,2,0,0,0-.73.08l-.22.1-.14.11-.26.2a11.59,11.59,0,0,0-.85.87c-.53.59-1,1.21-1.47,1.85l.58-.2a16.26,16.26,0,0,0-2.4-.51,10.21,10.21,0,0,0-1.25-.09,3.85,3.85,0,0,0-.67,0,2.7,2.7,0,0,0-.36.09,2.92,2.92,0,0,0-.36.17,3.89,3.89,0,0,0-.94.91,11.35,11.35,0,0,0-.71,1,15.55,15.55,0,0,0-1.12,2.14c.52-.62,1-1.24,1.54-1.82a9.25,9.25,0,0,1,.81-.84,3.73,3.73,0,0,1,.84-.66,2.09,2.09,0,0,1,.94-.09,8.6,8.6,0,0,1,1.12.15c.76.14,1.53.32,2.26.52l.38.1.21-.3c.43-.62.9-1.23,1.37-1.82A9.75,9.75,0,0,1,100,106l.18-.18.09-.07,0,0a1,1,0,0,1,.41-.09,12.45,12.45,0,0,1,2.22.22C103.72,106,104.48,106.18,105.25,106.32Z" style="fill:#a6a6a6"></path><path d="M96.77,142.85a25.9,25.9,0,0,0-2.89-2,13.4,13.4,0,0,0-3.3-1.49,3.09,3.09,0,0,0-1.09-.09,1.72,1.72,0,0,0-.36.09l-.25.11a4.34,4.34,0,0,0-.43.23c-.54.32-1,.67-1.51,1-1,.72-1.82,1.49-2.7,2.29l.92-.13a26.39,26.39,0,0,0-3.38-1.44A17.17,17.17,0,0,0,80,141a6.36,6.36,0,0,0-1-.12,3.45,3.45,0,0,0-.55,0,3.1,3.1,0,0,0-.58.15,5.93,5.93,0,0,0-1.65,1.06,16.07,16.07,0,0,0-1.34,1.26,23.46,23.46,0,0,0-2.26,2.82c.93-.75,1.85-1.52,2.79-2.22.47-.36,1-.71,1.43-1a5.81,5.81,0,0,1,1.44-.71,3.11,3.11,0,0,1,1.4.13,12.7,12.7,0,0,1,1.6.56c1.07.41,2.15.91,3.17,1.42l.52.26.4-.39c.82-.78,1.68-1.54,2.54-2.27a14.83,14.83,0,0,1,1.31-1c.11-.07.22-.15.32-.2l.15-.09s0,0,.06,0a1.64,1.64,0,0,1,.63,0,17,17,0,0,1,3.19,1C94.62,142,95.69,142.42,96.77,142.85Z" style="fill:#a6a6a6"></path><path d="M401.56,264.27a16.88,16.88,0,0,0-2-1.26,8.86,8.86,0,0,0-2.23-.92,2.18,2.18,0,0,0-.74,0,1.53,1.53,0,0,0-.24.07.71.71,0,0,0-.15.08,2.69,2.69,0,0,0-.29.16,10.23,10.23,0,0,0-1,.71c-.62.5-1.19,1-1.76,1.59l.61-.11a17.09,17.09,0,0,0-2.28-.89,9.85,9.85,0,0,0-1.22-.29,4.77,4.77,0,0,0-.67-.06,2.42,2.42,0,0,0-.37,0,3.18,3.18,0,0,0-.38.11,4.19,4.19,0,0,0-1.08.74,11.86,11.86,0,0,0-.86.88,15.27,15.27,0,0,0-1.46,1.93c.61-.53,1.21-1.06,1.82-1.55.31-.24.62-.49.94-.7a4.16,4.16,0,0,1,.94-.51,2.28,2.28,0,0,1,.94.07,9.47,9.47,0,0,1,1.08.33c.72.26,1.45.57,2.14.89l.35.16.26-.27c.53-.54,1.09-1.07,1.65-1.57a11,11,0,0,1,.85-.71l.21-.14.1-.05s0,0,0,0a1.35,1.35,0,0,1,.42,0,11.38,11.38,0,0,1,2.16.58C400.11,263.73,400.83,264,401.56,264.27Z" style="fill:#a6a6a6"></path><path d="M427.41,261.13a25.08,25.08,0,0,0-2.17-2.76,13.65,13.65,0,0,0-2.71-2.39,2.82,2.82,0,0,0-1-.42,2.12,2.12,0,0,0-.37,0l-.26,0-.48.1a17.88,17.88,0,0,0-1.75.52c-1.12.41-2.18.89-3.26,1.39l.92.15a26.47,26.47,0,0,0-2.8-2.38,14.9,14.9,0,0,0-1.59-1,6.94,6.94,0,0,0-.91-.41,2.74,2.74,0,0,0-.53-.14,3,3,0,0,0-.6,0,6.32,6.32,0,0,0-1.89.51c-.58.25-1.12.53-1.65.82a21.87,21.87,0,0,0-3,2c1.12-.45,2.21-.91,3.33-1.3.55-.2,1.11-.39,1.66-.53a6,6,0,0,1,1.58-.26,3.35,3.35,0,0,1,1.31.55,13.93,13.93,0,0,1,1.36,1c.9.72,1.77,1.51,2.6,2.31l.42.4.5-.25c1-.51,2.06-1,3.1-1.42a14.72,14.72,0,0,1,1.55-.58,2.8,2.8,0,0,1,.36-.1l.17,0s0,0,.06,0a1.62,1.62,0,0,1,.6.19,17.29,17.29,0,0,1,2.77,1.87C425.62,259.64,426.5,260.39,427.41,261.13Z" style="fill:#a6a6a6"></path><path d="M130.74,123.6a25,25,0,0,0-2.17-2.75,13.41,13.41,0,0,0-2.71-2.4,3,3,0,0,0-1-.41,1.11,1.11,0,0,0-.37,0,2.06,2.06,0,0,0-.26,0c-.18,0-.32.06-.48.09a15.51,15.51,0,0,0-1.75.53c-1.12.4-2.18.88-3.26,1.38l.92.15a26.47,26.47,0,0,0-2.8-2.38,13.43,13.43,0,0,0-1.59-1,6.4,6.4,0,0,0-.91-.42c-.15-.06-.35-.09-.53-.14a5.88,5.88,0,0,0-.6,0,6.32,6.32,0,0,0-1.89.52,16.84,16.84,0,0,0-1.65.81,23.49,23.49,0,0,0-3,2c1.12-.44,2.22-.9,3.33-1.29.55-.2,1.11-.39,1.66-.53a5.59,5.59,0,0,1,1.58-.26,3.07,3.07,0,0,1,1.31.55,12.46,12.46,0,0,1,1.36,1c.9.71,1.78,1.51,2.6,2.3l.42.4.5-.25c1-.51,2.06-1,3.1-1.42.52-.22,1-.42,1.55-.58l.37-.09.16,0s0,0,.06,0a1.78,1.78,0,0,1,.6.18,17.29,17.29,0,0,1,2.77,1.87C129,122.12,129.84,122.87,130.74,123.6Z" style="fill:#a6a6a6"></path></g><g id="freepik--Floor--inject-52"><path d="M37.21,456c136.33-.61,289.25-.61,425.58,0-136.33.62-289.25.62-425.58,0Z" style="fill:#263238"></path></g><g id="freepik--Lines--inject-52"><path d="M65.22,330.73c15.14-.68,30.41-.68,45.56,0-15.15.67-30.42.67-45.56,0Z" style="fill:#263238"></path><path d="M311.2,142.05c15.14-.68,30.41-.68,45.56,0-15.15.67-30.42.67-45.56,0Z" style="fill:#263238"></path><path d="M258.07,367.89a267.17,267.17,0,0,1,33,0,267.17,267.17,0,0,1-33,0Z" style="fill:#263238"></path><path d="M292.64,146.61a267.33,267.33,0,0,1,33,0,263.46,263.46,0,0,1-33,0Z" style="fill:#263238"></path><path d="M312.92,151a170.43,170.43,0,0,1,26.35,0,168,168,0,0,1-26.35,0Z" style="fill:#263238"></path><path d="M39.92,336.83c18.79-.67,37.72-.67,56.53,0-18.81.67-37.73.67-56.53,0Z" style="fill:#263238"></path><path d="M109.59,388.48c18.79-.68,37.72-.68,56.52,0-18.8.67-37.73.67-56.52,0Z" style="fill:#263238"></path></g><g id="freepik--Trees--inject-52"><path d="M47.21,456H86.16L81.6,435.88A25.93,25.93,0,0,1,69.16,432l12.07,2.24-5.57-24.58a22.34,22.34,0,0,1-5-3.16L75.27,408l-.74-3.28a23.81,23.81,0,0,1-6.87-4.54l6.41,2.5-7.38-32.54-4.16,18.39,3.74-.94a28.13,28.13,0,0,1-4,2.24l-6,26.35L60.59,415a28.31,28.31,0,0,1-4.66,2.53l-4.14,18.24,8.46-2.11a31.14,31.14,0,0,1-8.9,4l-.71,3.18,13-3.24a31,31,0,0,1-13.38,4.87l-1,4.55L53.56,446a28.93,28.93,0,0,1-4.65,2.52Z" style="fill:#455a64"></path><path d="M54.38,430c2.15.82,10.13,4.07,11.86,5V433.9l-5.79-3.38a67,67,0,0,1-6.22-3.7c-.1-.07,0-.26.08-.21a51.82,51.82,0,0,1,6.1,3.37q2.94,1.72,5.83,3.53,0-4.17,0-8.33a66.49,66.49,0,0,1-9.1-4.63c-.1-.06,0-.24.09-.19a66.63,66.63,0,0,1,9,4.44c0-1.44,0-12.56.32-26.65-1.9-.95-3.85-1.79-5.74-2.75-.12-.07,0-.28.1-.23,1.92.75,3.77,1.64,5.65,2.46.1-3.83.25-7.67.48-11.5a.1.1,0,0,1,.2,0c.27,7.12.24,20.91.15,28,2-1.56,4-2.94,6-4.46.08-.06.15.07.08.13-2.09,1.59-4,3.34-6.13,4.93,0,.4,0,.8,0,1.2,2.13-1,4.28-1.87,6.43-2.79.17-.07.32.17.15.25-2.19,1.05-4.37,2.12-6.59,3.11,0,3.53-.37,16.27-.5,22.44q6-3,12.13-5.93a.14.14,0,0,1,.13.24,127.82,127.82,0,0,1-12.27,6.16c-.11,5.12-.21,11.2-.28,16.32a.24.24,0,0,1-.48,0c.07-6.53.08-14,.1-20.55a121.16,121.16,0,0,1-12-4.88C54,430.23,54.17,429.89,54.38,430Z" style="fill:#37474f"></path><path d="M398.56,456h38.95L433,435.88A25.93,25.93,0,0,1,420.51,432l12.07,2.24L427,409.66a22.34,22.34,0,0,1-4.95-3.16l4.56,1.45-.74-3.28a23.81,23.81,0,0,1-6.87-4.54l6.41,2.5L418,370.09l-4.16,18.39,3.74-.94a28.13,28.13,0,0,1-4,2.24l-6,26.35,4.34-1.09a28.31,28.31,0,0,1-4.66,2.53l-4.14,18.24,8.46-2.11a31.14,31.14,0,0,1-8.9,4L402,440.9l13-3.24a31,31,0,0,1-13.37,4.87l-1,4.55,4.33-1.08a28.8,28.8,0,0,1-4.66,2.52Z" style="fill:#455a64"></path><path d="M405.73,430c2.15.82,10.13,4.07,11.86,5V433.9l-5.79-3.38a67,67,0,0,1-6.22-3.7c-.1-.07-.05-.26.08-.21a51.82,51.82,0,0,1,6.1,3.37q2.94,1.72,5.83,3.53,0-4.17,0-8.33a66.49,66.49,0,0,1-9.1-4.63c-.1-.06,0-.24.09-.19a66.63,66.63,0,0,1,9,4.44c0-1.44,0-12.56.32-26.65-1.9-.95-3.85-1.79-5.74-2.75-.12-.07,0-.28.1-.23,1.92.75,3.77,1.64,5.65,2.46.1-3.83.25-7.67.48-11.5a.1.1,0,0,1,.2,0c.27,7.12.24,20.91.15,28,2-1.56,4-2.94,6-4.46.08-.06.15.07.08.13-2.09,1.59-4,3.34-6.13,4.93,0,.4,0,.8,0,1.2,2.13-1,4.28-1.87,6.43-2.79.17-.07.32.17.15.25-2.19,1.05-4.37,2.12-6.59,3.11-.05,3.53-.37,16.27-.5,22.44q6-3,12.12-5.93c.16-.07.29.15.14.24a127.82,127.82,0,0,1-12.27,6.16c-.11,5.12-.21,11.2-.28,16.32a.24.24,0,0,1-.48,0c.07-6.53.08-14,.1-20.55a121.16,121.16,0,0,1-12-4.88C405.38,430.23,405.52,429.89,405.73,430Z" style="fill:#37474f"></path><path d="M232.67,456h39l-4.56-20.11A25.9,25.9,0,0,1,254.62,432l12.07,2.24-5.57-24.58a22.62,22.62,0,0,1-5-3.16l4.57,1.45-.74-3.28a23.67,23.67,0,0,1-6.87-4.54l6.4,2.5-7.37-32.54L248,388.48l3.75-.94a28.13,28.13,0,0,1-4,2.24l-6,26.35,4.34-1.09a28.31,28.31,0,0,1-4.66,2.53l-4.14,18.24,8.46-2.11a31.14,31.14,0,0,1-8.9,4l-.72,3.18,13-3.24a31,31,0,0,1-13.37,4.87l-1,4.55L239,446a28.8,28.8,0,0,1-4.66,2.52Z" style="fill:#455a64"></path><path d="M239.84,430c2.15.82,10.13,4.07,11.86,5V433.9l-5.79-3.38a68.53,68.53,0,0,1-6.23-3.7c-.09-.07,0-.26.09-.21a51.82,51.82,0,0,1,6.1,3.37q2.94,1.72,5.83,3.53,0-4.17,0-8.33a66.49,66.49,0,0,1-9.1-4.63c-.1-.06,0-.24.08-.19a66.75,66.75,0,0,1,9,4.44c0-1.44,0-12.56.31-26.65-1.89-.95-3.84-1.79-5.73-2.75-.12-.07,0-.28.1-.23,1.92.75,3.77,1.64,5.65,2.46.1-3.83.25-7.67.48-11.5a.1.1,0,0,1,.2,0c.27,7.12.24,20.91.15,28,2-1.56,4-2.94,6-4.46.08-.06.15.07.07.13-2.08,1.59-4,3.34-6.12,4.93,0,.4,0,.8,0,1.2,2.13-1,4.28-1.87,6.43-2.79.17-.07.32.17.15.25-2.19,1.05-4.37,2.12-6.59,3.11-.05,3.53-.37,16.27-.5,22.44q6-3,12.12-5.93c.16-.07.29.15.14.24a127.82,127.82,0,0,1-12.27,6.16c-.11,5.12-.22,11.2-.28,16.32,0,.31-.49.31-.48,0,.07-6.53.08-14,.09-20.55a122,122,0,0,1-12-4.88C239.49,430.23,239.63,429.89,239.84,430Z" style="fill:#37474f"></path><path d="M381.21,456H339.27l2-11c8.79-.57,15.65-6.53,15.65-6.53l-15.3,4.67,5.65-30.43a30.69,30.69,0,0,0,6.36-4l-6,1.81.92-5a31.28,31.28,0,0,0,9-5.1L349.1,403l5.34-28.81a27.35,27.35,0,0,0,3.24-2.3l-3,.91,5.55-29.9,7.94,42.84-6.9-3.3a25.65,25.65,0,0,0,7.4,6h0l7.48,40.34-11.61-4.48a25.5,25.5,0,0,0,12.06,6.89l.76,4.12-6.24-1.42a22.86,22.86,0,0,0,6.66,3.7Z" style="fill:#37474f"></path><path d="M374.2,419.23c-2.51,1-11.43,4.57-13.44,5.67v-1.27c2.24-1.32,4.49-2.62,6.74-3.93,2.41-1.4,4-1.91,6.27-3.56.1-.08,0-.31-.11-.24a43.15,43.15,0,0,0-6.11,3.17c-2.28,1.34-4.54,2.72-6.79,4.11,0-3.24,0-6.47,0-9.71a76.86,76.86,0,0,0,10.59-5.38c.11-.07,0-.28-.1-.23a77.5,77.5,0,0,0-10.5,5.18l0-5.05c-.1-8.66-.11-17.33-.33-26,2.2-1.11,4.47-2.09,6.67-3.21.15-.07.05-.33-.11-.26-2.23.87-4.39,1.9-6.58,2.87-.12-4.47-.29-8.94-.56-13.4a.12.12,0,0,0-.23,0c-.31,8.29-.29,16.6-.18,24.9-2.29-1.82-4.72-3.43-7-5.2-.09-.07-.18.09-.09.15,2.43,1.85,4.7,3.9,7.14,5.74,0,.47,0,.94,0,1.41-2.47-1.13-5-2.19-7.48-3.26-.2-.08-.38.2-.18.3,2.55,1.22,5.09,2.46,7.67,3.62q.09,6.16.19,12.33c.09,7.18.25,14.36.4,21.54q-7-3.54-14.12-6.89c-.18-.09-.34.17-.16.27A146.75,146.75,0,0,0,360,430.09c.13,6,.25,19.66.33,25.63a.28.28,0,0,0,.56,0c-.08-7.61-.09-23-.12-30.56,2.47-.61,11.41-4.42,13.62-5.51C374.6,419.53,374.44,419.14,374.2,419.23Z" style="fill:#455a64"></path><path d="M452.79,456H422.17l3.59-15.8a20.34,20.34,0,0,0,9.78-3.06l-9.49,1.77,4.38-19.32a17.82,17.82,0,0,0,3.89-2.48l-3.58,1.13.58-2.57a18.54,18.54,0,0,0,5.39-3.58l-5,2,5.8-25.57,3.27,14.45-2.94-.74A21.68,21.68,0,0,0,441,404l4.69,20.71-3.41-.85a22.59,22.59,0,0,0,3.67,2l3.25,14.34-6.65-1.66a24.34,24.34,0,0,0,7,3.16l.57,2.5-10.22-2.55a24.27,24.27,0,0,0,10.51,3.83l.81,3.58-3.4-.85a22.73,22.73,0,0,0,3.66,2Z" style="fill:#37474f"></path><path d="M447.15,435.54c-1.69.65-8,3.2-9.32,3.94v-.85l4.55-2.66a51.36,51.36,0,0,0,4.9-2.91c.07-.05,0-.2-.07-.16a39.91,39.91,0,0,0-4.79,2.65c-1.54.9-3.07,1.83-4.59,2.77,0-2.18,0-4.37,0-6.55a52.16,52.16,0,0,0,7.15-3.63c.08-.05,0-.19-.06-.15a51.22,51.22,0,0,0-7.09,3.49c0-1.14,0-9.88-.25-21,1.49-.75,3-1.41,4.51-2.16a.1.1,0,0,0-.08-.18c-1.51.59-3,1.29-4.44,1.94-.08-3-.19-6-.38-9.05,0-.09-.15-.1-.15,0-.21,5.6-.19,16.43-.12,22-1.54-1.23-3.19-2.32-4.76-3.51-.06-.05-.12.05-.05.1,1.63,1.25,3.17,2.63,4.81,3.87,0,.32,0,.64,0,.95-1.67-.76-3.36-1.47-5-2.2-.13-.05-.25.14-.12.2,1.72.83,3.44,1.67,5.18,2.45,0,2.77.29,12.79.4,17.63-3.16-1.59-6.34-3.15-9.53-4.65a.11.11,0,1,0-.11.18,97.52,97.52,0,0,0,9.64,4.84c.09,4,.17,8.8.22,12.83,0,.24.39.24.38,0-.05-5.14-.06-11-.07-16.15a93.53,93.53,0,0,0,9.43-3.84A.15.15,0,0,0,447.15,435.54Z" style="fill:#455a64"></path><path d="M226.21,456H195.6l3.58-15.8a20.28,20.28,0,0,0,9.78-3.06l-9.48,1.77,4.37-19.32a17.88,17.88,0,0,0,3.9-2.48l-3.59,1.13.58-2.57a18.45,18.45,0,0,0,5.4-3.58l-5,2,5.79-25.57,3.28,14.45-2.94-.74a21.18,21.18,0,0,0,3.17,1.76l4.7,20.71-3.41-.85a22.73,22.73,0,0,0,3.66,2l3.26,14.34L216,438.47a24.34,24.34,0,0,0,7,3.16l.56,2.5-10.21-2.55a24.27,24.27,0,0,0,10.51,3.83l.81,3.58-3.4-.85a22.3,22.3,0,0,0,3.65,2Z" style="fill:#37474f"></path><path d="M220.58,435.54c-1.69.65-8,3.2-9.32,3.94v-.85l4.55-2.66a52.48,52.48,0,0,0,4.89-2.91c.08-.05,0-.2-.07-.16a40.69,40.69,0,0,0-4.79,2.65c-1.54.9-3.06,1.83-4.58,2.77l0-6.55a52.74,52.74,0,0,0,7.15-3.63c.07-.05,0-.19-.07-.15a51.66,51.66,0,0,0-7.08,3.49c0-1.14,0-9.88-.25-21,1.49-.75,3-1.41,4.5-2.16.1-.05,0-.22-.07-.18-1.51.59-3,1.29-4.44,1.94-.08-3-.2-6-.38-9.05a.08.08,0,0,0-.16,0c-.21,5.6-.19,16.43-.12,22-1.54-1.23-3.18-2.32-4.75-3.51-.06-.05-.12.05-.06.1,1.64,1.25,3.17,2.63,4.82,3.87,0,.32,0,.64,0,.95-1.67-.76-3.36-1.47-5.05-2.2-.14-.05-.25.14-.12.2,1.72.83,3.44,1.67,5.18,2.45,0,2.77.29,12.79.39,17.63-3.15-1.59-6.33-3.15-9.53-4.65a.1.1,0,0,0-.1.18,96.44,96.44,0,0,0,9.64,4.84c.09,4,.17,8.8.22,12.83a.19.19,0,0,0,.38,0c-.06-5.14-.06-11-.08-16.15a92.76,92.76,0,0,0,9.44-3.84C220.85,435.74,220.74,435.48,220.58,435.54Z" style="fill:#455a64"></path><path d="M149.2,456H118.59l3.58-15.8a20.34,20.34,0,0,0,9.78-3.06l-9.49,1.77,4.38-19.32a18.12,18.12,0,0,0,3.9-2.48l-3.59,1.13.58-2.57a18.72,18.72,0,0,0,5.4-3.58l-5,2,5.79-25.57,3.28,14.45-2.95-.74A21.68,21.68,0,0,0,137.4,404l4.7,20.71-3.41-.85a22.73,22.73,0,0,0,3.66,2l3.26,14.34L139,438.47a24.64,24.64,0,0,0,7,3.16l.56,2.5-10.22-2.55a24.27,24.27,0,0,0,10.51,3.83l.81,3.58-3.4-.85a22.73,22.73,0,0,0,3.66,2Z" style="fill:#37474f"></path><path d="M143.57,435.54c-1.7.65-8,3.2-9.32,3.94,0-.28,0-.57,0-.85l4.55-2.66a51.36,51.36,0,0,0,4.9-2.91c.07-.05,0-.2-.07-.16a40.69,40.69,0,0,0-4.79,2.65c-1.54.9-3.07,1.83-4.59,2.77,0-2.18,0-4.37,0-6.55a52,52,0,0,0,7.14-3.63c.08-.05,0-.19-.06-.15a51.22,51.22,0,0,0-7.09,3.49c0-1.14,0-9.88-.24-21,1.48-.75,3-1.41,4.5-2.16.1-.05,0-.22-.07-.18-1.51.59-3,1.29-4.45,1.94-.08-3-.19-6-.37-9.05,0-.09-.16-.1-.16,0-.21,5.6-.19,16.43-.12,22-1.54-1.23-3.18-2.32-4.75-3.51-.06-.05-.12.05-.06.1,1.64,1.25,3.17,2.63,4.81,3.87,0,.32,0,.64,0,.95-1.67-.76-3.37-1.47-5.06-2.2-.13-.05-.25.14-.11.2,1.72.83,3.43,1.67,5.17,2.45,0,2.77.3,12.79.4,17.63-3.15-1.59-6.33-3.15-9.53-4.65-.12-.06-.23.11-.11.18a96.6,96.6,0,0,0,9.65,4.84c.08,4,.17,8.8.22,12.83a.19.19,0,0,0,.38,0c-.06-5.14-.07-11-.08-16.15a94.67,94.67,0,0,0,9.44-3.84C143.84,435.74,143.73,435.48,143.57,435.54Z" style="fill:#455a64"></path><path d="M345.73,456H315.12l3.58-15.8a20.34,20.34,0,0,0,9.78-3.06L319,438.9l4.38-19.32a17.88,17.88,0,0,0,3.9-2.48l-3.59,1.13.58-2.57a18.72,18.72,0,0,0,5.4-3.58l-5,2,5.79-25.57,3.28,14.45-2.95-.74a21.68,21.68,0,0,0,3.18,1.76l4.7,20.71-3.41-.85a22.73,22.73,0,0,0,3.66,2l3.26,14.34-6.65-1.66a24.34,24.34,0,0,0,7,3.16l.56,2.5-10.22-2.55a24.27,24.27,0,0,0,10.51,3.83l.81,3.58-3.4-.85a22.73,22.73,0,0,0,3.66,2Z" style="fill:#455a64"></path><path d="M340.1,435.54c-1.69.65-8,3.2-9.32,3.94v-.85l4.54-2.66a51.36,51.36,0,0,0,4.9-2.91c.07-.05,0-.2-.07-.16a40.69,40.69,0,0,0-4.79,2.65c-1.54.9-3.07,1.83-4.59,2.77,0-2.18,0-4.37,0-6.55a52,52,0,0,0,7.14-3.63c.08-.05,0-.19-.06-.15a51.78,51.78,0,0,0-7.09,3.49c0-1.14,0-9.88-.24-21,1.48-.75,3-1.41,4.5-2.16.1-.05,0-.22-.07-.18-1.51.59-3,1.29-4.44,1.94-.08-3-.2-6-.38-9.05,0-.09-.16-.1-.16,0-.21,5.6-.19,16.43-.12,22-1.54-1.23-3.18-2.32-4.75-3.51-.06-.05-.12.05-.06.1,1.64,1.25,3.17,2.63,4.82,3.87,0,.32,0,.64,0,.95-1.67-.76-3.37-1.47-5.06-2.2-.13-.05-.25.14-.11.2,1.72.83,3.43,1.67,5.17,2.45,0,2.77.3,12.79.4,17.63-3.15-1.59-6.33-3.15-9.53-4.65-.12-.06-.23.11-.11.18a96.6,96.6,0,0,0,9.65,4.84c.08,4,.17,8.8.22,12.83a.19.19,0,0,0,.38,0c-.06-5.14-.07-11-.08-16.15a94.67,94.67,0,0,0,9.44-3.84C340.37,435.74,340.26,435.48,340.1,435.54Z" style="fill:#37474f"></path><path d="M107.16,456H65.22l2-11c8.79-.57,15.65-6.53,15.65-6.53l-15.3,4.67,5.65-30.43a30.69,30.69,0,0,0,6.36-4l-6,1.81.92-5a31.28,31.28,0,0,0,9-5.1L75.05,403l5.34-28.81a27.35,27.35,0,0,0,3.24-2.3l-3,.91,5.55-29.9,7.94,42.84-6.9-3.3a25.65,25.65,0,0,0,7.4,6h0l7.48,40.34-11.61-4.48a25.5,25.5,0,0,0,12.06,6.89l.76,4.12-6.24-1.42a22.86,22.86,0,0,0,6.66,3.7Z" style="fill:#37474f"></path><path d="M100.15,419.23c-2.51,1-11.43,4.57-13.44,5.67v-1.27c2.24-1.32,4.49-2.62,6.74-3.93,2.41-1.4,4-1.91,6.27-3.56.1-.08,0-.31-.11-.24a43.15,43.15,0,0,0-6.11,3.17c-2.28,1.34-4.54,2.72-6.79,4.11,0-3.24,0-6.47,0-9.71a76.86,76.86,0,0,0,10.59-5.38c.11-.07,0-.28-.1-.23A77.5,77.5,0,0,0,86.66,413l0-5.05c-.1-8.66-.11-17.33-.33-26,2.2-1.11,4.47-2.09,6.67-3.21.15-.07,0-.33-.11-.26-2.23.87-4.39,1.9-6.58,2.87-.12-4.47-.29-8.94-.56-13.4a.12.12,0,0,0-.23,0c-.31,8.29-.29,16.6-.18,24.9-2.29-1.82-4.72-3.43-7-5.2-.09-.07-.18.09-.09.15,2.43,1.85,4.7,3.9,7.14,5.74,0,.47,0,.94,0,1.41-2.47-1.13-5-2.19-7.48-3.26-.2-.08-.38.2-.18.3,2.55,1.22,5.09,2.46,7.67,3.62q.09,6.16.19,12.33c.09,7.18.25,14.36.4,21.54q-7-3.54-14.12-6.89c-.18-.09-.34.17-.16.27a146.75,146.75,0,0,0,14.29,7.18c.13,6,.25,19.66.33,25.63a.28.28,0,0,0,.56,0c-.08-7.61-.09-23-.12-30.56,2.47-.61,11.41-4.42,13.62-5.51C100.55,419.53,100.39,419.14,100.15,419.23Z" style="fill:#455a64"></path></g><g id="freepik--Character--inject-52"><path d="M395.69,147.84c.56-1.08-.77-3.38-.44-5.53a12.3,12.3,0,0,1,3.56-6.29c1.81-1.87,13.27-6.44,16.53-8.85,2.24-1.66,3.81-4.13,4.66-3.82,1.55.57-7.9,20.35-9.34,23.13s-5.4,4-5.4,4Z" style="fill:#FFC727"></path><path d="M395.69,147.84c.56-1.08-.77-3.38-.44-5.53a12.3,12.3,0,0,1,3.56-6.29c1.81-1.87,13.27-6.44,16.53-8.85,2.24-1.66,3.81-4.13,4.66-3.82,1.55.57-7.9,20.35-9.34,23.13s-5.4,4-5.4,4Z" style="opacity:0.7000000000000001"></path><path d="M405.26,148.14c-.19-12.75,4.87-10.55,10.91-19.36a18,18,0,0,1-3.09,4.9c-1.27,1.49-2.81,2.71-4.07,4.06-2.87,2.74-2.69,6.82-3.75,10.4Z" style="opacity:0.30000000000000004"></path><path d="M398.27,143.31s-13.46-5.56-21.11-5.56-30.26,14.13-35.59,17.38a15.3,15.3,0,0,1-10.47,2.08,18.17,18.17,0,0,0,14.63,1.08s-14.22,5.73-16.79,8.23-7,8.56-9.4,9.47a19.62,19.62,0,0,1-5.82.92s7.49,1.83,10.81,0a8.19,8.19,0,0,1-6.82,4.9s6.24.5,8.57-1c0,0-6.82,3.32-10.39,5.32s-8.48,6.9-10.65,7.4c0,0,5.32.49,9.15-1.42a16.65,16.65,0,0,1-6.57,5.16c-3.82,1.41-17,5.73-20.28,7.81a120.06,120.06,0,0,1-11.64,5.57s8.06.25,12-.91c0,0-5.29,9.39-27.29,12.93,0,0,39.87.65,64.48-15.09s35.55-40.35,41.05-47S398.27,143.31,398.27,143.31Z" style="fill:#FFC727"></path><path d="M398.27,143.31s-13.46-5.56-21.11-5.56-30.26,14.13-35.59,17.38a15.3,15.3,0,0,1-10.47,2.08,18.17,18.17,0,0,0,14.63,1.08s-14.22,5.73-16.79,8.23-7,8.56-9.4,9.47a19.62,19.62,0,0,1-5.82.92s7.49,1.83,10.81,0a8.19,8.19,0,0,1-6.82,4.9s6.24.5,8.57-1c0,0-6.82,3.32-10.39,5.32s-8.48,6.9-10.65,7.4c0,0,5.32.49,9.15-1.42a16.65,16.65,0,0,1-6.57,5.16c-3.82,1.41-17,5.73-20.28,7.81a120.06,120.06,0,0,1-11.64,5.57s8.06.25,12-.91c0,0-5.29,9.39-27.29,12.93,0,0,39.87.65,64.48-15.09s35.55-40.35,41.05-47S398.27,143.31,398.27,143.31Z" style="opacity:0.8"></path><path d="M282.05,302.91c-1.1,6.13,8.87,36.36,9.31,40s1.83,42.48,1.25,44.81-3.33,5.57-4,6.32-22.7,15.29-24.11,18-1.08,6.06-1.42,6.9-2.57,2.07-3.57,2.07-5.07-3.4-6.9-3.74-9.23,5.49-12.22,9.65-6.9,12.63-5.49,14.05,15.63-.75,17.71-1.58,18.37-10.73,20.12-12.89,12.39-13.8,16.29-17.71,16.88-12,18.54-16.71,4.33-28.26,5-35.41S323.7,318.4,325,311.17,282.38,301.06,282.05,302.91Z" style="fill:#FFC727"></path><path d="M282.05,302.91c-1.1,6.13,8.87,36.36,9.31,40s1.83,42.48,1.25,44.81-3.33,5.57-4,6.32-22.7,15.29-24.11,18-1.08,6.06-1.42,6.9-2.57,2.07-3.57,2.07-5.07-3.4-6.9-3.74-9.23,5.49-12.22,9.65-6.9,12.63-5.49,14.05,15.63-.75,17.71-1.58,18.37-10.73,20.12-12.89,12.39-13.8,16.29-17.71,16.88-12,18.54-16.71,4.33-28.26,5-35.41S323.7,318.4,325,311.17,282.38,301.06,282.05,302.91Z" style="opacity:0.7000000000000001"></path><path d="M248.82,439c1.69.9,4.94-.21,5.23-.31h0a15.53,15.53,0,0,1-1.43.72c-2.08.83-16.29,3-17.71,1.58s2.5-9.9,5.49-14.05,10.39-10,12.22-9.65,5.9,3.74,6.9,3.74C254.14,424.82,247.05,438,248.82,439Z" style="opacity:0.4"></path><path d="M143.21,279.41c-1.4,10.84,12,45.23,13,48.89s1.5,21.78,1,25.1-4.88,12-4.9,12.92-.67,7,0,8.09,24.38,20.4,31,26.71S199,422.68,201,424.79s5.93,2.16,6.37,2.49a1.59,1.59,0,0,1,.56,2.05c-.5.95-3.66,4.38-3.88,5.82s-1,4.88-.11,5.88,14.58,12.16,21.34,11.64c2.16-.17-.61-14.63-1.5-16.63s-5.38-9-5.49-9.7-.44-9-1.22-10.69-21.83-21.18-25.16-25-14.46-19-14.71-20.12-.59-5.07-.09-6.15,12.72-27,14.8-34,3.22-41,2.33-45.42S143.48,277.38,143.21,279.41Z" style="fill:#FFC727"></path><path d="M143.21,279.41c-1.4,10.84,12,45.23,13,48.89s1.5,21.78,1,25.1-4.88,12-4.9,12.92-.67,7,0,8.09,24.38,20.4,31,26.71S199,422.68,201,424.79s5.93,2.16,6.37,2.49a1.59,1.59,0,0,1,.56,2.05c-.5.95-3.66,4.38-3.88,5.82s-1,4.88-.11,5.88,14.58,12.16,21.34,11.64c2.16-.17-.61-14.63-1.5-16.63s-5.38-9-5.49-9.7-.44-9-1.22-10.69-21.83-21.18-25.16-25-14.46-19-14.71-20.12-.59-5.07-.09-6.15,12.72-27,14.8-34,3.22-41,2.33-45.42S143.48,277.38,143.21,279.41Z" style="opacity:0.7000000000000001"></path><path d="M225.3,452.67C218.54,453.19,204.84,442,204,441s-.11-4.43.11-5.88,3.38-4.87,3.88-5.82c.47,2.06,12.52,10.12,14.18,9.37s1-3.95,1-3.95c.3.53.53,1,.67,1.29C224.69,438,227.46,452.5,225.3,452.67Z" style="opacity:0.4"></path><path d="M391.12,196.94s-20.28,59.86-21.78,66.18-21.45,43.23-27.77,48.22-40.23,20.78-62.68,19.29-77-26.94-91.78-27.77-54.87-2.16-60-8.81-7.15-45.4-4.33-50.72,37.58-32.42,63.68-31.59,48.89,10.31,67.18,11.14,59.36-12,69.83-17.29,41.9-54.2,48.72-57.36,27.93-6,32.59-4.66,39.24,36,40.82,36.83,7.48,2.91,8.81,4.16.17,6.4.75,7.56.91,10,.5,10.81-3,1.5-3,1.5-.16,1.91-1.24,2.49-3.16.33-4.24.75-4.66,3.41-7.57,3.41-8.81-7.65-9.48-8-16.29-3.5-17.45-3.83-5.49,1.25-10.48,1.33S391.12,196.94,391.12,196.94Z" style="fill:#FFC727"></path><path d="M122.76,243.33c-3.21,5.16-6.69,16-7.42,22.45-1.67,14.52,5.21,58.75,4.65,61.85s-6.32,11.09-7.2,12-17.19,6.88-18.63,8.87-4.32,16.19-5.65,22.84-12.41,31.14-14.3,34.36-10.42,12-10.42,13.74,1,3.77.89,5.21-1.33,3.44-2,3.44-5.87-2.88-8-2.77-7.64,4.1-10.2,11.08-3.1,19.51-.66,19.62,17.85-10.75,18.4-11.86,2.88-6.76,5-8.42,9.86-3.33,11.3-4.66,11.53-26.16,15.41-34.14,15-27.29,24.39-32.59c3.32-1.88,18.62-17.73,21.39-19.51s27.94-18.51,33.92-23.38S194.7,294.82,198,291.72,122.76,243.33,122.76,243.33Z" style="fill:#FFC727"></path><path d="M351.72,237c3.82.88,17.29,24.87,17.62,26.14s2.77,23.5,2.5,24.89S358.92,310.67,359,311.56s21.83,34.36,23.5,35.91,8.75,8.1,9.64,10,5.88,27.16,7.76,33.25,5.1,14.41,5.65,17.3.72,17.12,1.11,18.07,2.83,4.65,3.6,5.87,3.44,16.07,2.5,16.79-8-.83-9.26-1.71-13.63-11.09-14-13,1.82-9.37,2.16-9.59,2.49-1.16,2.49-3-4.65-6-4.82-7.48-1.55-22.45-2.11-25-8.1-20.87-11.19-24.05c-11.2-11.53-29.15-20.95-33.59-23.83a245.17,245.17,0,0,1-19.4-15.52c-.88-1,.89-12.53,1.22-15.41s-4.54-8.31-5-10.09S343.57,235.12,351.72,237Z" style="fill:#FFC727"></path><path d="M455.14,192.12c-.58-1.16.58-6.32-.75-7.56s-7.23-3.33-8.81-4.16-36.17-35.5-40.82-36.83-25.77,1.5-32.59,4.66-38.24,52-48.72,57.36-51.54,18.12-69.83,17.29-41.07-10.31-67.18-11.14S125.59,238,122.76,243.33c-3.21,5.16-6.69,16-7.42,22.45-1.67,14.52,5.21,58.75,4.65,61.85s-6.32,11.09-7.2,12-17.19,6.88-18.63,8.87-4.32,16.19-5.65,22.84-12.41,31.14-14.3,34.36-10.42,12-10.42,13.74,1,3.77.89,5.21-1.33,3.44-2,3.44-5.87-2.88-8-2.77-7.64,4.1-10.2,11.08-3.1,19.51-.66,19.62,17.85-10.75,18.4-11.86,2.88-6.76,5-8.42,9.86-3.33,11.3-4.66,11.53-26.16,15.41-34.14,15-27.29,24.39-32.59c3.32-1.88,18.62-17.73,21.39-19.51s27.94-18.51,33.92-23.38c3.44-2.81,9.88-11.17,15.36-18.36,17.08,2.55,68.31,26.12,89.89,27.56,13.38.89,30.84-4.37,44.1-9.81-.22,2.39-.27,4.32.07,4.71a245.17,245.17,0,0,0,19.4,15.52c4.44,2.88,22.39,12.3,33.59,23.83,3.09,3.18,10.64,21.5,11.19,24.05s1.94,23.56,2.11,25,4.82,5.65,4.82,7.48-2.16,2.77-2.49,3-2.5,7.65-2.16,9.59,12.69,12.14,14,13,8.32,2.43,9.26,1.71-1.72-15.57-2.5-16.79-3.21-4.93-3.6-5.87-.55-15.19-1.11-18.07-3.77-11.2-5.65-17.3-6.87-31.36-7.76-33.25-8-8.42-9.64-10-23.45-35-23.5-35.91,12.58-22.17,12.86-23.55-2.17-23.62-2.5-24.89c1.5-6.32,21.78-66.18,21.78-66.18s6.07,3.75,11.06,3.66,9.31-1.66,10.48-1.33,16.79,3.49,17.45,3.83,6.57,8,9.48,8,6.49-3,7.57-3.41,3.16-.17,4.24-.75,1.24-2.49,1.24-2.49,2.58-.67,3-1.5S455.72,193.29,455.14,192.12Z" style="opacity:0.6000000000000001"></path><path d="M455.64,202.93c-.42.83-3,1.5-3,1.5s-.16,1.91-1.24,2.49-3.16.33-4.24.75-4.66,3.41-7.57,3.41-8.81-7.65-9.48-8c-.59-1.5.41-5.82,2-7.38s4.66-5.15,5.93-6.31.78-7.15,1.89-8.37,3.72-1.39,6.17-.4a.11.11,0,0,1,.07,0c2.1.94,7.05,2.76,8.26,3.89s.16,6.4.75,7.56S456.05,202.1,455.64,202.93Z" style="opacity:0.2"></path><path d="M422,160c-1.44,1.42,7,13.19,7.9,14.63s2.85,8.93,3.8,10,3.93,3.15,4.37,1.82,1.11-6.07,1.72-6.3,3.71-.16,4-.62-6.85-6.75-8.53-8C433.91,170.5,423.36,158.74,422,160Z" style="fill:#fff;opacity:0.30000000000000004"></path><path d="M415.06,168.13a7.06,7.06,0,0,1,1.05,2.66,4.13,4.13,0,0,1-2.16,2.94,9,9,0,0,1-4.32-.55c-2.33-1.33-2.78-2.72-2.78-2.72s2.5-2.05,4-2.33A19.76,19.76,0,0,1,415.06,168.13Z" style="fill:#263238"></path><path d="M406.85,170.46a7.26,7.26,0,0,1,7.79-2.78,4.32,4.32,0,0,0,1.32.17l1.41,0c-1.71,1-3.69.47-5.54.7-1.87,0-3.35,1.07-5,1.93Z" style="fill:#263238"></path><path d="M415.78,167c-1.74-.22-3.64-.77-5.35-.5a12.44,12.44,0,0,0-2.36,1.23c-.79.49-1.58,1-2.42,1.46a10.69,10.69,0,0,1,4.49-3.65,8.29,8.29,0,0,1,5.64,1.46Z" style="opacity:0.30000000000000004"></path><path d="M414.37,169c-.36.07-.1,1.38.21,1.45s.73.09.77-.2S414.7,168.9,414.37,169Z" style="fill:#fff"></path><path d="M323.34,320a.28.28,0,0,1,0-.09,5.64,5.64,0,0,1,.16-1.3,5.49,5.49,0,0,1,.66-3.14,5.25,5.25,0,0,1,.38-1.34c-13.94,4.09-33.4,9.18-41.15,8.83-11.14-.5-45.55-10.48-51.54-11.42s-37.41-8.37-42.85-8.49c17.09,2.56,68.3,26.12,89.88,27.56,13.47.89,31-4.43,44.33-9.91A4.1,4.1,0,0,1,323.34,320Z" style="opacity:0.1"></path><path d="M412.74,448.73c-.94.72-8-.83-9.26-1.71s-13.63-11.09-14-13,1.82-9.37,2.16-9.59a6.24,6.24,0,0,0,2-1.52c1.49,4.9,14.18,13.38,15.9,13.16s.69-4.1.69-4.1C411,433.16,413.68,448,412.74,448.73Z" style="opacity:0.4"></path><path d="M62.23,444.14c-.62,1.16-16,12-18.39,11.85s-1.89-12.63.66-19.62,8.1-11,10.2-11.08,7.32,2.77,8,2.77c-4.07,4.53-5.57,16.34-3.74,16.88A3.75,3.75,0,0,0,62.23,444.14Z" style="opacity:0.4"></path><path d="M378.92,148.86c.29-1.19-1.54-3.11-1.73-5.28a12.31,12.31,0,0,1,2-7c1.33-2.24,11.38-9.38,14-12.5,1.79-2.14,2.73-4.91,3.63-4.81,1.64.19-2.88,21.64-3.62,24.68s-4.31,5.17-4.31,5.17Z" style="fill:#FFC727"></path><path d="M378.92,148.86c.29-1.19-1.54-3.11-1.73-5.28a12.31,12.31,0,0,1,2-7c1.33-2.24,11.38-9.38,14-12.5,1.79-2.14,2.73-4.91,3.63-4.81,1.64.19-2.88,21.64-3.62,24.68s-4.31,5.17-4.31,5.17Z" style="opacity:0.6000000000000001"></path><path d="M385.33,147.16c-.32-2.09-1.29-4-1.28-6.18-.08-4.57,4.53-7.13,7.1-10.22a17.08,17.08,0,0,0,3.19-5.26,14.49,14.49,0,0,1-.94,3c-1.32,2.89-3.78,5.14-5.92,7.33a8.1,8.1,0,0,0-2.66,5.14c-.18,2,.6,4.06.51,6.17Z" style="opacity:0.30000000000000004"></path><path d="M149,227.82l-8.49,5.91c-9.06-.89-16.76-3.37-19.82-3.15s-13.64,5.15-17.18,12.36-11.06,37.7-13.21,46.23-13.53,18.73-16.26,22-9.27,7.05-9.68,7.29a46.68,46.68,0,0,0,3.68-3.81c1.65-2,2.17-7.54,2.22-8.23-.09.41-.72,2.64-4.3,7.14-4,5-21.06,11.34-25.22,11.4s-12.41,5.9-13.27,8.66-1.06,9.83-1.06,9.83a34.27,34.27,0,0,1-3.11-8.42c-1.51-6.21,2.32-12.43,2.52-12.76-3.21,1.17-5.57,7.22-5.57,7.22a68.26,68.26,0,0,1,.61-7c.42-2.06,4.92-8.49,8.11-10.37s15.46-10,20.27-15.79c2.53-3,4.81-7.79,6.75-12.94a26.89,26.89,0,0,1-5.74,6.28c.14-.41,3.49-10.23,4.15-14.78.58-4.13,7-13.7,10.16-19.27.31-.63.65-1.27,1-1.92,0,0,0,0,0,0a151.06,151.06,0,0,1,9.51-14.53c-1,1.08-7.88,3.74-8.33,3.91.44-.32,7.52-5.37,8.61-8.35s13.23-12.95,16.72-15.34,16.2-5,21.21-5.5,15.11,6.16,18.53,8.79S141.53,225.48,149,227.82Z" style="fill:#FFC727"></path><path d="M149,227.82l-8.49,5.91c-9.06-.89-16.76-3.37-19.82-3.15s-13.64,5.15-17.18,12.36-11.06,37.7-13.21,46.23-13.53,18.73-16.26,22-9.27,7.05-9.68,7.29a46.68,46.68,0,0,0,3.68-3.81c1.65-2,2.17-7.54,2.22-8.23-.09.41-.72,2.64-4.3,7.14-4,5-21.06,11.34-25.22,11.4s-12.41,5.9-13.27,8.66-1.06,9.83-1.06,9.83a34.27,34.27,0,0,1-3.11-8.42c-1.51-6.21,2.32-12.43,2.52-12.76-3.21,1.17-5.57,7.22-5.57,7.22a68.26,68.26,0,0,1,.61-7c.42-2.06,4.92-8.49,8.11-10.37s15.46-10,20.27-15.79c2.53-3,4.81-7.79,6.75-12.94a26.89,26.89,0,0,1-5.74,6.28c.14-.41,3.49-10.23,4.15-14.78.58-4.13,7-13.7,10.16-19.27.31-.63.65-1.27,1-1.92,0,0,0,0,0,0a151.06,151.06,0,0,1,9.51-14.53c-1,1.08-7.88,3.74-8.33,3.91.44-.32,7.52-5.37,8.61-8.35s13.23-12.95,16.72-15.34,16.2-5,21.21-5.5,15.11,6.16,18.53,8.79S141.53,225.48,149,227.82Z" style="opacity:0.8"></path><g style="opacity:0.30000000000000004"><path d="M391.12,196.94c-3.82-2.32-7.59-4.73-10.48-8.26a5,5,0,0,1-.64-1.27c-.48-2.82.51-6,1-8.78a20.21,20.21,0,0,0,.56-3.26c.33,3.95-1.13,7.89-.6,11.8,1.08,2.26,3.32,3.8,5.11,5.5,1.45,1.27,3.58,3,5.06,4.27Z"></path><path d="M433.67,198.73A2.6,2.6,0,0,1,435,199a35.08,35.08,0,0,1,5.52,3.39c3.42,2.57,8.08,2,12.17,2-3.74.91-8.12,1.46-11.65-.5-1.79-1.22-3.4-2.64-5.13-3.94a5.88,5.88,0,0,0-2.19-1.26Z"></path><path d="M443.83,185c5.59-.69,7.66.87,7.55,6.57-.43-.9-.65-1.85-1-2.73a5.21,5.21,0,0,0-1.26-2.23c-1.2-.84-3.84-1.21-5.31-1.61Z"></path><path d="M443.48,189c2.4-2.32,7.5,3.73,5.36,6a2.44,2.44,0,0,1-3.82-.83c-.47-1.49,0-2.63.24-4,.5,1,.6,2.47,1.17,3.32.14.21.61.24.82.22s.2-.09.16-.06,0,.06,0-.1a10,10,0,0,0-1.29-2.85c-.62-.9-1.27-1.88-2.61-1.71Z"></path><path d="M189,303.07c3-4.27,6.42-8.55,10.94-11.29a37.35,37.35,0,0,1,9-2.94L206,290a53.11,53.11,0,0,0-5.63,2.58c-4.32,2.79-7.73,6.87-11.39,10.46Z"></path><path d="M323,320.82c.13-4.13,1.58-8.51,1.64-12.6-.78-1.71-2.63-3.21-3.84-4.72s-3.09-3.38-4.3-4.8a75,75,0,0,1,7.14,6.55c.73.89,1.72,1.64,2,2.83,0,4.38-1.73,8.53-2.63,12.74Z"></path><path d="M369.34,263.12c-1.09-7.55-4.15-15-5.79-22.45,3,7.09,6.05,14.64,5.79,22.45Z"></path><path d="M366.44,242c.79,2.37,1.12,5.16,0,7.47.09-2.48-.24-5,0-7.47Z"></path><path d="M317.49,302.37a18.35,18.35,0,0,1,4.74,2.07,6,6,0,0,1-4.74-2.07Z"></path><path d="M359,311.56a40.62,40.62,0,0,0-7.37-2.73c-2.6-.23-5.32-.16-8-.43a29.57,29.57,0,0,1,8.08-.56,17,17,0,0,1,7.25,3.72Z"></path></g><polygon points="249.33 267.77 249.33 324.31 266.29 329.52 266.29 267.77 249.33 267.77" style="fill:#FFC727"></polygon><polygon points="249.33 267.77 249.33 324.31 266.29 329.52 266.29 267.77 249.33 267.77" style="opacity:0.30000000000000004"></polygon><path d="M203.54,212.68c1.49,0,35.31,8.65,52.15,9.32s39.89-8,54.21-11.86L312.06,255a24.45,24.45,0,0,1-20.78,25.34l-18.74,2.82a119.53,119.53,0,0,1-50-3.1l-1.2-.34a24.43,24.43,0,0,1-17.85-23.52Z" style="fill:#FFC727"></path><path d="M287.09,272.23,270.7,274.7A104.48,104.48,0,0,1,227,272l-1-.29a21.38,21.38,0,0,1-15.61-20.58v-37c11.06,2.5,32.86,7.37,45.34,7.87,14.5.57,33.58-5.75,47.74-10l1.82,38.07A21.36,21.36,0,0,1,287.09,272.23Z" style="fill:#455a64"></path><path d="M239.84,213.29c13.28,2,20-3.27,23.08-4.74s7.07-4.91,11.55-2.58,13.35,16.45,15.33,22.57S293,246.88,291,253.77,276.79,274,270.5,274.36s-26.7,1.29-30.66-2.32-12.92-8.36-13.27-15.6,2.16-27.56,2.07-35.05-.17-7-.08-7.5S235.36,212.6,239.84,213.29Z" style="fill:#FFC727"></path><path d="M239.84,213.29c13.28,2,20-3.27,23.08-4.74s7.07-4.91,11.55-2.58,13.35,16.45,15.33,22.57S293,246.88,291,253.77,276.79,274,270.5,274.36s-26.7,1.29-30.66-2.32-12.92-8.36-13.27-15.6,2.16-27.56,2.07-35.05-.17-7-.08-7.5S235.36,212.6,239.84,213.29Z" style="opacity:0.30000000000000004"></path><path d="M278.28,219.79c2.73,8.61,5.45,17.24,7.41,26.07a5.53,5.53,0,0,1,0,2.22c-.83,4.18-2.85,7.94-4.82,11.64-1.83,2.88-3.23,6.73-6.67,8-4.5,1.69-9.48,3.23-14.3,2.36,4.81.5,9.62-1.21,14-3a5.84,5.84,0,0,0,3-2.52,53.49,53.49,0,0,0,3.2-5.29c1.94-3.9,4.26-8,4.77-12.31-.41-3.71-1.68-7.39-2.49-11l-4.09-16.14Z" style="opacity:0.30000000000000004"></path><path d="M256,216.08c1.07-1.74-18.31-6.54-23.62-8.71s-27.66-14.57-29.33-15-5,3.93-5.09,5.06,1.72,5.27,1.72,5.27-3.31,3.13-3.46,3.78a48.54,48.54,0,0,0-.56,6.31c.1,1.05,5.13,2.15,10.15,3.26s18.3,2.36,22.06,2.69,18.81.79,22.68,1S255.46,217,256,216.08Z" style="fill:#FFC727"></path><path d="M256,216.08c1.07-1.74-18.31-6.54-23.62-8.71s-27.66-14.57-29.33-15-5,3.93-5.09,5.06,1.72,5.27,1.72,5.27-3.31,3.13-3.46,3.78a48.54,48.54,0,0,0-.56,6.31c.1,1.05,5.13,2.15,10.15,3.26s18.3,2.36,22.06,2.69,18.81.79,22.68,1S255.46,217,256,216.08Z" style="opacity:0.30000000000000004"></path><path d="M199.7,202.7c2.86,3,6.59,5,10.06,7.21a8.49,8.49,0,0,0,2.7,1.24c9,1.77,18.49,3,27.61,4.52,2.05.33,4.1.64,6.17.88-8.32-.3-16.55-1.6-24.78-2.81-3.08-.55-6.15-1-9.21-1.75a5.08,5.08,0,0,1-1.56-.59c-3.87-2.56-8.06-5-11-8.7Z" style="opacity:0.30000000000000004"></path><rect x="273.5" y="271.53" width="2.14" height="40.97" style="fill:#263238"></rect><path d="M376.89,145.73c10.29,7.86,20.35,16.83,29.93,25.56s19.23,18.13,27.89,27.76c-10.29-7.85-20.35-16.82-29.93-25.56s-19.22-18.13-27.89-27.76Z" style="fill:#FFC727"></path><path d="M441.25,176.44A96.7,96.7,0,0,1,416.11,200a96.7,96.7,0,0,1,25.14-23.6Z" style="fill:#FFC727"></path><path d="M425.86,196a5.08,5.08,0,1,1,5.08-5.08A5.09,5.09,0,0,1,425.86,196Zm0-8.16a3.08,3.08,0,1,0,3.08,3.08A3.08,3.08,0,0,0,425.86,187.81Z" style="fill:#fff"></path><path d="M394.78,136.33s4.59-1.86,8.06-1.32c3,.46,4.33,6.23,4.49,8.64s-3.74,10.4-3.74,10.4,1-6,.59-7.57c0,0-4.6,10.39-7,12.8s-8.84,4.91-8.84,4.91,4.07-4.41,4.32-5.65a28.55,28.55,0,0,1-7.07,4.9c-3.41,1.41-8.48,1.5-10.56,2.49s-7.06,3.91-7.06,3.91,4.82-7.48,7.15-8.81c0,0-6.65,3.24-9.65,4.9a12.42,12.42,0,0,1-5,1.75s7.15-7.73,9.22-9.73,9.23-6,9.23-6a57.74,57.74,0,0,1-6.57,1.62,24.74,24.74,0,0,1,9.32-3.66c5.58-1.08,8.61-2.07,10.69-5.32C393.67,142.49,394.78,136.33,394.78,136.33Z" style="fill:#FFC727"></path><path d="M394.78,136.33s4.59-1.86,8.06-1.32c3,.46,4.33,6.23,4.49,8.64s-3.74,10.4-3.74,10.4,1-6,.59-7.57c0,0-4.6,10.39-7,12.8s-8.84,4.91-8.84,4.91,4.07-4.41,4.32-5.65a28.55,28.55,0,0,1-7.07,4.9c-3.41,1.41-8.48,1.5-10.56,2.49s-7.06,3.91-7.06,3.91,4.82-7.48,7.15-8.81c0,0-6.65,3.24-9.65,4.9a12.42,12.42,0,0,1-5,1.75s7.15-7.73,9.22-9.73,9.23-6,9.23-6a57.74,57.74,0,0,1-6.57,1.62,24.74,24.74,0,0,1,9.32-3.66c5.58-1.08,8.61-2.07,10.69-5.32C393.67,142.49,394.78,136.33,394.78,136.33Z" style="opacity:0.8"></path><path d="M244.57,163.72S287.28,182.29,293,190s.28,23.94.28,23.94L242,187.56l-3.25-12.93Z" style="fill:#FFC727"></path><path d="M244.57,163.72S287.28,182.29,293,190s.28,23.94.28,23.94L242,187.56l-3.25-12.93Z" style="fill:#fff;opacity:0.2"></path><path d="M287.61,344.68c-2.26-.23-58.73-25.59-60.27-27.92-.59-.88,2.62-9.32,6.8-19.41.9-2.18,1.84-4.42,2.81-6.69,6.29-14.77,13.31-30.29,13.31-30.29l37.82,16.86-14.35,29.82-3.14,6.55s17.27,19.38,18.69,22.12S289.88,344.9,287.61,344.68Z" style="fill:#263238"></path><path d="M314.71,209.63c.72,15.62-15.61,49.86-21.1,63.26-.93,2.26-4.42,3.46-4.91,4.53s-38.44-17.05-38.44-17.05a45.8,45.8,0,0,1,0-6.08c1.5-8.63,17.85-29.77,17.85-29.77s-61.47-11.16-70-33.77c-4-10.62,6.82-36.1,6.82-36.1l42.8-3.52c3,7.6,0,18.46,0,18.46C255.06,172.65,314,194.06,314.71,209.63Z" style="fill:#FFC727"></path><g style="opacity:0.5"><path d="M314.71,209.63c.72,15.62-15.61,49.86-21.1,63.26-.93,2.26-4.42,3.46-4.91,4.53s-38.44-17.05-38.44-17.05a45.8,45.8,0,0,1,0-6.08c1.5-8.63,17.85-29.77,17.85-29.77s-61.47-11.16-70-33.77c-4-10.62,6.82-36.1,6.82-36.1l42.8-3.52c3,7.6,0,18.46,0,18.46C255.06,172.65,314,194.06,314.71,209.63Z" style="fill:#fff"></path></g><path d="M273.52,213.94c-.87,1.53-1.76,3.05-2.63,4.58l0,0c.13-.43.26-.87.4-1.3.48-1.47.82-3,1.43-4.4a.07.07,0,0,0-.13-.06c-.63,1.42-1.41,2.8-1.91,4.28q-.36,1-.66,2.1c-.11.38-.22.77-.31,1.16a5.25,5.25,0,0,0-.13.57c-.38.7-.76,1.42-1.13,2.14-.81,1.59-.34,2,.52.48s1.71-3.07,2.52-4.64,1.55-3.06,2.34-4.58S274.34,212.49,273.52,213.94Z" style="fill:#37474f"></path><path d="M221.46,160.77c-.45,1.95-1,3.86-1.62,5.76a13.82,13.82,0,0,1-2.31,4.81,11,11,0,0,1-4.12,2.84,26.94,26.94,0,0,1-2.77,1,20,20,0,0,0-2.84.92.19.19,0,0,0,.06.37,12.81,12.81,0,0,0,3.14-.34,18.39,18.39,0,0,0,2.93-.8,10.86,10.86,0,0,0,4.51-3.13,12.86,12.86,0,0,0,2.3-5.22,31.54,31.54,0,0,0,1-6.19A.13.13,0,0,0,221.46,160.77Z" style="fill:#37474f"></path><path d="M289.78,335.57l-.6,0a38.78,38.78,0,0,0-2.48-3.29c-.29-4.07-1.4-11.1-5.52-15.41a12.52,12.52,0,0,0-9.41-3.77l-.94,0a15.14,15.14,0,0,0-10.89,4.6c-3.44,3.67-4.75,8.83-5.23,12.68a35.59,35.59,0,0,0-.27,3.95l9.55.27h0c2.46,1.11,4.87,2.18,7.14,3.19l-19.58-.54-.09-1.36a34.93,34.93,0,0,1,.39-6.82c.63-4.18,2.18-9.46,5.89-13.42,3.46-3.7,8.18-5.57,14-5.57h.51a15.24,15.24,0,0,1,11.07,4.7C290.29,322,289.8,335,289.78,335.57Z" style="fill:#dbdbdb"></path><path d="M233.93,86.82a4,4,0,0,0-1.57,0c-2.35.54-3.85,2.62-4.8,4.67-1,2.2-1.59,4.78-3.3,6.57a4,4,0,0,1-2.51,1.34,3.65,3.65,0,0,1-2.8-1.25c-.81-.76-1.6-1.85-2.79-2a3.15,3.15,0,0,0-2.58,1.17c-1.67,1.83-1.44,4.66-2.22,6.88a12.56,12.56,0,0,1-4.43,6,12.16,12.16,0,0,1-6.57,2.3,12,12,0,0,1-3.43-.3c-1.25-.31-2.41-.88-3.64-1.24a4.44,4.44,0,0,0-3.57.19c-.82.51-2.4,3.7-1.58,8,.06.31-.5.4-.67.11a15.54,15.54,0,0,1-.91-1.71,16.86,16.86,0,0,1,.67-15.3,17.67,17.67,0,0,1,5.9-6.07,28.51,28.51,0,0,0,4-2.64,8.71,8.71,0,0,0,2.29-3.46c1-2.5,1.32-5.21,2.72-7.55a14.65,14.65,0,0,1,5.16-5,17.39,17.39,0,0,1,14.45-1.34C226.42,77.78,234.22,86.87,233.93,86.82Z" style="fill:#263238"></path><path d="M233.76,86.8a6.78,6.78,0,0,0-3.06.42A5.65,5.65,0,0,0,228.52,89a16.06,16.06,0,0,0-2.37,5.71c-.52,1.88-1.18,3.85-2.74,5.13a4.61,4.61,0,0,1-2.33,1.06,3.55,3.55,0,0,1-2.62-.83c-1.39-1.06-2.81-2.85-4.79-2.4s-2.67,2.67-3.23,4.3c-1.37,4-2.55,9.29-7.12,10.73a15.44,15.44,0,0,1-7.34.07c-1.7-.33-3.83-.75-5.28.46-.06,0,0,.11.08.07,1.55-1.25,3.62-.45,5.33,0a16.61,16.61,0,0,0,6.24.35,8,8,0,0,0,5.15-3.18,18.68,18.68,0,0,0,2.72-5.78c.33-1,.65-2.09,1-3.13a6.81,6.81,0,0,1,1.43-2.61,2.34,2.34,0,0,1,2.74-.45,12.12,12.12,0,0,1,2.44,1.84,4.72,4.72,0,0,0,2.43,1.14,4.23,4.23,0,0,0,2.16-.36,6.72,6.72,0,0,0,3.37-3.55c1-2.16,1.18-4.59,2.19-6.74a5.56,5.56,0,0,1,5.78-3.7A.13.13,0,0,0,233.76,86.8Z" style="fill:#263238"></path><path d="M220.6,74.25a14.25,14.25,0,0,0-13.94,2.94A17.56,17.56,0,0,0,202,84c-1,2.41-1.64,5-3.12,7.17-1.64,2.39-4.3,3.46-6.72,4.88a15.57,15.57,0,0,0-4.93,4.56A16.67,16.67,0,0,0,184.45,113c.11.55.23,1.09.39,1.62a.05.05,0,1,0,.1,0,16.06,16.06,0,0,1,2-12.56,15.69,15.69,0,0,1,4.35-4.65c2.17-1.51,4.77-2.36,6.74-4.17s2.78-4.09,3.6-6.4a23.21,23.21,0,0,1,3.49-7.11,14.3,14.3,0,0,1,13.26-5.37c5.62.92,9.68,5.24,12.9,9.61l1.29,1.76c0,.07.15,0,.11-.06C229.61,81,226,76.2,220.6,74.25Z" style="fill:#263238"></path><path d="M235.81,84.46a2.43,2.43,0,0,0-2.31-.7c-.5.28-2.19,4.44-1.7,5.44s2.45.38,2.45.38Z" style="fill:#FFC727"></path><path d="M202.68,157.47l48,4,1.13-15.89s5.27-2.24,3.6-10.3c-1-4.68-7.24-15-10.29-19.82-7-11.09-14.92-6.87-17.56-4.27C217.55,121.15,202.68,157.47,202.68,157.47Z" style="fill:#455a64"></path><path d="M237.91,143.83a47.46,47.46,0,0,1,6.74.3c1.11.15,2.21.35,3.3.57.55.11,1.1.21,1.65.29a6.77,6.77,0,0,0,1.74.12s.06.08,0,.08a13.18,13.18,0,0,1-1.65.17,12.29,12.29,0,0,1-1.6-.11c-1.12-.14-2.24-.33-3.37-.48-2.27-.31-4.54-.61-6.83-.75C237.8,144,237.8,143.83,237.91,143.83Z" style="fill:#263238"></path><path d="M232.64,146.46a48.37,48.37,0,0,1,5.49-.92c.92-.1,1.85-.14,2.78-.17h1.33c.49,0,1,.07,1.46.07.06,0,.07.08,0,.08-.46,0-.92.11-1.38.15l-1.38.13-2.77.26c-1.85.16-3.69.33-5.53.55C232.55,146.62,232.54,146.48,232.64,146.46Z" style="fill:#263238"></path><path d="M232.64,109.22c-.09,1,2.25,8.26,6.43,9.45,1.36.39,3.8-7,3.8-7l.3-.5,4.24-7-7-8.71-1-1.19s-1,2-2.3,4.5l-.18.35a4,4,0,0,0-.21.41c-.2.37-.39.75-.58,1.13s-.29.57-.43.88-.28.61-.43.92A53,53,0,0,0,232.64,109.22Z" style="fill:#f7a9a0"></path><path d="M237.09,98.79a16.4,16.4,0,0,0,6.08,12.42l4.24-7-7-8.71-1-1.19S238.35,96.29,237.09,98.79Z" style="fill:#263238"></path><path d="M260,90.61c2.15,14.24-6.13,17.14-9.2,17.6-2.78.42-12.33,1.49-15.94-12.45s2.32-19.43,8.65-20.73S257.8,76.38,260,90.61Z" style="fill:#f7a9a0"></path><path d="M256.45,88.46a8.26,8.26,0,0,1-1-.08,1.55,1.55,0,0,1-1-.27.5.5,0,0,1-.08-.62,1.25,1.25,0,0,1,1.2-.46,1.92,1.92,0,0,1,1.25.51A.55.55,0,0,1,256.45,88.46Z" style="fill:#263238"></path><path d="M246.75,91.19a9,9,0,0,0,.87-.46,1.68,1.68,0,0,0,.81-.65.5.5,0,0,0-.18-.6,1.25,1.25,0,0,0-1.28.06,1.84,1.84,0,0,0-.94,1A.54.54,0,0,0,246.75,91.19Z" style="fill:#263238"></path><path d="M248.93,92.91s-.07,0-.06.09c.18,1,.22,2.1-.6,2.56,0,0,0,.06,0,0C249.33,95.3,249.26,93.79,248.93,92.91Z" style="fill:#263238"></path><path d="M247.91,92c-1.57.11-1.22,3.26.24,3.15S249.23,91.93,247.91,92Z" style="fill:#263238"></path><path d="M247.32,92.26c-.26.21-.49.55-.82.62s-.71-.21-1-.5c0,0-.06,0,0,0,.06.61.36,1.2,1,1.22s1-.57,1-1.19C247.53,92.33,247.42,92.18,247.32,92.26Z" style="fill:#263238"></path><path d="M254.76,92.09s.08,0,.09.08c.07,1,.31,2.08,1.23,2.31,0,0,0,.06,0,.06C255,94.5,254.67,93,254.76,92.09Z" style="fill:#263238"></path><path d="M255.53,91c1.55-.29,2,2.85.56,3.11S254.22,91.22,255.53,91Z" style="fill:#263238"></path><path d="M256.21,91.09c.27.13.56.4.86.37s.55-.4.72-.76c0,0,0,0,0,0,.11.6,0,1.25-.56,1.45s-1-.28-1.2-.86C256,91.22,256.1,91,256.21,91.09Z" style="fill:#263238"></path><path d="M249.87,100.64c.22.23.45.55.81.59a2.62,2.62,0,0,0,1.06-.22s.06,0,0,0a1.32,1.32,0,0,1-1.26.5,1,1,0,0,1-.75-.88C249.76,100.62,249.83,100.6,249.87,100.64Z" style="fill:#263238"></path><path d="M253.83,97a21,21,0,0,1,.28,2.14c0,.07-.16.11-.39.13,0,0,0,0,0,0a3.28,3.28,0,0,1-3.23-1.11c-.05-.07,0-.14.1-.1a4.9,4.9,0,0,0,3,.75c0-.19-.52-2.48-.41-2.49a5.62,5.62,0,0,1,1.58.3c-.44-3-1.37-6-1.76-9a.09.09,0,0,1,.17,0,49.32,49.32,0,0,1,2.32,9.65C255.55,97.52,254.11,97.06,253.83,97Z" style="fill:#263238"></path><path d="M253.6,98.89a4,4,0,0,1-1.45,1.41,1.88,1.88,0,0,1-1.08.18c-.81-.12-.91-.84-.83-1.47a4.14,4.14,0,0,1,.25-1A5.14,5.14,0,0,0,253.6,98.89Z" style="fill:#263238"></path><path d="M252.15,100.3a1.88,1.88,0,0,1-1.08.18c-.81-.12-.91-.84-.83-1.47A1.86,1.86,0,0,1,252.15,100.3Z" style="fill:#ff9bbc"></path><path d="M235.3,97.44a6,6,0,0,0,2.89-5.14,15.66,15.66,0,0,0,5.87-5.66c-.07.31-.58,2.52-.87,3.63,9-2.53,11.2-9.79,11.2-9.79a15.9,15.9,0,0,1,4.51,5.44s-.44-5.62-3.66-9.12a9.09,9.09,0,0,0-8.69-3,13,13,0,0,0-12.28,5C228.91,85.87,235.3,97.44,235.3,97.44Z" style="fill:#263238"></path><path d="M250,88.13a17,17,0,0,1-4.54,2.15s0,0,0,0a14.38,14.38,0,0,0,6.35-4.67,13.72,13.72,0,0,0,1.72-2.94,9.37,9.37,0,0,0,.9-3.59c0-.1.15-.1.15,0a11.41,11.41,0,0,1-.4,3.68,10.37,10.37,0,0,1-1.76,3.21A11.71,11.71,0,0,1,250,88.13Z" style="fill:#263238"></path><path d="M235.25,100.67a2.47,2.47,0,0,0,.67.13,2.17,2.17,0,0,0,.68,0,2,2,0,0,0,.81-.32,2.34,2.34,0,0,0,.52-.46,2.53,2.53,0,0,0,.49-.84l-1-3.79s-3.42-4.28-5.38-3S232.8,99.94,235.25,100.67Z" style="fill:#f7a9a0"></path><path d="M232.84,94.14s-.05,0,0,.06a6.15,6.15,0,0,1,3.42,3.64,1.35,1.35,0,0,0-2-.24c-.05,0,0,.1.05.09a1.49,1.49,0,0,1,1.67.42,7.09,7.09,0,0,1,.88,1.28c.09.14.35,0,.28-.12v0C237,97.09,235.14,94.21,232.84,94.14Z" style="fill:#263238"></path><path d="M223.07,115c-8.63,8.36-30.19,40.63-24.18,47s41.46,0,51.54-4.23c3-1.24-7.22-20.05-10.64-20.65-2.84-.5-17.83,5.47-18.21,4.6s2.25-7.89,6.41-20.43C232.79,106.82,226.88,111.3,223.07,115Z" style="fill:#f7a9a0"></path><path d="M254.63,132c7.17-.63,9.11.31,14.87-3.44,3.78-2.46,7-1.1,4.68,3-3.75,6.7-12.82,9.46-16.24,9.51Z" style="fill:#f7a9a0"></path><path d="M370.26,214.41a79.74,79.74,0,0,1-13.34-1.15C326,208,300,173.39,282.88,150.49c-7.61-10.16-13.63-18.18-16.67-18.73-1.67-.31-5.59,3.87-9.37,7.9-4.27,4.56-9.11,9.73-12.93,11.05l-.32-1c3.58-1.23,8.33-6.3,12.52-10.78,5-5.33,8.15-8.59,10.27-8.2,3.44.62,9.25,8.37,17.3,19.11,17.06,22.77,42.85,57.19,73.41,62.39,40.49,6.88,65.37-20,65.61-20.27l.74.67C423.22,192.92,403.37,214.41,370.26,214.41Z" style="fill:#263238"></path><path d="M235.39,137.86a73.21,73.21,0,0,1,15.79-5.47c5.23-1,16.86-1.88,27.34,10.07,2.49,2.84,4,8.64-1.72,5.49-4.08-2.24-6-4.9-8.6-5.77,0,0,1.07,7.61-1.86,10a69.91,69.91,0,0,1-8.12,5.68,13.38,13.38,0,0,1-1.2-1.43s-3,2-8.29,1.19Z" style="fill:#f7a9a0"></path><path d="M256.32,132.24c2.41,1.41,7.46,4.49,10.72,8.45,3.62,4.4,9.41,13.84,6.13,16.48-2.4,1.93-4.92-1.48-4.92-1.48s1.57,4.41-1,5.68c-2.33,1.16-4.12-1.6-4.12-1.6s.49,2.84-2,3.53c-2.95.82-3.5-5.26-7.21-7C253.14,155.9,256.32,132.24,256.32,132.24Z" style="fill:#f7a9a0"></path><path d="M261.76,143.74a22.66,22.66,0,0,1,6.53,11.84c0,.11-.06.19-.1.09a56.15,56.15,0,0,0-6.47-11.9S261.74,143.72,261.76,143.74Z" style="fill:#263238"></path><path d="M257.43,147.52a25.52,25.52,0,0,1,5.81,12.21c0,.12-.07.19-.1.08a59.26,59.26,0,0,0-5.76-12.26S257.41,147.5,257.43,147.52Z" style="fill:#263238"></path><path d="M235.39,137.86l10,24.15s-44.36,7.66-47.76-.16S212.79,125,220.9,116.67c9.4-9.65,10.37-6.16,8,2.68-2.52,9.26-7.16,22.6-7.16,22.6Z" style="fill:#455a64"></path><path d="M208.05,147.57a50.91,50.91,0,0,1,6.59-3.44,49.88,49.88,0,0,1,6.94-2.39c1.35-.37,2.71-.68,4.07-1,0,0,0,.06,0,.07a63.8,63.8,0,0,0-7,2.33c-2.29.88-4.55,1.81-6.79,2.77-1.28.55-2.52,1.15-3.77,1.74A0,0,0,0,1,208.05,147.57Z" style="fill:#263238"></path><path d="M235.28,137.78c-.23.05-12.42,3.41-12.83,3.58.06-.18,2.53-6.45,2.9-7.37,0-.09.07-.19.11-.28.24-.4.48-.81.7-1.22l.86-1.6s0,0,0,0l-.92,1.56c-.14.24-.27.49-.4.73.24-.65.48-1.3.71-1.95.38-1.05.72-2.1,1.06-3.15a0,0,0,1,0-.05,0c-.73,1.83-1.52,3.63-2.25,5.46s-3.55,8.55-3.53,8.55,13.45-4,13.71-4.1A.09.09,0,0,0,235.28,137.78Z" style="fill:#263238"></path><path d="M235.32,153.22c-1.11-2.7-2.19-5.4-3.39-8.06-.69-1.51-1.36-3-2.06-4.52,0-.06-.13,0-.1,0,1,2.75,2,5.5,3.13,8.21s2.22,5.38,3.37,8.06c.66,1.52,1.36,3,2.11,4.49,0,0,.06,0,.05,0C237.52,158.64,236.43,155.93,235.32,153.22Z" style="fill:#263238"></path><path d="M246,162.41c-.4-.75-.9-1.82-1.34-2.55-.11-.2-.26-.16-.17,0,.3.67.54,1.43.84,2.12-.62.09-1.25.17-1.87.27l-2.15.34c-1.41.22-2.82.42-4.23.61q-4.29.57-8.6,1a164.66,164.66,0,0,1-17.34.76c-1.62,0-3.24-.07-4.85-.18a45.39,45.39,0,0,1-4.76-.47c-.05,0-.06.07,0,.08a26.52,26.52,0,0,0,4.13.75c1.46.14,2.92.25,4.39.3,2.91.12,5.84.07,8.75-.05q8.69-.36,17.31-1.45c1.61-.2,3.21-.42,4.82-.66l2.42-.38A15.57,15.57,0,0,0,246,162.41Z" style="fill:#263238"></path></g></svg>
